<?xml version="1.0" encoding="UTF-8"?>
<svg id="Layer_2" data-name="Layer 2" xmlns="http://www.w3.org/2000/svg" viewBox="0 0 941.55 833.41">
  <defs>
    <style>
      .cls-1 {
        fill: #d1e5ed;
      }

      .cls-2 {
        fill: #a2b3bc;
      }

      .cls-3 {
        fill: #93a6b2;
      }

      .cls-4 {
        fill: #5d7887;
      }
    </style>
  </defs>
  <g id="Layer_1-2" data-name="Layer 1">
    <path class="cls-3" d="M778.01,272.1c-3.9,33.38-24.32,70.73-61.98,90.02,7.25,3.89,12.8,8.62,15.42,14.14.89,1.86,1.44,3.8,1.62,5.83,1.15,13.15-13.52,29.93-56.71,49.77-1.79.82-3.66,1.63-5.59,2.44,1.17.97,2.26,1.95,3.28,2.94,6.09,5.91,9.52,12.15,10.32,18.55,2.5,19.68-19.77,40.71-65.22,57.22-.1.04-.21.08-.32.12.02.01.04.02.06.04,1.49.95,2.9,1.99,4.22,3.13,4.27,3.67,7.65,8.4,9.7,14.41.54,1.59.99,3.26,1.34,5.03,2.44,12.52-2.97,22.55-13.69,30.69.34.45.66.9.97,1.36,6.64,9.53,8.91,19.79,7.93,29.42-1.02,10.06-5.57,19.44-12.36,26.61,1.45.42,2.77.9,3.97,1.45,7.53,3.42,10.53,9.5,13.75,20.24,1.72,5.75,2.02,12.66.99,19.75-1.93,13.37-8.56,27.41-19.2,35.7.3.88.57,1.79.78,2.74,1.31,5.6,1.09,12.19-1.58,17.97h0c-3.33,7.21-10.45,13.12-23.13,14.27.71,1.65,1.24,3.34,1.54,5.05.25,1.45.33,2.92.22,4.4-.24,3.07-1.21,5.56-2.8,7.53-3.78,4.68-11.06,6.42-20.32,6.01.37.77.67,1.55.9,2.35,1.68,5.67-.24,11.61-5.89,15.56,0,0-.01,0-.02,0-2.73,1.9-6.33,3.32-10.82,4.02,1.01,1.49,1.44,3.05,1.39,4.62-.28,8.13-13.41,16.82-25.28,19.75,1.02,5.04-6.87,14.55-16.82,17.26-1.41.38-2.86.63-4.33.71.06,2.57-2.04,5.78-5.5,7.99-4.43,2.84-9.41,2.97-11.13.3-1.71-2.67.5-7.13,4.93-9.98.43-.27.86-.51,1.29-.74-7.27-3.99-9.36-11.8-3.04-17.34.18-.17.36-.32.56-.47,1.81-1.44,4.21-2.71,7.28-3.7-7.52-6.2-9.54-15.93,4.14-27.41.37-.31.76-.63,1.16-.95.57-.45,1.17-.92,1.8-1.38-9.88-8.19-10.82-18.64-6.64-25.96h0c1.11-1.96,2.6-3.7,4.38-5.1.85-.68,1.78-1.28,2.76-1.79-5.25-5.79-7.57-12.23-6.07-18.2h0c.83-3.31,2.83-6.48,6.15-9.3,2.25-1.93,5.11-3.69,8.62-5.24-15.04-16.05-25.22-36.37-26.68-56.85-.02-.32-.05-.65-.07-.97-.02-.32-.04-.65-.05-.97-.01-.39-.04-.78-.04-1.17-.01-.16-.01-.31-.01-.47-.01-.51-.02-1.02-.02-1.52,0-1.29.04-2.58.12-3.88-17.07-2.61-30.41-6.93-34.6-13.22-.67-1.02-1.11-2.09-1.29-3.21-.4-2.54-.54-5.02-.44-7.41.17-3.81.95-7.44,2.3-10.83-42.94,2.35-68.59-7.72-71.73-38.51-.4-3.88-.43-8.08-.11-12.63.3-4.12.89-8.51,1.8-13.21-4.95-.53-9.75-1.16-14.4-1.87-43.02-6.59-73.14-20.76-79.94-41.92-1.76-5.44-1.97-11.36-.44-17.72.94-3.95,2.54-8.07,4.86-12.37-44.69-7.54-74.96-21.13-76.55-42.01-.81-10.74-.84-19.78.48-27.46h0c.45-2.63,1.05-5.09,1.84-7.41,1.56-4.61,3.83-8.66,6.97-12.25-20.34-5.09-37.23-11.36-49.35-18.94-28.09-17.55-45.49-40.58-53.97-63.89-5.65-15.51-7.36-31.14-5.67-45.37,2.09-17.67,9.43-33.18,21-43.62-16.5-26.32-23.98-56.35-13.39-82.97,5.5-13.81,15.86-26.71,32.37-37.69,67.07-44.63,154.74-38.32,231.62-39.22,21.67-.25,43.38-.19,65.07.35,65.9,1.64,131.71,7.69,196.03,22.55,28.63,6.61,57.54,15.28,81.12,32.79,11.51,8.55,21.59,19.58,28.7,32.06,7.44,13.08,11.6,27.73,10.67,42.75-.94,15.05-6.58,28.5-15.23,40.32,7.53,6.7,12.54,16.45,14.99,27.88,1.91,8.87,2.27,18.76,1.08,29.02Z"/>
    <path class="cls-4" d="M403.14,257.83s-187.84,12.48-279.15-9.96c2.09-17.67,9.43-33.18,21-43.62-16.5-26.32-23.98-56.35-13.39-82.97,27.85,59.06,171.62,128.49,271.55,136.54Z"/>
    <ellipse class="cls-4" cx="440" cy="121.29" rx="42.85" ry="230.66" transform="translate(305.23 557.35) rotate(-88.24)"/>
    <path class="cls-3" d="M663.06,108.23c-209.86-37.54-329.71-9.15-344.63-4.33-14.92,4.81,52.95-45.24,271.47-18.29,45.73,7.3,73.16,22.62,73.16,22.62Z"/>
    <path class="cls-4" d="M777.18,174.88c-.94,15.05-6.58,28.5-15.23,40.32,7.53,6.7,12.54,16.45,14.99,27.88-63.66,30.66-171.98,22.18-151.75,18.22,26.77-5.24,123.8-46.7,141.32-129.16,7.44,13.08,11.6,27.73,10.67,42.75Z"/>
    <path class="cls-4" d="M555.48,72.37c173.28,14.44,228.39,66.18,60.28,93.22,0,0,86.29-17.77,79.79-49.9s-140.07-43.32-140.07-43.32Z"/>
    <path class="cls-4" d="M223.61,87.54c147.77-31.29,236.81-19.25,245.96-18.77,9.15.48-36.1-11.07-129.96-5.78-93.86,5.29-116,24.55-116,24.55Z"/>
    <path class="cls-4" d="M129.67,293.25c24.39,52.76,163.01,96.08,277.09,97.52,0,0-96.02,29.6-212.26-12.27-116.24-41.88-64.82-85.25-64.82-85.25Z"/>
    <path class="cls-4" d="M716.04,362.12c7.25,3.89,12.8,8.62,15.42,14.14-39.51,12.98-79.95,10.18-79.95,10.18,32.53-7.8,101.99-46.1,126.51-114.34-3.9,33.38-24.32,70.73-61.98,90.02Z"/>
    <path class="cls-4" d="M295.39,477.58c.94-3.95,2.54-8.07,4.86-12.37-44.69-7.54-74.96-21.13-76.55-42.01-.81-10.74-.84-19.78.48-27.46,19.42,76.62,248.28,65.79,290.87,61.46,34.62-3.52-98.17,28.73-219.66,20.38Z"/>
    <path class="cls-4" d="M536.08,535.17c-.71.47-68.92,26.47-147.7,17.13.3-4.12.89-8.51,1.8-13.21-4.95-.53-9.75-1.16-14.4-1.87,71.9,6.09,151.45,1.38,160.31-2.05Z"/>
    <path class="cls-4" d="M457.91,614.27c.17-3.81.95-7.44,2.3-10.83-42.94,2.35-68.59-7.72-71.73-38.51h0c28.61,39.07,159.51,26.55,185.51,15.97-.79.47-44.63,26.37-116.1,33.37Z"/>
    <path class="cls-4" d="M513.48,644.07c-5.89,1.37-12.29,2.44-19.15,3.03-.02-.32-.05-.65-.07-.97-.02-.32-.04-.65-.05-.97-.01-.39-.04-.78-.04-1.17-.01-.16-.01-.31-.01-.47-.01-.51-.02-1.02-.02-1.52,0-1.29.04-2.58.12-3.88-17.07-2.61-30.41-6.93-34.6-13.22,0,0,.01,0,.01,0,34.51,15.25,90.29-.19,97.51-2.6,4.82-1.61-12.09,14.43-43.69,21.78Z"/>
    <path class="cls-4" d="M617,623.81c1.45.42,2.77.9,3.97,1.45-13.08,3.36-26.32,2.92-22.4,1.36,6.38-2.56,14.65-7.36,30.79-29.41-1.02,10.06-5.57,19.44-12.36,26.61Z"/>
    <path class="cls-4" d="M620.45,566.43c.34.45.66.9.97,1.36-16.45,1.71-32.61-2.02-28.63-2.86,6.5-1.37,32.29-8.37,40.01-34.22.54,1.59.99,3.26,1.34,5.03,2.44,12.52-2.97,22.55-13.69,30.69Z"/>
    <path class="cls-4" d="M676.37,431.86c-1.79.82-3.66,1.63-5.59,2.44,1.17.97,2.26,1.95,3.28,2.94-42.53,1.26-115.9-3.04-81.88-2.66,43.67.48,115.57-19.63,140.9-52.48,1.15,13.15-13.52,29.93-56.71,49.77Z"/>
    <path class="cls-4" d="M577.95,710.16s-30.05,14.59-65.56-.96c2.25-1.93,5.11-3.69,8.62-5.24-15.04-16.05-25.22-36.37-26.68-56.85-.02-.32-.05-.65-.07-.97-.02-.32-.04-.65-.05-.97l19.88-1.23c-.22.04-.42.09-.61.15-13.05,4.07,16.58,57.07,64.47,66.08Z"/>
    <path class="cls-4" d="M616.51,700.96c.3.88.57,1.79.78,2.74-7.98.26-15.11-3.19-15.11-3.19,4.22-1.05,17.5-2.85,33.53-35.24-1.93,13.37-8.56,27.41-19.2,35.7Z"/>
    <path class="cls-4" d="M592.58,735.93c.71,1.65,1.24,3.34,1.54,5.05-12.98-3.07-26.36-9.67-26.36-9.67,12.63.22,27.25.04,47.95-9.64-3.33,7.2-10.45,13.11-23.13,14.26Z"/>
    <path class="cls-4" d="M509.55,738.49c.85-.68,1.78-1.28,2.76-1.79-5.25-5.79-7.57-12.23-6.07-18.2,6.85,17.21,17.93,22.64,23.74,24.02,0,0-9.8-1.08-20.42-4.03Z"/>
    <path class="cls-4" d="M591.53,752.91c-3.78,4.68-11.06,6.42-20.32,6.01.37.77.67,1.55.9,2.35-9.01-3.3-15.1-7.75-11.58-7.34,5.32.61,11.51,2.1,30.99-1.02Z"/>
    <path class="cls-4" d="M526.84,774.63s-5.79-.3-12.48-1.55c-1.8-.33-3.67-.74-5.51-1.22.37-.31.76-.63,1.16-.95.57-.45,1.17-.92,1.8-1.38-9.88-8.19-10.82-18.64-6.64-25.96h0c-2.3,10.08-1.44,16.61,21.67,31.05Z"/>
    <path class="cls-4" d="M555.38,780.86c1.01,1.49,1.44,3.05,1.39,4.62-11.16-4.66-24.29-14.89-20.3-13.5,4.3,1.5,14.84,5.74,29.73,4.86-2.73,1.9-6.33,3.32-10.82,4.02Z"/>
    <path class="cls-4" d="M497.44,802.97c1.81-1.44,4.21-2.71,7.28-3.7-7.52-6.2-9.54-15.93,4.14-27.41.37-.31.76-.63,1.16-.95l5.04.93c-.25.41-.48.82-.69,1.23-8.52,16.09,4.4,27.57,8.39,28.74,2.98.88-14.23,3.04-25.31,1.15Z"/>
    <path class="cls-4" d="M514.66,822.49c-1.41.38-2.86.63-4.33.71.06,2.57-2.04,5.78-5.5,7.99-4.43,2.84-9.41,2.97-11.13.3-1.71-2.67.5-7.13,4.93-9.98.43-.27.86-.51,1.29-.74-7.27-3.99-9.36-11.8-3.04-17.34,4.32,17.28,16.48,16.68,16.48,16.68,0,0,.54.92,1.29,2.38Z"/>
    <path class="cls-4" d="M618.89,513.16c1.49.95,2.9,1.99,4.22,3.13-11.99,1.05-22.62.58-22.62.58,5.27-.22,11.69-1.65,18.4-3.72Z"/>
    <path class="cls-1" d="M430.16,323.37c413.63-18.12,403.42-57.59,402.45-63.71-2.57-16.27-112.04-22.44-112.04-22.44,0,0,161.23-12.08,175.04,34.01,15.13,50.5-465.44,52.14-465.44,52.14Z"/>
    <path class="cls-1" d="M499.29.5c420.3,20.79,422.66,123.76-143.88,148.75,0,0,744.02-3.08,555.55-83.28C732.21-10.1,499.29.5,499.29.5Z"/>
    <path class="cls-1" d="M502.06,72.37c-320.19.72-207.21,35.86-173.28,35.86,0,0-70.75,8.9-70.75-20.7s244.03-15.16,244.03-15.16Z"/>
    <path class="cls-1" d="M733.14,400.93c136.33,12.79-172.83,107.45-344.65,116.06,7.61,26,526.52-67.91,422.34-110.81-40.91-16.85-77.69-5.25-77.69-5.25Z"/>
    <path class="cls-1" d="M375.77,568.23c-59.27,62.96,201.72,36.97,258.94,3.04,0,0-63.35,71.5-274.89,50.91-50.54-3.26,15.95-53.95,15.95-53.95Z"/>
    <path class="cls-1" d="M638.51,597.07c98.91-9.19-36.34,53.77-80.53,68.2,0,0,173.92-43.46,142.03-63.67-31.89-20.22-61.49-4.53-61.49-4.53Z"/>
    <path class="cls-1" d="M497.44,701.23c-42.32,9.39,50.96,42.6,62.08,45.49,11.12,2.89-99.89-24.44-99.89-43,0-8.86,37.8-2.48,37.8-2.48Z"/>
    <path class="cls-1" d="M623.1,703.71c39.95,7.62-6.35,15.21-31.57,14.79,0,0,75.38-.42,59.49-9.33-15.88-8.9-27.92-5.46-27.92-5.46Z"/>
    <path class="cls-1" d="M523.1,761.27c77.39,20.57,65.12,11.71,58.86,9.65-6.26-2.07,17.86,1.2,15.91,7.75-1.95,6.55-74.77-17.39-74.77-17.39Z"/>
    <path class="cls-2" d="M334.56,203.05c228.1,24.25,197.51,12.56,263.3,32.74,28.65,8.79-178.34,60.21-203.37,64.05-267.15,41.06,200.2,92.82,228.61,89.7,28.4-3.11-53.17,47.08-167.18,45.27,0,0,118.85-22.32,64.71-33.9-54.14-11.57-245.05-24.42-262.61-65.52-17.57-41.1,321.42-84.64,252.25-99.62-90.69-19.64-175.71-32.74-175.71-32.74Z"/>
    <path class="cls-1" d="M212.79,44.24c-127.37,11.14-256.02,204.23,314.35,204.23,0,0-458.94,42.68-523.74-103.63C-31.42,66.22,212.79,44.24,212.79,44.24Z"/>
    <path class="cls-1" d="M118.34,315.68c-68.97,10.11,141.64,83.72,447.87,66.41,0,0-177.5,46.32-401.32,18.83-223.82-27.48-120.77-101.08-40.89-101.08"/>
    <path class="cls-4" d="M822.02,418.89c48.11,8.03,50.96,53.39-88.88,73.98,0,0,155.61-17.31,137.06-52.69-11.16-21.29-48.19-21.29-48.19-21.29Z"/>
    <path class="cls-4" d="M497.44,737.64c-34.16,0,38.64,21.46,38.64,21.46,0,0-68.8-18.32-57.1-21.46,11.7-3.14,18.46,0,18.46,0Z"/>
    <path class="cls-4" d="M611.99,739.07c12.27,4.85-20.3,3.53-37.98,1.91-17.68-1.62,69.04,11.67,56.93,2.6-12.1-9.07-31.51-8.15-25.23-7.33,6.28.82,6.28,2.82,6.28,2.82Z"/>
    <path class="cls-4" d="M273.76,475.06c-42.81,7.42,54.8,28.77,158.69,17.81,0,0-124.44,29.9-190.09-7.37-23.98-10.44,31.4-10.44,31.4-10.44Z"/>
  </g>
</svg>