<?xml version="1.0" encoding="UTF-8"?>
<svg id="Layer_2" data-name="Layer 2" xmlns="http://www.w3.org/2000/svg" viewBox="0 0 840.59 986.92">
  <defs>
    <style>
      .cls-1 {
        fill: #d1e5ed;
      }

      .cls-2 {
        fill: #a5bfce;
      }

      .cls-3 {
        fill: #a2b3bc;
      }

      .cls-4 {
        fill: #93a6b2;
      }

      .cls-5 {
        fill: #5d7887;
      }
    </style>
  </defs>
  <g id="Layer_1-2" data-name="Layer 1">
    <g>
      <path class="cls-4" d="M749.1,543.11c2.04,4.87,3.39,10.51,3.46,16.93.1,8.13-1.85,17.5-7.04,28.19-.99,2.03-2.41,4.02-4.2,5.99-.52,9.21-4.85,19.7-11.86,30.38-9.76,14.88-24.71,30.12-41.78,42.72,9.72,2.92,18.61,7.72,24.94,14.33,8.7,9.1,12.57,21.65,7.12,37.58-.88,2.59-1.94,5.05-3.13,7.42-14.15,27.93-48.82,40.38-77.84,46.98,6.81,7.24,6.62,17.94-.74,27.75-3.13,4.19-7.59,8.21-13.35,11.73-9.4,5.75-22.31,10.16-38.79,11.78.76,1.79,1.26,3.66,1.5,5.61,1.27,9.91-4.02,21.38-14.17,30.22-6.48,5.66-14.96,10.23-24.99,12.65.14,1.91-.03,4-.51,6.17-.71,3.33-2.12,6.86-4.17,10.27-2.95,4.91-7.25,9.56-12.72,13,.45.49.87,1,1.27,1.54,3,4.02,4.61,9.27,4.1,14.57-.35,3.78-1.76,7.56-4.52,10.93-1.35,1.66-3.02,3.21-5.05,4.62,1.31,1.37,2.23,2.76,2.8,4.12,2.52,6.08-2.12,11.84-11.74,14.69,2.34,5.01,1.28,11.25-8.79,12.96-12.66,2.14-26.97-4.22-26.07-11.3.15-1.14.69-2.3,1.69-3.45-7.5-3.8-9.74-10.23-2.98-17.7-.15-.1-.31-.2-.46-.3-11.92-8.22-15.98-21.42,0-29.51-12.33-6.82-17.04-21.6-2.77-49.6-17.17-17.9-12.66-41.84,5.99-55.6,1.42-1.04,2.92-2.04,4.5-2.96-8.42-8.89-12.91-18.66-12.6-27.63.29-8.38,4.77-16.07,14.15-21.73,3.29-1.98,7.19-3.72,11.72-5.14-1.19-1.82-2.26-3.72-3.18-5.7-3.74-8.09-4.09-15.88-2.23-23.28h0c3.84-15.24,17.12-28.8,29.65-39.76-5.65-7.86-6.96-18.17-1.78-31.66,2.39-6.22,6.16-13.11,11.52-20.74-26.71-10.04-44.92-27.79-44.92-55.84,0-1.01.03-2.03.08-3.07.17-3.91.69-8.01,1.58-12.31.14-.64.27-1.29.43-1.95.34-4.7,1.02-9.72,2.06-15.07-28.25,6.46-55.1,9.87-77.2,9.62-19.54-.21-35.36-3.31-45.13-9.68-.88-.58-1.72-1.19-2.51-1.82-.26-.21-.51-.43-.76-.65-2.12-1.83-3.82-3.9-5.07-6.18-.16-.3-.32-.6-.46-.91-.1-.21-.21-.43-.3-.65-.07-.17-.15-.33-.21-.51-.05-.13-.1-.27-.15-.4-.06-.15-.12-.32-.17-.48-.15-.42-.28-.84-.39-1.28-.06-.19-.11-.38-.15-.57-.13-.49-.23-.98-.31-1.48-.03-.17-.06-.33-.08-.51,0-.02,0-.04,0-.06-.05-.35-.09-.69-.13-1.04-.03-.36-.06-.73-.08-1.1-.02-.37-.03-.74-.03-1.11,0-.27,0-.54.02-.81,0-.21,0-.4.03-.61.03-.48.06-.96.12-1.46.04-.4.09-.81.15-1.22,0-.08.03-.15.03-.22.09-.52.18-1.04.29-1.58-15.56.12-30.54-1.3-44.65-4.45-5.97-1.34-11.52-2.92-16.67-4.76-8.15-2.89-15.3-6.38-21.54-10.38-52.51,16.86-106.99,17.13-160.27-8.63-.73-.35-1.45-.7-2.16-1.06-163.54-82.07,19.44-339.61,210.58-392.97,54.3-15.16,112.2-24.99,168.68-18.99,18.14,1.92,37.09,6.09,54.33,13.29,5.84,2.44,11.49,5.23,16.83,8.4,17.59,10.4,32.49,27.2,35.71,47.38.46,2.91.67,5.81.68,8.69,5.43,1.52,10.69,3.26,15.77,5.25,16.29,6.34,30.69,15.04,42.47,26.18,14.52,13.73,25.06,31.15,30.27,52.39,9.66-.98,18.38-.35,25.05,2.45.86.36,1.71.73,2.54,1.1,24.07,10.6,38.87,24.83,46.14,41.36,13.53,30.71,1.04,69.32-26.3,107.13,8.51,5.35,15.74,11.23,21.79,17.5,8.05,8.35,14.02,17.4,18.11,26.85,17.42,40.15,1.28,87.56-31.07,119.2Z"/>
      <path class="cls-4" d="M500.12,973.05h-4.55c-12.18,3.42,5,15.41,13.32,13.7,8.32-1.71-4.23-13.7-8.77-13.7Z"/>
    </g>
    <path class="cls-5" d="M301.46,497.98c-8.15-2.89-15.3-6.38-21.54-10.38-52.51,16.86-106.99,17.13-160.27-8.63-.73-.35-1.45-.7-2.16-1.06,148.12,29.37,276.25-94.33,311.95-130.79,27.11-27.67-48.97,82.48-127.99,150.86Z"/>
    <path class="cls-5" d="M620.08,148.95c-13.1,56.5-131.33,91.08-118.13,75.45,14.02-16.61,87.17-69.73,49.13-145.16,5.84,2.44,11.49,5.23,16.83,8.4,17.59,10.4,32.49,27.2,35.71,47.38.46,2.91.67,5.81.68,8.69,5.43,1.52,10.69,3.26,15.77,5.25Z"/>
    <path class="cls-5" d="M271.9,187.29c-30.18,28.08-59.62,58.76-80.81,94.39-10.22,17.19-31.5,56.7-15.27,75.44,13.04,15.06,47.19,8.68,64.01,5.52,75.77-14.25,143.39-66.52,176.28-136.25,12.15-25.75,15.19-59.83-23.05-55.16-26.22,3.2-51.96,15.86-74.54,28.92-5.78,3.34-64.55,40.5-59.45,48.51,0,0-9.99-15.7,12.84-61.37Z"/>
    <path class="cls-5" d="M307.29,153.7c95.33-62.88,154.7-22.35,141.57,31.31,0,0,23.4-78.78-31.4-78.78s-110.17,47.47-110.17,47.47Z"/>
    <path class="cls-5" d="M372.96,531.85c-8.55-5.59-12.46-13.71-10.17-24.65-15.56.12-30.54-1.3-44.65-4.45-5.97-1.34-11.52-2.92-16.67-4.76,54.9,18.32,133.58-14.14,152.36-22.19,10.44-4.47-60.53,37.69-80.86,56.05Z"/>
    <path class="cls-5" d="M369.23,516.09c1.7-9.7-6.56-8.29-6.44-8.9-15.56.12-30.54-1.3-44.65-4.45-5.97-1.34-11.52-2.92-16.67-4.76-8.15-2.89-15.3-6.38-21.54-10.38l35.39-2.05c12.13,27.43,53.49,16.44,52.75,16.95l1.17,13.59Z"/>
    <path class="cls-5" d="M645.34,377.95c3.95-7.69,56.76-100.29,17.21-202.82,14.52,13.73,25.06,31.15,30.27,52.39,9.66-.98,18.38-.35,25.05,2.45.86.36,1.71.73,2.54,1.1,8.59,74.27-78.85,154.25-75.08,146.88Z"/>
    <path class="cls-5" d="M493.23,546.98c.34-4.7,1.02-9.72,2.06-15.07-28.25,6.46-55.1,9.87-77.2,9.62,89.62-18.81,161.91-46.86,179.23-74.03,0,0-44.45,74.05-104.52,81.43.14-.64.27-1.29.43-1.95Z"/>
    <path class="cls-5" d="M524.55,640.88c2.39-6.22,6.16-13.11,11.52-20.74-26.71-10.04-44.92-27.79-44.92-55.84,0-1.01.03-2.03.08-3.07,16.09,45.84,108.63,57.91,140.31,53.04,27.94-4.3-43.76,42.35-106.98,26.6Z"/>
    <path class="cls-5" d="M762.06,397.05c-19.21,19.43-102.92,82.03-98.67,78.74,12.66-9.79,108.66-133.04,103.17-203.37,13.53,30.71,1.04,69.32-26.3,107.13,8.51,5.35,15.74,11.23,21.79,17.5Z"/>
    <path class="cls-5" d="M749.1,543.11c2.04,4.87,3.39,10.51,3.46,16.93-48.59,16.7-96.56,23.92-80.79,19.14,27.09-8.21,54.18-29.02,108.39-155.27,17.42,40.15,1.28,87.56-31.07,119.2Z"/>
    <path class="cls-5" d="M712.62,681.64c-59.68-1.78-113.57-25.47-115.3-26.24,1.34.42,33.66,9.84,132.14-30.81-9.76,14.88-24.71,30.12-41.78,42.72,9.72,2.92,18.61,7.72,24.94,14.33Z"/>
    <path class="cls-5" d="M638.76,773.62c6.81,7.24,6.62,17.94-.74,27.75-30.02-21.47-56.91-63.87-45.02-58.23,15.66,7.44,51.74,14.16,123.61-16.51-14.15,27.93-48.82,40.38-77.84,46.98Z"/>
    <path class="cls-5" d="M490.36,746.42c3.29-1.98,7.19-3.72,11.72-5.14-1.19-1.82-2.26-3.72-3.18-5.7-3.74-8.09-4.09-15.88-2.23-23.28,13.55,35.16,23.73,43.24,28.1,44.7,3.62,1.21-17.48-.71-34.42-10.57Z"/>
    <path class="cls-5" d="M585.88,824.89c.76,1.79,1.26,3.66,1.5,5.61-18.26-4.29-41.48-21.56-41.48-21.56,23.26,6.39,61.67,6.04,78.77,4.17-9.4,5.75-22.31,10.16-38.79,11.78Z"/>
    <path class="cls-5" d="M484.3,798.74c1.42-1.04,2.92-2.04,4.5-2.96-8.42-8.89-12.91-18.66-12.6-27.63,13.03,22.34,31.31,35.79,35.47,37.65,3.24,1.44-12.62-2.26-27.37-7.06Z"/>
    <path class="cls-5" d="M548.22,873.36c.14,1.91-.03,4-.51,6.17-15.23-4.3-26.69-12.56-18.66-11.79,12.42,1.2,15.05.2,44.15-7.02-6.48,5.66-14.96,10.23-24.99,12.65Z"/>
    <path class="cls-5" d="M530.82,902.79c.45.49.87,1,1.27,1.54-12.64.69-28.25-.92-21.87-.92,8.78,0,18.51-.51,33.33-13.62-2.95,4.91-7.25,9.56-12.72,13Z"/>
    <path class="cls-5" d="M536.19,918.89c-.35,3.78-1.76,7.56-4.52,10.93-1.35,1.66-3.02,3.21-5.05,4.62,1.31,1.37,2.23,2.76,2.8,4.12-3.52.85-7.53.94-11.51.6-11.85-1.02-23.5-5.82-21.67-5.49,2.91.53,22.75,3.26,39.95-14.77Z"/>
    <path class="cls-5" d="M526.62,934.44c1.31,1.37,2.23,2.76,2.8,4.12,2.52,6.08-2.12,11.84-11.74,14.69,2.34,5.01,1.28,11.25-8.79,12.96-12.66,2.14-26.97-4.22-26.07-11.3,34.4,6.69,32.76.98,30.54-.68-2.29-1.71,11.99-9.23,4.55-15.06h0c-4.26-3.34,5.03-6.89,13.77-9.33-1.35,1.66-3.02,3.21-5.05,4.62Z"/>
    <path class="cls-3" d="M608.09,282.05c-.46,1.49-.93,2.96-1.4,4.43-11.79,36.59-18.88,71.25-35.1,95.76-44.49,67.25-103.8,87.81-106.1,89.05-3.17,1.71,94.01-5.14,132.48-83.06,38.47-77.92,30.63-128.44,20.88-144.71"/>
    <path class="cls-3" d="M549.81,561.24c163.06,23.92,190.42-73.5,193.03-85.78,2.71-12.74-11.18,45.25-79.68,66.03-68.5,20.78-113.35,19.75-113.35,19.75Z"/>
    <path class="cls-5" d="M145.17,276.77c-79.63,87.48-39.39,236.47,167.83,107.17,0,0-96.76,58.23-155.84,11.13-59.08-47.09-11.99-118.3-11.99-118.3Z"/>
    <path class="cls-3" d="M435.04,371.1c162.28-21.12,169.08-154.13,169.66-158.12.57-4,24.58,38.19,22.12,67.92-2.46,29.73-107.41,105.04-191.78,90.2Z"/>
    <path class="cls-3" d="M498.59,465.54c98.45,2.18,151.69-11.09,176.77-41.63,4.86-5.92,8.66-12.48,11.53-19.7,0,0-47.95,56.42-147.28,30.78l-41.03,30.55Z"/>
    <path class="cls-3" d="M675.37,423.91c-32.42,87.05-56.97,137.33-107.77,137.33,0,0,55.37-24.6,63.36-115.36"/>
    <path class="cls-3" d="M706.59,531.85c-60.08,80.29-106.32,67.45-124.3,66.59,0,0,48.32-8.99,64.19-29.11,15.87-20.12,48.84-34.68,48.84-34.68"/>
    <path class="cls-2" d="M369.46,30.31c9.07-4.4,18.36-8.19,27.79-11.64,9.43-3.47,19.04-6.45,28.8-9.11,9.76-2.63,19.69-4.82,29.83-6.48,10.13-1.65,20.47-2.75,31.08-3.01,2.64-.1,5.33-.06,8.01-.03,2.68.05,5.41.22,8.12.36,2.75.25,5.47.43,8.26.86,1.39.2,2.77.36,4.17.59l4.21.79c1.4.24,2.82.63,4.24.97,1.42.35,2.83.67,4.27,1.13,1.43.44,2.86.85,4.29,1.33l4.31,1.63c5.75,2.34,11.54,5.4,17,9.56,5.47,4.11,10.53,9.43,14.45,15.6,3.96,6.14,6.63,13.07,8.09,19.83,1.47,6.79,1.77,13.43,1.52,19.74-.09,1.56-.21,3.13-.33,4.69l-.6,4.53c-.18,1.53-.48,2.97-.76,4.43-.29,1.45-.53,2.94-.89,4.34-.71,2.81-1.39,5.66-2.26,8.34-.42,1.35-.83,2.72-1.27,4.06l-1.4,3.94c-1.92,5.24-4.09,10.23-6.36,15.12-4.63,9.73-9.87,18.86-15.5,27.59-5.61,8.73-11.62,17.07-17.86,25.13-6.3,8.01-12.79,15.79-19.55,23.27-3.37,3.75-6.82,7.42-10.27,11.07-3.51,3.6-6.99,7.22-10.6,10.7-3.55,3.54-7.2,6.98-10.87,10.38-3.64,3.43-7.4,6.74-11.14,10.05-1.88,1.65-3.79,3.27-5.69,4.89-1.91,1.61-3.79,3.26-5.73,4.84-3.88,3.16-7.75,6.32-11.7,9.39-3.94,3.07-7.97,6.06-11.99,9.03-4.1,2.9-8.18,5.81-12.41,8.56,2.58-4.35,5.31-8.54,8.02-12.73,2.71-4.19,5.44-8.36,8.22-12.46,5.47-8.29,11.07-16.41,16.57-24.56,11.06-16.25,22.08-32.33,32.68-48.43,5.29-8.06,10.45-16.13,15.47-24.21,4.97-8.1,9.75-16.23,14.24-24.37,4.46-8.15,8.63-16.34,12.15-24.51,1.74-4.08,3.42-8.15,4.77-12.19l1.05-3.02c.32-1,.6-1.99.9-2.99.66-2,1.05-3.95,1.57-5.9.26-.98.4-1.92.61-2.88.19-.95.41-1.92.51-2.83l.4-2.78c.06-.89.12-1.78.22-2.67.24-3.5.1-6.75-.38-9.61-.45-2.88-1.35-5.29-2.54-7.53-1.21-2.23-2.87-4.29-5.08-6.31-2.22-1.99-5.01-3.87-8.22-5.58-3.21-1.69-6.92-3.13-10.8-4.41-3.88-1.3-8.08-2.28-12.34-3.22-4.31-.85-8.72-1.61-13.25-2.17-18.12-2.3-37.33-2.67-56.74-2.49-9.72.07-19.52.35-29.4.63-9.87.31-19.81.68-29.9.75Z"/>
    <path class="cls-1" d="M150.31,153.7C-106.57,348.84-24.97,571.29,324.69,342.75c0,0-239.23,88.94-276.61,14.75-37.37-74.19,102.23-203.81,102.23-203.81Z"/>
    <path class="cls-1" d="M336.48,514.89c-64.01,69.54,116.87,69.58,216.32-47.12,0,0-103.3,150.35-253.72,125.35-50.67-8.42,37.4-78.22,37.4-78.22Z"/>
    <path class="cls-1" d="M652.07,158.73c117.62-99.52,69.17,118.38-5.15,208.57,0,0,174.28-225.53,112.62-268.83-42.2-29.63-107.47,60.26-107.47,60.26Z"/>
    <path class="cls-2" d="M794.11,636.54c1.01.72,2.07,1.41,3.07,2.18.98.79,1.99,1.55,2.91,2.43,1.91,1.67,3.65,3.58,5.22,5.67,1.57,2.1,2.84,4.5,3.69,7.11.86,2.61,1.2,5.48.97,8.31-.22,2.84-.98,5.63-2.12,8.18-1.15,2.55-2.62,4.9-4.24,7.1-3.28,4.36-7.21,8-11.3,11.3-8.24,6.54-17.28,11.62-26.48,16.11-4.6,2.26-9.28,4.3-14,6.22-4.72,1.92-9.46,3.76-14.26,5.43-9.58,3.36-19.26,6.35-29.03,8.95-9.75,2.67-19.6,4.92-29.48,6.98-9.88,2.06-19.83,3.75-29.79,5.31-9.97,1.49-19.98,2.72-30.02,3.75-10.04.97-20.11,1.69-30.2,2.19-10.09.4-20.2.63-30.33.45-10.13-.21-20.28-.64-30.42-1.65-5.07-.48-10.15-1.08-15.21-1.82-5.06-.77-10.12-1.67-15.17-2.75-5.05-1.07-10.08-2.39-15.07-3.97-4.99-1.59-9.96-3.43-14.8-5.8-2.42-1.2-4.81-2.48-7.14-3.97-2.34-1.46-4.61-3.13-6.74-5.04-4.26-3.75-8.07-8.81-9.75-14.77-.85-2.96-1.07-6.07-.82-9.01.26-2.94.89-5.77,1.92-8.36,1.99-5.2,4.93-9.66,8.17-13.69,6.53-8.04,14.39-14.43,22.51-20.25-3.33,3.74-6.64,7.45-9.65,11.37-3.05,3.87-5.88,7.89-8.27,12.05-2.34,4.17-4.34,8.49-5.27,12.8-.94,4.31-.81,8.49.74,11.97,1.53,3.49,4.23,6.47,7.73,8.88,3.46,2.43,7.52,4.38,11.8,5.96,4.3,1.55,8.8,2.83,13.4,3.86,4.6,1.03,9.3,1.81,14.04,2.5,19,2.56,38.52,3.09,58.02,2.74,4.88-.12,9.76-.23,14.64-.43,4.88-.2,9.77-.46,14.65-.78,9.77-.58,19.53-1.36,29.28-2.36,9.76-.91,19.49-2.08,29.21-3.38,4.86-.63,9.71-1.32,14.56-2.05,4.84-.75,9.68-1.54,14.51-2.33,19.31-3.27,38.51-7.23,57.34-12.3,4.69-1.3,9.38-2.61,14.02-4.06,4.64-1.44,9.23-3.01,13.77-4.66,4.54-1.66,8.99-3.49,13.36-5.46,4.37-1.96,8.61-4.15,12.62-6.6,2.03-1.2,3.94-2.53,5.82-3.9,1.82-1.41,3.61-2.87,5.2-4.47,1.59-1.6,3.04-3.3,4.22-5.14,1.16-1.85,2.07-3.81,2.58-5.89,1.04-4.14.36-8.8-1.76-13.06-2.02-4.32-5.21-8.19-8.62-11.83Z"/>
    <path class="cls-1" d="M763.39,366.71c56.51,14.66.36,137.42-100,182.22-100.36,44.8-147.27,16.84-147.27,16.84,0,0,101.71,69.77,300.36-89.85,76.36-71.71-53.09-109.21-53.09-109.21Z"/>
    <path class="cls-1" d="M564.44,897.15c19.13,16.83-42.06,23.38-62.93,21.75-21.97-1.71,113.83,20.34,95.81,0-18.02-20.34-32.88-21.75-32.88-21.75Z"/>
    <path class="cls-1" d="M464.98,870.12c-16.27,6.61,54.22,30.17,71.21,19.67,0,0-33.96,14.33-78.49-6.22-23.55-11.13,7.28-13.46,7.28-13.46Z"/>
    <path class="cls-1" d="M469.27,929.82c5.15,13.22,61.65,18.4,71.5,6.84,0,0,5.14,9.42-36.37,9.42-31.06,0-35.13-16.26-35.13-16.26Z"/>
    <path class="cls-1" d="M641.7,96.44c99.09,69.23-121.66,320.16-121.66,320.16,49.66-25.06,216.66-124.09,210.96-309.75-3.33-108.3-146.15-22.71-132.84-27.92,13.31-5.21,25.77,5.09,43.54,17.51Z"/>
    <path class="cls-1" d="M331.69,100.52c116.56-35.75,16.7,119.02-48.42,171.9-61.24,49.73,288.33-181.94,147.97-193.19-61.78-2.98-99.55,21.29-99.55,21.29Z"/>
    <path class="cls-5" d="M418.09,787.13c-106.62-12.89,19.27,59.71,112.93,73.58,0,0-125.07-34.42-110.3-51.78,14.77-17.36,44.69-10.56,44.69-10.56,0,0-27.01-8.79-47.33-11.24Z"/>
    <path class="cls-1" d="M459.7,792.95c-87.91,6.28,72.46,71.36,139.27,51.38,0,0-107.27,26.93-186.65-28.54-46.84-32.73,47.38-22.83,47.38-22.83Z"/>
  </g>
</svg>