<svg xmlns="http://www.w3.org/2000/svg" xmlns:xlink="http://www.w3.org/1999/xlink" width="83" zoomAndPan="magnify" viewBox="0 0 62.25 62.249997" height="83" preserveAspectRatio="xMidYMid meet" version="1.0"><defs><clipPath id="59614624a0"><path d="M 0 0 L 61.457031 0 L 61.457031 61.457031 L 0 61.457031 Z M 0 0 " clip-rule="nonzero"/></clipPath><clipPath id="31df870fd3"><path d="M 0 0 L 61.457031 0 L 61.457031 61.457031 L 0 61.457031 Z M 0 0 " clip-rule="nonzero"/></clipPath><clipPath id="8b03f0f41c"><rect x="0" width="62" y="0" height="62"/></clipPath><clipPath id="01fe104676"><path d="M 13 22 L 49 22 L 49 40 L 13 40 Z M 13 22 " clip-rule="nonzero"/></clipPath><clipPath id="ce1caf2c04"><path d="M 13.355469 30.625 L 46 22.453125 L 48.105469 30.863281 L 15.460938 39.039062 Z M 13.355469 30.625 " clip-rule="nonzero"/></clipPath><clipPath id="a4f9fe5f1c"><path d="M 0.28125 0.292969 L 35.140625 0.292969 L 35.140625 17.128906 L 0.28125 17.128906 Z M 0.28125 0.292969 " clip-rule="nonzero"/></clipPath><clipPath id="d8ee14f51e"><path d="M 0.355469 8.625 L 33 0.453125 L 35.105469 8.863281 L 2.460938 17.039062 Z M 0.355469 8.625 " clip-rule="nonzero"/></clipPath><clipPath id="74c2c09df7"><rect x="0" width="36" y="0" height="18"/></clipPath><clipPath id="052cabd3fa"><path d="M 11 17 L 30 17 L 30 30 L 11 30 Z M 11 17 " clip-rule="nonzero"/></clipPath><clipPath id="a6b2073a1c"><path d="M 11.054688 21.539062 L 27.613281 17.394531 L 29.632812 25.460938 L 13.074219 29.609375 Z M 11.054688 21.539062 " clip-rule="nonzero"/></clipPath><clipPath id="142751b388"><path d="M 0 0.3125 L 18.644531 0.3125 L 18.644531 12.644531 L 0 12.644531 Z M 0 0.3125 " clip-rule="nonzero"/></clipPath><clipPath id="653c31bcc3"><path d="M 0.0546875 4.539062 L 16.613281 0.394531 L 18.632812 8.460938 L 2.074219 12.609375 Z M 0.0546875 4.539062 " clip-rule="nonzero"/></clipPath><clipPath id="b0c00e7c2e"><rect x="0" width="19" y="0" height="13"/></clipPath><clipPath id="01498b63a7"><path d="M 31 31 L 51 31 L 51 45 L 31 45 Z M 31 31 " clip-rule="nonzero"/></clipPath><clipPath id="18736227d9"><path d="M 31.820312 35.984375 L 48.378906 31.835938 L 50.402344 39.914062 L 33.84375 44.0625 Z M 31.820312 35.984375 " clip-rule="nonzero"/></clipPath><clipPath id="b35d499648"><path d="M 0.777344 0.777344 L 19.511719 0.777344 L 19.511719 13.109375 L 0.777344 13.109375 Z M 0.777344 0.777344 " clip-rule="nonzero"/></clipPath><clipPath id="0ae6109521"><path d="M 0.820312 4.984375 L 17.378906 0.835938 L 19.402344 8.914062 L 2.84375 13.0625 Z M 0.820312 4.984375 " clip-rule="nonzero"/></clipPath><clipPath id="eba2941153"><rect x="0" width="20" y="0" height="14"/></clipPath></defs><g clip-path="url(#59614624a0)"><g transform="matrix(1, 0, 0, 1, 0, 0.000000000000007747)"><g clip-path="url(#8b03f0f41c)"><g clip-path="url(#31df870fd3)"><path fill="#000000" d="M 0 0 L 61.457031 0 L 61.457031 61.457031 L 0 61.457031 Z M 0 0 " fill-opacity="1" fill-rule="nonzero"/></g></g></g></g><g clip-path="url(#01fe104676)"><g clip-path="url(#ce1caf2c04)"><g transform="matrix(1, 0, 0, 1, 13, 22)"><g clip-path="url(#74c2c09df7)"><g clip-path="url(#a4f9fe5f1c)"><g clip-path="url(#d8ee14f51e)"><path fill="#ffffff" d="M 0.355469 8.625 L 32.984375 0.453125 L 35.09375 8.867188 L 2.460938 17.039062 Z M 0.355469 8.625 " fill-opacity="1" fill-rule="nonzero"/></g></g></g></g></g></g><g clip-path="url(#052cabd3fa)"><g clip-path="url(#a6b2073a1c)"><g transform="matrix(1, 0, 0, 1, 11, 17)"><g clip-path="url(#b0c00e7c2e)"><g clip-path="url(#142751b388)"><g clip-path="url(#653c31bcc3)"><path fill="#ffffff" d="M 0.0546875 4.539062 L 16.597656 0.398438 L 18.617188 8.464844 L 2.074219 12.609375 Z M 0.0546875 4.539062 " fill-opacity="1" fill-rule="nonzero"/></g></g></g></g></g></g><g clip-path="url(#01498b63a7)"><g clip-path="url(#18736227d9)"><g transform="matrix(1, 0, 0, 1, 31, 31)"><g clip-path="url(#eba2941153)"><g clip-path="url(#b35d499648)"><g clip-path="url(#0ae6109521)"><path fill="#ffffff" d="M 0.820312 4.984375 L 17.386719 0.835938 L 19.410156 8.914062 L 2.84375 13.0625 Z M 0.820312 4.984375 " fill-opacity="1" fill-rule="nonzero"/></g></g></g></g></g></g></svg>