<svg xmlns="http://www.w3.org/2000/svg" xmlns:xlink="http://www.w3.org/1999/xlink" width="565" zoomAndPan="magnify" viewBox="0 0 423.75 156.749997" height="209" preserveAspectRatio="xMidYMid meet" version="1.0"><defs><g/><clipPath id="5edcd4915a"><path d="M 58.738281 47.078125 L 349.148438 47.078125 L 349.148438 111.867188 L 58.738281 111.867188 Z M 58.738281 47.078125 " clip-rule="nonzero"/></clipPath><clipPath id="b99595bdfa"><path d="M 0.738281 0.078125 L 291.148438 0.078125 L 291.148438 64.867188 L 0.738281 64.867188 Z M 0.738281 0.078125 " clip-rule="nonzero"/></clipPath><clipPath id="55bf6e3d3f"><rect x="0" width="292" y="0" height="65"/></clipPath><clipPath id="efdff0e59f"><path d="M 0.0078125 11 L 36 11 L 36 49 L 0.0078125 49 Z M 0.0078125 11 " clip-rule="nonzero"/></clipPath><clipPath id="d35cf600c2"><rect x="0" width="372" y="0" height="105"/></clipPath></defs><path fill="#bf6a2c" d="M 405.132812 85.347656 C 403.828125 109.484375 398.617188 128.933594 382.160156 139.785156 L 371.136719 134.523438 L 366.359375 143.222656 L 359.621094 140.996094 L 352.71875 148.90625 L 352.710938 148.914062 C 299.101562 155.636719 255.042969 153.476562 203.777344 152.953125 C 151.066406 153.492188 105.980469 155.761719 50.300781 148.324219 C 39.109375 146.832031 30.460938 143.515625 23.789062 138.664062 L 21.574219 131.824219 L 18.074219 130.605469 L 18.074219 119.046875 L 9.367188 120.316406 C 9.367188 120.316406 9.367188 120.316406 9.359375 120.316406 C 5.039062 110.523438 3.136719 98.648438 2.421875 85.347656 C 1.308594 64.660156 0.4375 31.433594 19.828125 19.492188 C 36.433594 9.273438 69.21875 4.929688 105.421875 3.109375 L 111.503906 9.265625 L 118.414062 3.042969 L 118.089844 2.570312 C 136.519531 1.9375 155.425781 1.828125 173.230469 1.835938 L 175.78125 5.445312 L 179.917969 3.640625 L 184.371094 9.265625 L 191.140625 1.878906 L 191.140625 1.871094 C 195.46875 1.886719 199.691406 1.894531 203.777344 1.894531 C 264.664062 1.894531 355.898438 -0.0898438 387.726562 19.492188 C 397.496094 25.507812 402.125 36.925781 404.167969 49.421875 L 398.808594 51.90625 L 405.273438 59.214844 C 405.910156 68.496094 405.539062 77.761719 405.132812 85.347656 Z M 405.132812 85.347656 " fill-opacity="1" fill-rule="nonzero"/><path fill="#924516" d="M 203.777344 19.207031 C 146.925781 19.171875 63.269531 17.863281 33.871094 32.574219 C 15.757812 41.640625 16.570312 66.886719 17.613281 82.597656 C 19.304688 108.109375 28.058594 126.722656 62.328125 130.445312 C 113.664062 136.019531 155.355469 134.414062 203.777344 133.976562 C 252.199219 134.414062 293.890625 136.019531 345.226562 130.445312 C 379.496094 126.722656 388.25 108.109375 389.941406 82.597656 C 390.984375 66.886719 391.800781 41.640625 373.683594 32.574219 C 344.289062 17.863281 260.628906 19.171875 203.777344 19.207031 Z M 203.777344 19.207031 " fill-opacity="1" fill-rule="nonzero"/><path fill="#6b2f0d" d="M 124.25 78.578125 L 122.746094 78.578125 L 123.515625 76.324219 Z M 126.246094 84.804688 C 126.289062 85.25 126.199219 85.644531 125.976562 85.980469 L 125.964844 85.996094 C 125.609375 86.515625 124.910156 86.777344 123.867188 86.777344 L 122.359375 86.777344 L 122.359375 87.855469 L 120.332031 86.777344 L 120.101562 86.777344 C 120.128906 86.53125 120.191406 86.265625 120.296875 85.984375 L 120.679688 84.804688 Z M 218.898438 86.773438 C 218.554688 87.289062 218.136719 87.6875 217.652344 87.96875 C 216.9375 88.378906 216.0625 88.585938 215.019531 88.585938 C 214.90625 88.585938 214.796875 88.582031 214.6875 88.578125 C 214.5625 88.375 214.449219 88.15625 214.34375 87.917969 C 213.929688 86.996094 213.644531 85.789062 213.480469 84.300781 C 213.316406 82.808594 213.230469 80.957031 213.230469 78.746094 C 213.230469 76.570312 213.316406 74.726562 213.480469 73.207031 C 213.644531 71.691406 213.929688 70.476562 214.34375 69.5625 C 214.753906 68.648438 215.304688 67.984375 216 67.574219 C 216.695312 67.164062 217.589844 66.957031 218.6875 66.957031 C 218.792969 66.957031 218.894531 66.960938 218.996094 66.964844 C 219.117188 67.164062 219.234375 67.378906 219.339844 67.613281 C 219.75 68.527344 220.035156 69.742188 220.203125 71.257812 C 220.367188 72.773438 220.449219 74.621094 220.449219 76.796875 C 220.449219 79.007812 220.367188 80.859375 220.203125 82.347656 C 220.035156 83.839844 219.75 85.042969 219.339844 85.96875 C 219.207031 86.261719 219.058594 86.53125 218.898438 86.773438 Z M 269.421875 86.773438 C 269.078125 87.289062 268.660156 87.6875 268.175781 87.96875 C 267.464844 88.378906 266.585938 88.585938 265.542969 88.585938 C 265.433594 88.585938 265.320312 88.582031 265.210938 88.578125 C 265.089844 88.375 264.972656 88.15625 264.867188 87.917969 C 264.457031 86.996094 264.167969 85.789062 264.003906 84.300781 C 263.839844 82.808594 263.757812 80.957031 263.757812 78.746094 C 263.757812 76.570312 263.839844 74.726562 264.003906 73.207031 C 264.167969 71.691406 264.457031 70.476562 264.867188 69.5625 C 265.277344 68.648438 265.832031 67.984375 266.527344 67.574219 C 267.21875 67.164062 268.117188 66.957031 269.210938 66.957031 C 269.316406 66.957031 269.417969 66.960938 269.519531 66.964844 C 269.644531 67.164062 269.757812 67.378906 269.863281 67.613281 C 270.273438 68.527344 270.5625 69.742188 270.726562 71.257812 C 270.890625 72.773438 270.972656 74.621094 270.972656 76.796875 C 270.972656 79.007812 270.890625 80.859375 270.726562 82.347656 C 270.5625 83.839844 270.273438 85.042969 269.863281 85.96875 C 269.730469 86.261719 269.585938 86.53125 269.421875 86.773438 Z M 286.414062 94.691406 C 288.527344 92.890625 290.160156 90.660156 291.324219 88 C 292.484375 85.339844 293.0625 82.257812 293.0625 78.746094 C 293.0625 75.21875 292.484375 72.125 291.324219 69.464844 C 290.160156 66.804688 288.527344 64.582031 286.414062 62.789062 C 285.351562 61.886719 284.1875 61.101562 282.917969 60.425781 L 279.25 58.476562 C 277.996094 57.808594 276.644531 57.253906 275.195312 56.808594 C 272.269531 55.914062 269.054688 55.464844 265.542969 55.464844 C 262.015625 55.464844 258.796875 55.914062 255.882812 56.808594 C 252.964844 57.707031 250.449219 59.046875 248.328125 60.839844 C 247.054688 61.914062 245.957031 63.148438 245.027344 64.535156 C 244.410156 65.460938 243.871094 66.453125 243.40625 67.515625 C 242.691406 69.152344 242.199219 70.953125 241.925781 72.921875 C 241.644531 71.699219 241.269531 70.546875 240.796875 69.464844 C 239.636719 66.804688 238 64.582031 235.890625 62.789062 C 234.828125 61.886719 233.664062 61.101562 232.394531 60.425781 C 232.394531 60.425781 228.726562 58.476562 228.726562 58.476562 C 227.472656 57.808594 226.121094 57.253906 224.667969 56.808594 C 221.746094 55.914062 218.527344 55.464844 215.019531 55.464844 C 211.492188 55.464844 208.269531 55.914062 205.355469 56.808594 C 202.441406 57.707031 199.925781 59.046875 197.804688 60.839844 C 196.53125 61.914062 195.429688 63.148438 194.503906 64.535156 C 193.886719 65.460938 193.347656 66.453125 192.882812 67.515625 C 191.722656 70.175781 191.140625 73.269531 191.140625 76.796875 C 191.140625 78.621094 191.300781 80.328125 191.613281 81.925781 L 188.621094 80.332031 L 179.023438 80.332031 C 179.023438 81.722656 178.964844 82.835938 178.847656 83.675781 C 178.726562 84.519531 178.523438 85.171875 178.230469 85.636719 C 178.21875 85.660156 178.203125 85.679688 178.191406 85.699219 C 177.902344 86.132812 177.511719 86.417969 177.023438 86.554688 C 176.511719 86.703125 175.882812 86.777344 175.132812 86.777344 L 173.316406 86.777344 L 173.316406 71.78125 C 173.316406 70.574219 173.660156 69.757812 174.34375 69.328125 C 175.03125 68.898438 176.175781 68.683594 177.785156 68.683594 L 177.785156 58.511719 L 174.117188 56.5625 L 148.980469 56.5625 L 148.980469 66.734375 L 152.648438 68.683594 C 152.890625 68.683594 153.121094 68.691406 153.34375 68.699219 C 153.433594 69.027344 153.476562 69.40625 153.476562 69.832031 L 153.476562 83.707031 C 153.476562 84.492188 153.324219 85.109375 153.019531 85.5625 C 152.863281 85.796875 152.667969 85.988281 152.433594 86.132812 C 151.738281 86.5625 150.585938 86.777344 148.980469 86.777344 L 148.980469 87.679688 L 147.28125 86.777344 L 146.394531 86.777344 C 146.246094 86.449219 146.082031 86.074219 145.902344 85.65625 L 140.28125 71.78125 C 139.863281 70.777344 139.785156 70.007812 140.050781 69.480469 C 140.3125 68.949219 141.125 68.683594 142.476562 68.683594 L 143.023438 68.683594 L 143.023438 58.511719 L 139.355469 56.5625 L 111.175781 56.5625 L 111.175781 66.734375 L 114.300781 68.398438 C 114.273438 68.800781 114.152344 69.277344 113.945312 69.832031 L 108.324219 83.707031 C 108.023438 84.425781 107.714844 85.019531 107.398438 85.492188 C 107.273438 85.679688 107.148438 85.847656 107.023438 85.996094 C 106.644531 86.433594 105.957031 86.6875 104.960938 86.757812 C 104.898438 85 104.582031 83.472656 104.011719 82.175781 C 103.375 80.710938 102.53125 79.472656 101.492188 78.457031 C 100.570312 77.5625 99.535156 76.808594 98.386719 76.195312 L 96.070312 74.964844 L 94.71875 74.246094 C 94.566406 74.167969 94.414062 74.089844 94.261719 74.011719 C 92.925781 73.363281 91.570312 72.8125 90.191406 72.355469 C 88.808594 71.898438 87.453125 71.515625 86.117188 71.203125 C 85.023438 70.949219 84.027344 70.683594 83.128906 70.410156 C 82.871094 70.046875 82.738281 69.628906 82.738281 69.148438 C 82.738281 68.363281 83.097656 67.753906 83.808594 67.3125 C 84.523438 66.875 85.453125 66.65625 86.605469 66.65625 C 87.265625 66.65625 87.917969 66.734375 88.550781 66.890625 C 89.109375 67.398438 89.589844 67.976562 89.996094 68.625 C 90.5 69.429688 90.824219 70.296875 90.972656 71.230469 L 94.636719 73.179688 L 103.683594 73.179688 L 103.683594 58.511719 L 100.015625 56.5625 L 90.972656 56.5625 L 90.972656 59.0625 L 90.058594 58.578125 C 89.015625 58.023438 87.699219 57.488281 86.117188 56.972656 C 84.035156 56.296875 81.539062 55.960938 78.632812 55.960938 C 76.53125 55.960938 74.535156 56.230469 72.644531 56.769531 C 70.753906 57.308594 69.085938 58.101562 67.640625 59.152344 C 66.460938 60.011719 65.476562 61.03125 64.6875 62.214844 C 64.511719 62.480469 64.34375 62.753906 64.1875 63.03125 C 63.328125 64.566406 62.898438 66.332031 62.898438 68.324219 C 62.898438 71.011719 63.441406 73.1875 64.53125 74.851562 C 65.617188 76.511719 66.964844 77.851562 68.574219 78.867188 C 68.976562 79.121094 69.386719 79.359375 69.808594 79.582031 L 73.476562 81.535156 C 74.738281 82.203125 76.085938 82.742188 77.515625 83.148438 C 79.425781 83.6875 81.1875 84.171875 82.796875 84.601562 C 83.347656 84.746094 83.871094 84.902344 84.359375 85.0625 C 84.65625 85.464844 84.800781 85.925781 84.800781 86.445312 C 84.800781 86.8125 84.695312 87.152344 84.480469 87.472656 C 84.320312 87.714844 84.097656 87.945312 83.816406 88.160156 C 83.15625 88.664062 82.160156 88.914062 80.828125 88.914062 C 80.089844 88.914062 79.375 88.828125 78.691406 88.660156 C 77.339844 87.464844 76.421875 85.894531 75.941406 83.957031 L 72.273438 82.003906 L 63.226562 82.003906 L 63.226562 96.949219 L 66.894531 98.898438 L 75.941406 98.898438 L 75.941406 96.488281 L 76.324219 96.691406 C 78.222656 97.703125 80.082031 98.4375 81.902344 98.898438 C 83.851562 99.390625 85.890625 99.636719 88.03125 99.636719 C 90.222656 99.636719 92.34375 99.410156 94.390625 98.953125 C 96.4375 98.496094 98.246094 97.773438 99.820312 96.785156 C 101.214844 95.910156 102.359375 94.816406 103.253906 93.503906 L 103.253906 96.949219 L 106.917969 98.898438 L 124 98.898438 L 124 97.820312 L 126.027344 98.898438 L 150.945312 98.898438 L 150.945312 97.996094 L 152.648438 98.898438 L 192.289062 98.898438 L 192.289062 84.496094 C 192.464844 85.03125 192.664062 85.546875 192.882812 86.050781 C 194.042969 88.710938 195.683594 90.941406 197.804688 92.738281 C 198.878906 93.652344 200.054688 94.449219 201.335938 95.128906 C 201.335938 95.128906 205.003906 97.078125 205.003906 97.078125 C 206.246094 97.742188 207.585938 98.292969 209.023438 98.734375 C 211.9375 99.628906 215.160156 100.078125 218.6875 100.078125 C 222.195312 100.078125 225.414062 99.628906 228.335938 98.734375 C 231.261719 97.839844 233.78125 96.488281 235.890625 94.691406 C 238 92.890625 239.636719 90.660156 240.796875 88 C 241.511719 86.363281 242.007812 84.5625 242.28125 82.601562 C 242.5625 83.820312 242.9375 84.96875 243.40625 86.050781 C 244.566406 88.710938 246.207031 90.941406 248.328125 92.738281 C 249.402344 93.652344 250.582031 94.449219 251.859375 95.128906 C 251.859375 95.128906 255.527344 97.078125 255.527344 97.078125 C 256.773438 97.742188 258.113281 98.292969 259.550781 98.734375 C 262.464844 99.628906 265.683594 100.078125 269.210938 100.078125 C 272.722656 100.078125 275.9375 99.628906 278.863281 98.734375 C 281.785156 97.839844 284.304688 96.488281 286.414062 94.691406 Z M 324.261719 98.898438 L 340.738281 98.898438 L 340.738281 71.78125 C 340.738281 70.777344 340.988281 70.007812 341.492188 69.480469 C 341.992188 68.949219 343.046875 68.683594 344.65625 68.683594 L 344.65625 58.511719 L 340.988281 56.5625 L 323.25 56.5625 L 323.25 66.734375 L 326.917969 68.683594 C 326.972656 68.683594 327.023438 68.683594 327.074219 68.683594 C 327.140625 69.019531 327.171875 69.398438 327.171875 69.832031 L 327.171875 74.234375 L 317.132812 58.511719 L 313.464844 56.5625 L 291.917969 56.5625 L 291.917969 66.734375 L 295.585938 68.683594 C 295.828125 68.683594 296.0625 68.691406 296.28125 68.699219 C 296.371094 69.027344 296.414062 69.40625 296.414062 69.832031 L 296.414062 83.707031 C 296.414062 84.492188 296.261719 85.109375 295.957031 85.5625 C 295.804688 85.796875 295.605469 85.988281 295.371094 86.132812 C 294.675781 86.5625 293.523438 86.777344 291.917969 86.777344 L 291.917969 96.949219 L 295.585938 98.898438 L 314.445312 98.898438 L 314.445312 88.726562 L 310.777344 86.777344 C 310.507812 86.777344 310.253906 86.773438 310.011719 86.761719 C 309.96875 86.527344 309.949219 86.269531 309.949219 85.984375 L 309.949219 80.289062 L 320.59375 96.949219 Z M 324.261719 98.898438 " fill-opacity="1" fill-rule="nonzero"/><path fill="#cd7c35" d="M 100.015625 71.230469 L 90.972656 71.230469 C 90.824219 70.296875 90.5 69.429688 89.996094 68.625 C 89.496094 67.820312 88.878906 67.128906 88.148438 66.542969 C 87.414062 65.957031 86.601562 65.503906 85.707031 65.183594 C 84.8125 64.867188 83.886719 64.707031 82.9375 64.707031 C 81.785156 64.707031 80.855469 64.925781 80.140625 65.363281 C 79.429688 65.800781 79.074219 66.414062 79.074219 67.199219 C 79.074219 67.949219 79.390625 68.558594 80.03125 69.023438 C 80.671875 69.488281 81.511719 69.890625 82.554688 70.230469 C 83.597656 70.566406 84.785156 70.894531 86.117188 71.203125 C 87.453125 71.515625 88.808594 71.898438 90.191406 72.355469 C 91.570312 72.8125 92.925781 73.363281 94.261719 74.011719 C 95.59375 74.664062 96.78125 75.492188 97.824219 76.507812 C 98.867188 77.523438 99.707031 78.761719 100.347656 80.222656 C 100.984375 81.6875 101.304688 83.441406 101.304688 85.488281 C 101.304688 87.664062 100.839844 89.519531 99.90625 91.054688 C 98.976562 92.589844 97.722656 93.851562 96.152344 94.835938 C 94.578125 95.824219 92.769531 96.546875 90.722656 97.003906 C 88.675781 97.460938 86.558594 97.6875 84.363281 97.6875 C 82.226562 97.6875 80.183594 97.441406 78.238281 96.949219 C 76.289062 96.453125 74.300781 95.652344 72.273438 94.535156 L 72.273438 96.949219 L 63.226562 96.949219 L 63.226562 82.003906 L 72.273438 82.003906 C 72.804688 84.144531 73.863281 85.832031 75.453125 87.0625 C 77.042969 88.296875 78.835938 88.914062 80.828125 88.914062 C 82.160156 88.914062 83.15625 88.664062 83.816406 88.160156 C 84.472656 87.660156 84.800781 87.085938 84.800781 86.445312 C 84.800781 85.441406 84.257812 84.664062 83.171875 84.117188 C 82.082031 83.566406 80.734375 83.078125 79.128906 82.648438 C 77.519531 82.21875 75.761719 81.734375 73.851562 81.195312 C 71.941406 80.65625 70.179688 79.878906 68.574219 78.867188 C 66.964844 77.851562 65.617188 76.511719 64.53125 74.851562 C 63.441406 73.1875 62.898438 71.011719 62.898438 68.324219 C 62.898438 66.332031 63.328125 64.566406 64.1875 63.03125 C 65.046875 61.496094 66.199219 60.203125 67.640625 59.152344 C 69.085938 58.101562 70.753906 57.308594 72.644531 56.769531 C 74.535156 56.230469 76.53125 55.960938 78.632812 55.960938 C 81.539062 55.960938 84.035156 56.296875 86.117188 56.972656 C 88.203125 57.648438 89.820312 58.363281 90.972656 59.113281 L 90.972656 56.5625 L 100.015625 56.5625 Z M 100.015625 71.230469 " fill-opacity="1" fill-rule="nonzero"/><path fill="#cd7c35" d="M 125.675781 82.855469 L 117.015625 82.855469 L 116.628906 84.035156 C 116.335938 84.820312 116.355469 85.472656 116.683594 85.996094 C 117.015625 86.515625 117.707031 86.777344 118.769531 86.777344 L 120.332031 86.777344 L 120.332031 96.949219 L 103.253906 96.949219 L 103.253906 86.777344 L 104.375 86.777344 C 105.691406 86.777344 106.574219 86.515625 107.023438 85.996094 C 107.46875 85.472656 107.902344 84.710938 108.324219 83.707031 L 113.945312 69.832031 C 114.34375 68.773438 114.414062 67.992188 114.148438 67.488281 C 113.882812 66.984375 113.085938 66.734375 111.75 66.734375 L 111.175781 66.734375 L 111.175781 56.5625 L 139.355469 56.5625 L 139.355469 66.734375 L 138.808594 66.734375 C 137.457031 66.734375 136.648438 67 136.382812 67.53125 C 136.117188 68.058594 136.195312 68.828125 136.617188 69.832031 L 142.234375 83.707031 C 142.453125 84.21875 142.652344 84.660156 142.824219 85.035156 C 143 85.410156 143.214844 85.730469 143.46875 85.996094 C 143.722656 86.261719 144.066406 86.457031 144.496094 86.585938 C 144.925781 86.710938 145.480469 86.777344 146.15625 86.777344 L 147.28125 86.777344 L 147.28125 96.949219 L 122.359375 96.949219 L 122.359375 86.777344 L 123.867188 86.777344 C 124.910156 86.777344 125.609375 86.515625 125.964844 85.996094 C 126.320312 85.472656 126.351562 84.820312 126.0625 84.035156 Z M 118.414062 78.578125 L 124.25 78.578125 L 121.511719 70.160156 L 121.289062 70.160156 Z M 118.414062 78.578125 " fill-opacity="1" fill-rule="nonzero"/><path fill="#cd7c35" d="M 174.117188 66.734375 C 172.507812 66.734375 171.363281 66.949219 170.675781 67.378906 C 169.992188 67.808594 169.648438 68.625 169.648438 69.832031 L 169.648438 86.777344 L 175.132812 86.777344 C 175.882812 86.777344 176.511719 86.703125 177.023438 86.554688 C 177.535156 86.410156 177.9375 86.105469 178.230469 85.636719 C 178.523438 85.171875 178.726562 84.519531 178.847656 83.675781 C 178.964844 82.835938 179.023438 81.722656 179.023438 80.332031 L 188.621094 80.332031 L 188.621094 96.949219 L 148.980469 96.949219 L 148.980469 86.777344 C 150.585938 86.777344 151.738281 86.5625 152.433594 86.132812 C 153.128906 85.703125 153.476562 84.894531 153.476562 83.707031 L 153.476562 69.832031 C 153.476562 68.625 153.128906 67.808594 152.433594 67.378906 C 151.738281 66.949219 150.585938 66.734375 148.980469 66.734375 L 148.980469 56.5625 L 174.117188 56.5625 Z M 174.117188 66.734375 " fill-opacity="1" fill-rule="nonzero"/><path fill="#cd7c35" d="M 191.140625 76.796875 C 191.140625 73.269531 191.722656 70.175781 192.882812 67.515625 C 194.042969 64.855469 195.683594 62.632812 197.804688 60.839844 C 199.925781 59.046875 202.441406 57.707031 205.355469 56.808594 C 208.269531 55.914062 211.492188 55.464844 215.019531 55.464844 C 218.527344 55.464844 221.746094 55.914062 224.667969 56.808594 C 227.59375 57.707031 230.113281 59.046875 232.222656 60.839844 C 234.332031 62.632812 235.96875 64.855469 237.128906 67.515625 C 238.289062 70.175781 238.871094 73.269531 238.871094 76.796875 C 238.871094 80.304688 238.289062 83.390625 237.128906 86.050781 C 235.96875 88.710938 234.332031 90.941406 232.222656 92.738281 C 230.113281 94.539062 227.59375 95.886719 224.667969 96.78125 C 221.746094 97.679688 218.527344 98.125 215.019531 98.125 C 211.492188 98.125 208.269531 97.679688 205.355469 96.78125 C 202.441406 95.886719 199.925781 94.539062 197.804688 92.738281 C 195.683594 90.941406 194.042969 88.710938 192.882812 86.050781 C 191.722656 83.390625 191.140625 80.304688 191.140625 76.796875 Z M 209.566406 76.796875 C 209.566406 79.007812 209.648438 80.859375 209.8125 82.347656 C 209.976562 83.839844 210.261719 85.042969 210.675781 85.96875 C 211.085938 86.890625 211.640625 87.558594 212.332031 87.96875 C 213.027344 88.378906 213.921875 88.585938 215.019531 88.585938 C 216.0625 88.585938 216.9375 88.378906 217.652344 87.96875 C 218.363281 87.558594 218.925781 86.890625 219.339844 85.96875 C 219.75 85.042969 220.035156 83.839844 220.203125 82.347656 C 220.367188 80.859375 220.449219 79.007812 220.449219 76.796875 C 220.449219 74.621094 220.367188 72.773438 220.203125 71.257812 C 220.035156 69.742188 219.75 68.527344 219.339844 67.613281 C 218.925781 66.699219 218.363281 66.035156 217.652344 65.625 C 216.9375 65.210938 216.0625 65.007812 215.019531 65.007812 C 213.921875 65.007812 213.027344 65.210938 212.332031 65.625 C 211.640625 66.035156 211.085938 66.699219 210.675781 67.613281 C 210.261719 68.527344 209.976562 69.742188 209.8125 71.257812 C 209.648438 72.773438 209.566406 74.621094 209.566406 76.796875 Z M 209.566406 76.796875 " fill-opacity="1" fill-rule="nonzero"/><path fill="#cd7c35" d="M 241.667969 76.796875 C 241.667969 73.269531 242.246094 70.175781 243.40625 67.515625 C 244.566406 64.855469 246.207031 62.632812 248.328125 60.839844 C 250.449219 59.046875 252.964844 57.707031 255.882812 56.808594 C 258.796875 55.914062 262.015625 55.464844 265.542969 55.464844 C 269.054688 55.464844 272.269531 55.914062 275.195312 56.808594 C 278.117188 57.707031 280.636719 59.046875 282.746094 60.839844 C 284.859375 62.632812 286.492188 64.855469 287.652344 67.515625 C 288.8125 70.175781 289.394531 73.269531 289.394531 76.796875 C 289.394531 80.304688 288.8125 83.390625 287.652344 86.050781 C 286.492188 88.710938 284.859375 90.941406 282.746094 92.738281 C 280.636719 94.539062 278.117188 95.886719 275.195312 96.78125 C 272.269531 97.679688 269.054688 98.125 265.542969 98.125 C 262.015625 98.125 258.796875 97.679688 255.882812 96.78125 C 252.964844 95.886719 250.449219 94.539062 248.328125 92.738281 C 246.207031 90.941406 244.566406 88.710938 243.40625 86.050781 C 242.246094 83.390625 241.667969 80.304688 241.667969 76.796875 Z M 260.089844 76.796875 C 260.089844 79.007812 260.171875 80.859375 260.335938 82.347656 C 260.5 83.839844 260.789062 85.042969 261.199219 85.96875 C 261.609375 86.890625 262.164062 87.558594 262.859375 87.96875 C 263.550781 88.378906 264.449219 88.585938 265.542969 88.585938 C 266.585938 88.585938 267.464844 88.378906 268.175781 87.96875 C 268.890625 87.558594 269.449219 86.890625 269.863281 85.96875 C 270.273438 85.042969 270.5625 83.839844 270.726562 82.347656 C 270.890625 80.859375 270.972656 79.007812 270.972656 76.796875 C 270.972656 74.621094 270.890625 72.773438 270.726562 71.257812 C 270.5625 69.742188 270.273438 68.527344 269.863281 67.613281 C 269.449219 66.699219 268.890625 66.035156 268.175781 65.625 C 267.464844 65.210938 266.585938 65.007812 265.542969 65.007812 C 264.449219 65.007812 263.550781 65.210938 262.859375 65.625 C 262.164062 66.035156 261.609375 66.699219 261.199219 67.613281 C 260.789062 68.527344 260.5 69.742188 260.335938 71.257812 C 260.171875 72.773438 260.089844 74.621094 260.089844 76.796875 Z M 260.089844 76.796875 " fill-opacity="1" fill-rule="nonzero"/><path fill="#cd7c35" d="M 340.988281 56.5625 L 340.988281 66.734375 C 339.378906 66.734375 338.324219 67 337.820312 67.53125 C 337.320312 68.058594 337.070312 68.828125 337.070312 69.832031 L 337.070312 96.949219 L 320.59375 96.949219 L 306.28125 74.546875 L 306.28125 84.035156 C 306.28125 85.222656 306.628906 85.976562 307.324219 86.296875 C 308.019531 86.617188 309.167969 86.777344 310.777344 86.777344 L 310.777344 96.949219 L 291.917969 96.949219 L 291.917969 86.777344 C 293.523438 86.777344 294.675781 86.5625 295.371094 86.132812 C 296.066406 85.703125 296.414062 84.894531 296.414062 83.707031 L 296.414062 69.832031 C 296.414062 68.625 296.066406 67.808594 295.371094 67.378906 C 294.675781 66.949219 293.523438 66.734375 291.917969 66.734375 L 291.917969 56.5625 L 313.464844 56.5625 L 327.171875 78.03125 L 327.171875 69.832031 C 327.171875 68.625 326.921875 67.808594 326.417969 67.378906 C 325.914062 66.949219 324.859375 66.734375 323.25 66.734375 L 323.25 56.5625 Z M 340.988281 56.5625 " fill-opacity="1" fill-rule="nonzero"/><path fill="#bf6a2c" d="M 220.449219 19.179688 L 226.683594 25.492188 L 230.183594 19.164062 L 230.183594 11.808594 L 220.449219 11.808594 Z M 220.449219 19.179688 " fill-opacity="1" fill-rule="nonzero"/><path fill="#bf6a2c" d="M 333.648438 23.058594 L 333.648438 27.402344 L 340.988281 25.492188 L 344.65625 34.082031 L 351.40625 28.570312 L 354.90625 31.539062 L 359.621094 27.609375 L 355.222656 19.164062 L 339.316406 16.582031 L 329.769531 16.582031 Z M 333.648438 23.058594 " fill-opacity="1" fill-rule="nonzero"/><path fill="#bf6a2c" d="M 25.59375 39.167969 L 31.964844 41.402344 L 33.871094 32.574219 L 26.875 30.265625 L 20.511719 35.832031 Z M 25.59375 39.167969 " fill-opacity="1" fill-rule="nonzero"/><path fill="#bf6a2c" d="M 84.144531 22 L 87.964844 25.332031 L 90.882812 21.4375 L 87.511719 16.582031 L 84.144531 18.652344 Z M 84.144531 22 " fill-opacity="1" fill-rule="nonzero"/><path fill="#bf6a2c" d="M 93.207031 21.265625 L 94.804688 22.789062 L 96.710938 20.957031 L 94.960938 17.695312 L 92.097656 17.695312 Z M 93.207031 21.265625 " fill-opacity="1" fill-rule="nonzero"/><path fill="#bf6a2c" d="M 58.898438 130.007812 L 65.054688 126.148438 L 68.695312 131.105469 L 68.695312 134.527344 L 61.449219 134.527344 C 61.449219 134.527344 59.316406 132.515625 58.898438 131.878906 C 58.480469 131.242188 58.898438 130.007812 58.898438 130.007812 Z M 58.898438 130.007812 " fill-opacity="1" fill-rule="nonzero"/><path fill="#bf6a2c" d="M 68.695312 131.105469 L 71.628906 129.121094 L 73.988281 131.605469 L 72.902344 134.527344 L 68.695312 134.527344 Z M 68.695312 131.105469 " fill-opacity="1" fill-rule="nonzero"/><path fill="#bf6a2c" d="M 17.699219 83.757812 L 21.570312 81.8125 L 18.453125 90.714844 L 14.574219 89.449219 L 14.574219 84.804688 Z M 17.699219 83.757812 " fill-opacity="1" fill-rule="nonzero"/><path fill="#bf6a2c" d="M 276.105469 134.433594 L 282.46875 130.605469 L 289.394531 134.527344 L 286.289062 138.664062 L 280.558594 138.664062 Z M 276.105469 134.433594 " fill-opacity="1" fill-rule="nonzero"/><path fill="#bf6a2c" d="M 298.8125 133.847656 L 301.984375 130.605469 L 305.800781 133.535156 L 302.304688 137.394531 L 298.8125 136.542969 Z M 298.8125 133.847656 " fill-opacity="1" fill-rule="nonzero"/><path fill="#bf6a2c" d="M 382.984375 110.011719 L 374.3125 103.875 L 384.578125 106.945312 L 386.617188 108.96875 L 386.617188 113.632812 Z M 382.984375 110.011719 " fill-opacity="1" fill-rule="nonzero"/><path fill="#bf6a2c" d="M 386.617188 101.738281 L 382.160156 100.078125 L 387.457031 98.898438 L 390.398438 98.898438 L 390.398438 103.875 L 388.3125 105.996094 Z M 386.617188 101.738281 " fill-opacity="1" fill-rule="nonzero"/><path fill="#7c360f" d="M 112.773438 31.558594 C 111.917969 31.558594 111.1875 30.898438 111.121094 30.027344 C 111.046875 29.113281 111.730469 28.3125 112.644531 28.242188 L 129.183594 26.925781 C 130.105469 26.855469 130.902344 27.535156 130.972656 28.449219 C 131.046875 29.363281 130.363281 30.164062 129.449219 30.234375 L 112.90625 31.554688 C 112.863281 31.554688 112.820312 31.558594 112.773438 31.558594 Z M 112.773438 31.558594 " fill-opacity="1" fill-rule="nonzero"/><path fill="#7c360f" d="M 142.050781 30.679688 C 142.027344 30.679688 142.003906 30.675781 141.980469 30.675781 L 134.664062 30.367188 C 133.746094 30.328125 133.035156 29.550781 133.074219 28.636719 C 133.109375 27.71875 133.902344 27.019531 134.800781 27.046875 L 142.121094 27.355469 C 143.039062 27.394531 143.75 28.167969 143.710938 29.085938 C 143.671875 29.980469 142.9375 30.679688 142.050781 30.679688 Z M 142.050781 30.679688 " fill-opacity="1" fill-rule="nonzero"/><path fill="#7c360f" d="M 27.816406 70.429688 C 26.910156 70.429688 26.167969 69.699219 26.15625 68.789062 C 26.097656 64.304688 27.039062 59.773438 28.878906 55.683594 C 29.257812 54.847656 30.242188 54.476562 31.078125 54.851562 C 31.914062 55.230469 32.285156 56.210938 31.910156 57.050781 C 30.265625 60.699219 29.425781 64.742188 29.480469 68.746094 C 29.492188 69.664062 28.757812 70.417969 27.839844 70.429688 C 27.832031 70.429688 27.824219 70.429688 27.816406 70.429688 Z M 27.816406 70.429688 " fill-opacity="1" fill-rule="nonzero"/><path fill="#7c360f" d="M 33.890625 78.382812 C 33.054688 78.382812 32.335938 77.753906 32.242188 76.902344 C 31.832031 73.222656 32.285156 69.4375 33.554688 65.960938 C 33.867188 65.097656 34.820312 64.652344 35.683594 64.964844 C 36.546875 65.28125 36.988281 66.234375 36.675781 67.097656 C 35.582031 70.097656 35.191406 73.363281 35.542969 76.539062 C 35.644531 77.449219 34.988281 78.269531 34.074219 78.371094 C 34.011719 78.378906 33.953125 78.382812 33.890625 78.382812 Z M 33.890625 78.382812 " fill-opacity="1" fill-rule="nonzero"/><path fill="#7c360f" d="M 47.242188 121.640625 C 47.09375 121.640625 46.9375 121.621094 46.785156 121.578125 C 42.519531 120.355469 38.601562 117.808594 35.75 114.410156 C 35.160156 113.707031 35.253906 112.660156 35.957031 112.070312 C 36.660156 111.480469 37.707031 111.570312 38.296875 112.273438 C 40.726562 115.171875 44.066406 117.339844 47.699219 118.382812 C 48.582031 118.636719 49.09375 119.554688 48.839844 120.4375 C 48.628906 121.167969 47.964844 121.640625 47.242188 121.640625 Z M 47.242188 121.640625 " fill-opacity="1" fill-rule="nonzero"/><path fill="#7c360f" d="M 186.277344 130.632812 C 185.371094 130.632812 184.628906 129.902344 184.617188 128.992188 C 184.605469 128.074219 185.339844 127.320312 186.257812 127.308594 L 207.574219 127.035156 C 208.519531 127.007812 209.246094 127.761719 209.257812 128.675781 C 209.269531 129.59375 208.535156 130.347656 207.617188 130.359375 L 186.300781 130.632812 C 186.292969 130.632812 186.285156 130.632812 186.277344 130.632812 Z M 186.277344 130.632812 " fill-opacity="1" fill-rule="nonzero"/><path fill="#7c360f" d="M 223.824219 130.195312 C 223.804688 130.195312 223.785156 130.195312 223.765625 130.191406 L 215.171875 129.894531 C 214.257812 129.863281 213.539062 129.09375 213.570312 128.175781 C 213.601562 127.257812 214.375 126.535156 215.289062 126.574219 L 223.878906 126.871094 C 224.796875 126.902344 225.515625 127.671875 225.484375 128.589844 C 225.453125 129.488281 224.714844 130.195312 223.824219 130.195312 Z M 223.824219 130.195312 " fill-opacity="1" fill-rule="nonzero"/><path fill="#7c360f" d="M 379.433594 56.101562 C 378.707031 56.101562 378.035156 55.617188 377.832031 54.878906 C 376.757812 50.949219 375.007812 47.285156 372.628906 43.980469 C 372.089844 43.234375 372.257812 42.195312 373.003906 41.660156 C 373.75 41.125 374.789062 41.292969 375.324219 42.035156 C 377.9375 45.664062 379.859375 49.691406 381.039062 54 C 381.28125 54.886719 380.761719 55.800781 379.875 56.042969 C 379.726562 56.082031 379.582031 56.101562 379.433594 56.101562 Z M 379.433594 56.101562 " fill-opacity="1" fill-rule="nonzero"/><path fill="#7c360f" d="M 382.269531 70.429688 C 381.351562 70.429688 380.605469 69.683594 380.605469 68.765625 L 380.605469 63.359375 C 380.605469 62.441406 381.351562 61.695312 382.269531 61.695312 C 383.1875 61.695312 383.929688 62.441406 383.929688 63.359375 L 383.929688 68.765625 C 383.929688 69.683594 383.1875 70.429688 382.269531 70.429688 Z M 382.269531 70.429688 " fill-opacity="1" fill-rule="nonzero"/><path fill="#7c360f" d="M 248.316406 48.792969 C 247.441406 48.792969 246.707031 48.105469 246.660156 47.21875 C 246.609375 46.304688 247.3125 45.519531 248.230469 45.472656 L 260 44.835938 C 260.921875 44.773438 261.699219 45.488281 261.75 46.402344 C 261.800781 47.320312 261.097656 48.101562 260.179688 48.152344 L 248.410156 48.789062 C 248.378906 48.792969 248.347656 48.792969 248.316406 48.792969 Z M 248.316406 48.792969 " fill-opacity="1" fill-rule="nonzero"/><path fill="#7c360f" d="M 274.726562 107.976562 C 273.828125 107.976562 273.089844 107.261719 273.066406 106.359375 C 273.042969 105.441406 273.765625 104.679688 274.683594 104.652344 L 286.453125 104.335938 C 287.390625 104.308594 288.136719 105.035156 288.160156 105.953125 C 288.183594 106.871094 287.460938 107.632812 286.542969 107.660156 L 274.773438 107.976562 C 274.757812 107.976562 274.742188 107.976562 274.726562 107.976562 Z M 274.726562 107.976562 " fill-opacity="1" fill-rule="nonzero"/><path fill="#7c360f" d="M 301.453125 107.023438 L 295.726562 107.023438 C 294.808594 107.023438 294.066406 106.277344 294.066406 105.359375 C 294.066406 104.441406 294.808594 103.699219 295.726562 103.699219 L 301.453125 103.699219 C 302.371094 103.699219 303.113281 104.441406 303.113281 105.359375 C 303.113281 106.277344 302.371094 107.023438 301.453125 107.023438 Z M 301.453125 107.023438 " fill-opacity="1" fill-rule="nonzero"/><path fill="#7c360f" d="M 110.871094 110.203125 C 110 110.203125 109.269531 109.527344 109.214844 108.648438 C 109.152344 107.734375 109.847656 106.945312 110.765625 106.882812 L 120.628906 106.246094 C 121.542969 106.203125 122.332031 106.882812 122.390625 107.800781 C 122.453125 108.714844 121.757812 109.507812 120.839844 109.566406 L 110.976562 110.199219 C 110.941406 110.203125 110.90625 110.203125 110.871094 110.203125 Z M 110.871094 110.203125 " fill-opacity="1" fill-rule="nonzero"/><path fill="#924516" d="M 207.277344 16.335938 L 191.050781 16.335938 C 190.132812 16.335938 189.386719 15.589844 189.386719 14.671875 C 189.386719 13.753906 190.132812 13.011719 191.050781 13.011719 L 207.277344 13.011719 C 208.195312 13.011719 208.9375 13.753906 208.9375 14.671875 C 208.9375 15.589844 208.195312 16.335938 207.277344 16.335938 Z M 207.277344 16.335938 " fill-opacity="1" fill-rule="nonzero"/><path fill="#924516" d="M 354.269531 16.332031 C 354.09375 16.332031 353.914062 16.304688 353.734375 16.246094 C 348.609375 14.5 343.273438 13.355469 337.882812 12.832031 C 336.96875 12.746094 336.300781 11.933594 336.386719 11.019531 C 336.476562 10.105469 337.292969 9.445312 338.203125 9.523438 C 343.847656 10.070312 349.433594 11.273438 354.804688 13.097656 C 355.671875 13.394531 356.136719 14.335938 355.84375 15.207031 C 355.609375 15.898438 354.960938 16.332031 354.269531 16.332031 Z M 354.269531 16.332031 " fill-opacity="1" fill-rule="nonzero"/><path fill="#924516" d="M 363.148438 19.289062 C 362.984375 19.289062 362.8125 19.261719 362.648438 19.210938 L 358.523438 17.902344 C 357.648438 17.625 357.164062 16.6875 357.441406 15.8125 C 357.71875 14.941406 358.652344 14.453125 359.527344 14.734375 L 363.652344 16.042969 C 364.527344 16.320312 365.011719 17.253906 364.734375 18.128906 C 364.507812 18.835938 363.855469 19.289062 363.148438 19.289062 Z M 363.148438 19.289062 " fill-opacity="1" fill-rule="nonzero"/><path fill="#924516" d="M 383.859375 134.070312 C 383.417969 134.070312 382.976562 133.894531 382.652344 133.546875 C 382.019531 132.882812 382.050781 131.832031 382.71875 131.199219 C 386.300781 127.816406 389.542969 124.050781 392.359375 120.003906 C 392.882812 119.25 393.917969 119.066406 394.671875 119.589844 C 395.425781 120.113281 395.609375 121.148438 395.085938 121.902344 C 392.140625 126.136719 388.746094 130.074219 385 133.617188 C 384.679688 133.917969 384.269531 134.070312 383.859375 134.070312 Z M 383.859375 134.070312 " fill-opacity="1" fill-rule="nonzero"/><path fill="#924516" d="M 298.953125 150.269531 C 296.558594 150.269531 294.164062 150.179688 291.78125 150 C 290.867188 149.929688 290.179688 149.132812 290.25 148.21875 C 290.316406 147.304688 291.117188 146.613281 292.03125 146.6875 C 297.855469 147.128906 303.742188 147.007812 309.53125 146.335938 C 310.441406 146.234375 311.269531 146.882812 311.375 147.796875 C 311.480469 148.707031 310.828125 149.53125 309.917969 149.636719 C 306.285156 150.058594 302.617188 150.269531 298.953125 150.269531 Z M 298.953125 150.269531 " fill-opacity="1" fill-rule="nonzero"/><path fill="#924516" d="M 62.828125 146.824219 C 62.816406 146.824219 62.800781 146.824219 62.789062 146.824219 C 55.730469 146.664062 48.660156 145.773438 41.777344 144.171875 C 40.886719 143.964844 40.328125 143.074219 40.535156 142.179688 C 40.746094 141.285156 41.632812 140.726562 42.53125 140.9375 C 49.191406 142.484375 56.03125 143.347656 62.863281 143.503906 C 63.78125 143.523438 64.507812 144.285156 64.488281 145.203125 C 64.46875 146.105469 63.726562 146.824219 62.828125 146.824219 Z M 62.828125 146.824219 " fill-opacity="1" fill-rule="nonzero"/><path fill="#924516" d="M 74.917969 149.023438 C 74.820312 149.023438 74.722656 149.015625 74.621094 148.996094 L 67.621094 147.726562 C 66.71875 147.5625 66.121094 146.695312 66.285156 145.792969 C 66.449219 144.890625 67.308594 144.285156 68.214844 144.457031 L 75.214844 145.726562 C 76.117188 145.890625 76.71875 146.757812 76.554688 147.660156 C 76.40625 148.460938 75.707031 149.023438 74.917969 149.023438 Z M 74.917969 149.023438 " fill-opacity="1" fill-rule="nonzero"/><path fill="#924516" d="M 11.273438 47.835938 C 10.363281 47.835938 9.621094 47.105469 9.613281 46.195312 C 9.535156 39.214844 11.808594 32.300781 16.015625 26.726562 C 16.570312 25.996094 17.609375 25.847656 18.34375 26.402344 C 19.074219 26.957031 19.222656 28 18.667969 28.730469 C 14.902344 33.71875 12.867188 39.910156 12.933594 46.15625 C 12.945312 47.074219 12.210938 47.828125 11.292969 47.835938 C 11.285156 47.835938 11.28125 47.835938 11.273438 47.835938 Z M 11.273438 47.835938 " fill-opacity="1" fill-rule="nonzero"/><g clip-path="url(#5edcd4915a)"><g transform="matrix(1, 0, 0, 1, 58, 47)"><g clip-path="url(#55bf6e3d3f)"><g clip-path="url(#b99595bdfa)"><path fill="#924516" d="M 0.738281 0.078125 L 291.269531 0.078125 L 291.269531 64.867188 L 0.738281 64.867188 Z M 0.738281 0.078125 " fill-opacity="1" fill-rule="nonzero"/></g></g></g></g><g transform="matrix(1, 0, 0, 1, 28, 31)"><g clip-path="url(#d35cf600c2)"><g fill="#cb7a35" fill-opacity="0.4"><g transform="translate(2.292245, 49.687282)"><g><path d="M 17.953125 0.640625 C 12.421875 0.640625 8.148438 -0.8125 5.140625 -3.71875 C 2.140625 -6.625 0.640625 -11.265625 0.640625 -17.640625 C 0.640625 -24.015625 2.140625 -28.648438 5.140625 -31.546875 C 8.148438 -34.453125 12.421875 -35.90625 17.953125 -35.90625 C 23.484375 -35.90625 27.753906 -34.453125 30.765625 -31.546875 C 33.773438 -28.648438 35.28125 -24.015625 35.28125 -17.640625 C 35.28125 -11.265625 33.773438 -6.625 30.765625 -3.71875 C 27.753906 -0.8125 23.484375 0.640625 17.953125 0.640625 Z M 17.953125 -7.4375 C 18.984375 -7.4375 19.753906 -7.707031 20.265625 -8.25 C 20.785156 -8.789062 21.046875 -9.640625 21.046875 -10.796875 L 21.046875 -24.484375 C 21.046875 -25.628906 20.785156 -26.472656 20.265625 -27.015625 C 19.753906 -27.566406 18.984375 -27.84375 17.953125 -27.84375 C 16.929688 -27.84375 16.160156 -27.566406 15.640625 -27.015625 C 15.128906 -26.472656 14.875 -25.628906 14.875 -24.484375 L 14.875 -10.796875 C 14.875 -9.609375 15.128906 -8.75 15.640625 -8.21875 C 16.160156 -7.695312 16.929688 -7.4375 17.953125 -7.4375 Z M 17.953125 -7.4375 "/></g></g></g><g fill="#cb7a35" fill-opacity="0.4"><g transform="translate(39.113055, 49.687282)"><g><path d="M 0.90625 -7.4375 L 3.171875 -7.4375 L 3.171875 -27.84375 L 0.90625 -27.84375 L 0.90625 -35.28125 L 21.71875 -35.28125 C 25.613281 -35.28125 28.585938 -34.476562 30.640625 -32.875 C 32.703125 -31.269531 33.734375 -28.671875 33.734375 -25.078125 C 33.734375 -23.046875 33.320312 -21.289062 32.5 -19.8125 C 31.6875 -18.332031 30.523438 -17.304688 29.015625 -16.734375 L 29.0625 -16.28125 C 31.96875 -15.820312 33.421875 -14.035156 33.421875 -10.921875 L 33.421875 -7.4375 L 35.546875 -7.4375 L 35.546875 0 L 21.171875 0 L 21.171875 -10.65625 C 21.171875 -11.832031 20.992188 -12.722656 20.640625 -13.328125 C 20.296875 -13.929688 19.753906 -14.335938 19.015625 -14.546875 C 18.273438 -14.765625 17.226562 -14.875 15.875 -14.875 L 15.875 -7.4375 L 18.859375 -7.4375 L 18.859375 0 L 0.90625 0 Z M 18.3125 -20.40625 C 19.195312 -20.40625 19.859375 -20.640625 20.296875 -21.109375 C 20.734375 -21.578125 20.953125 -22.3125 20.953125 -23.3125 L 20.953125 -24.9375 C 20.953125 -25.9375 20.734375 -26.671875 20.296875 -27.140625 C 19.859375 -27.609375 19.195312 -27.84375 18.3125 -27.84375 L 15.875 -27.84375 L 15.875 -20.40625 Z M 18.3125 -20.40625 "/></g></g></g><g fill="#cb7a35" fill-opacity="0.4"><g transform="translate(76.296635, 49.687282)"><g><path d="M 35.09375 -11.328125 L 32.828125 -11.328125 L 32.828125 -2.265625 C 31.492188 -1.515625 29.550781 -0.84375 27 -0.25 C 24.445312 0.34375 21.691406 0.640625 18.734375 0.640625 C 13.078125 0.640625 8.644531 -0.847656 5.4375 -3.828125 C 2.238281 -6.804688 0.640625 -11.410156 0.640625 -17.640625 C 0.640625 -24.015625 2.234375 -28.648438 5.421875 -31.546875 C 8.609375 -34.453125 13.164062 -35.90625 19.09375 -35.90625 C 21.957031 -35.90625 24.644531 -35.601562 27.15625 -35 C 29.664062 -34.394531 31.554688 -33.71875 32.828125 -32.96875 L 32.828125 -22.125 L 21.5 -22.125 L 21.5 -24.265625 C 21.5 -25.523438 21.234375 -26.4375 20.703125 -27 C 20.171875 -27.5625 19.332031 -27.84375 18.1875 -27.84375 C 17.03125 -27.84375 16.1875 -27.5625 15.65625 -27 C 15.132812 -26.4375 14.875 -25.523438 14.875 -24.265625 L 14.875 -11.015625 C 14.875 -9.742188 15.132812 -8.828125 15.65625 -8.265625 C 16.1875 -7.710938 17.03125 -7.4375 18.1875 -7.4375 C 19.332031 -7.4375 20.171875 -7.710938 20.703125 -8.265625 C 21.234375 -8.828125 21.5 -9.742188 21.5 -11.015625 L 21.5 -11.328125 L 19.046875 -11.328125 L 19.046875 -18.09375 L 35.09375 -18.09375 Z M 35.09375 -11.328125 "/></g></g></g><g fill="#cb7a35" fill-opacity="0.4"><g transform="translate(112.663992, 49.687282)"><g><path d="M 34.1875 -7.4375 L 36 -7.4375 L 36 0 L 18.234375 0 L 18.234375 -7.4375 L 20.953125 -7.4375 L 20.21875 -11.0625 L 14.0625 -11.0625 L 13.328125 -7.4375 L 16.046875 -7.4375 L 16.046875 0 L 0.546875 0 L 0.546875 -7.4375 L 2.359375 -7.4375 L 10.015625 -35.28125 L 26.53125 -35.28125 Z M 15.046875 -15.875 L 19.21875 -15.875 L 17.359375 -24.890625 L 16.90625 -24.890625 Z M 15.046875 -15.875 "/></g></g></g><g fill="#cb7a35" fill-opacity="0.4"><g transform="translate(150.119644, 49.687282)"><g><path d="M 27.03125 -35.28125 L 41.890625 -35.28125 L 41.890625 -27.84375 L 39.625 -27.84375 L 39.625 0 L 26.890625 0 L 13.609375 -20.453125 L 13.609375 -7.4375 L 15.78125 -7.4375 L 15.78125 0 L 0.90625 0 L 0.90625 -7.4375 L 3.171875 -7.4375 L 3.171875 -27.84375 L 0.90625 -27.84375 L 0.90625 -35.28125 L 17.28125 -35.28125 L 29.203125 -17.09375 L 29.203125 -27.84375 L 27.03125 -27.84375 Z M 27.03125 -35.28125 "/></g></g></g><g fill="#cb7a35" fill-opacity="0.4"><g transform="translate(193.742306, 49.687282)"><g><path d="M 0.90625 0 L 0.90625 -7.4375 L 3.171875 -7.4375 L 3.171875 -27.84375 L 0.90625 -27.84375 L 0.90625 -35.28125 L 18.140625 -35.28125 L 18.140625 -27.84375 L 15.875 -27.84375 L 15.875 -7.4375 L 18.140625 -7.4375 L 18.140625 0 Z M 0.90625 0 "/></g></g></g><g fill="#cb7a35" fill-opacity="0.4"><g transform="translate(213.694525, 49.687282)"><g><path d="M 21.578125 -11.15625 L 30.609375 -11.15625 L 30.609375 0 L 0.640625 0 L 0.640625 -6.53125 L 14.59375 -27.84375 L 9.890625 -27.84375 L 9.890625 -24.125 L 0.859375 -24.125 L 0.859375 -35.28125 L 29.875 -35.28125 L 29.875 -28.75 L 15.96875 -7.4375 L 21.578125 -7.4375 Z M 21.578125 -11.15625 "/></g></g></g><g fill="#cb7a35" fill-opacity="0.4"><g transform="translate(245.844728, 49.687282)"><g><path d="M 0.90625 0 L 0.90625 -7.4375 L 3.171875 -7.4375 L 3.171875 -27.84375 L 0.90625 -27.84375 L 0.90625 -35.28125 L 31.515625 -35.28125 L 31.515625 -21.578125 L 21.359375 -21.578125 L 21.359375 -27.84375 L 15.875 -27.84375 L 15.875 -20.671875 L 19.859375 -20.671875 L 19.859375 -15.5 L 15.875 -15.5 L 15.875 -7.4375 L 21.359375 -7.4375 L 21.359375 -14.59375 L 31.515625 -14.59375 L 31.515625 0 Z M 0.90625 0 "/></g></g></g><g fill="#cb7a35" fill-opacity="0.4"><g transform="translate(279.083234, 49.687282)"><g><path d="M 0.90625 -7.4375 L 3.171875 -7.4375 L 3.171875 -27.84375 L 0.90625 -27.84375 L 0.90625 -35.28125 L 21.71875 -35.28125 C 25.613281 -35.28125 28.585938 -34.476562 30.640625 -32.875 C 32.703125 -31.269531 33.734375 -28.671875 33.734375 -25.078125 C 33.734375 -23.046875 33.320312 -21.289062 32.5 -19.8125 C 31.6875 -18.332031 30.523438 -17.304688 29.015625 -16.734375 L 29.0625 -16.28125 C 31.96875 -15.820312 33.421875 -14.035156 33.421875 -10.921875 L 33.421875 -7.4375 L 35.546875 -7.4375 L 35.546875 0 L 21.171875 0 L 21.171875 -10.65625 C 21.171875 -11.832031 20.992188 -12.722656 20.640625 -13.328125 C 20.296875 -13.929688 19.753906 -14.335938 19.015625 -14.546875 C 18.273438 -14.765625 17.226562 -14.875 15.875 -14.875 L 15.875 -7.4375 L 18.859375 -7.4375 L 18.859375 0 L 0.90625 0 Z M 18.3125 -20.40625 C 19.195312 -20.40625 19.859375 -20.640625 20.296875 -21.109375 C 20.734375 -21.578125 20.953125 -22.3125 20.953125 -23.3125 L 20.953125 -24.9375 C 20.953125 -25.9375 20.734375 -26.671875 20.296875 -27.140625 C 19.859375 -27.609375 19.195312 -27.84375 18.3125 -27.84375 L 15.875 -27.84375 L 15.875 -20.40625 Z M 18.3125 -20.40625 "/></g></g></g><g fill="#cb7a35" fill-opacity="0.4"><g transform="translate(316.266798, 49.687282)"><g><path d="M 1.625 -24.84375 L 3.578125 -29.46875 L 1.359375 -29.46875 L 1.359375 -35.28125 L 7.703125 -35.28125 L 7.703125 -29.46875 L 4.671875 -24.84375 Z M 1.625 -24.84375 "/></g></g></g><g fill="#cb7a35" fill-opacity="0.4"><g transform="translate(326.696438, 49.687282)"><g><path d="M 14.96875 0.640625 C 12.0625 0.640625 9.316406 0.390625 6.734375 -0.109375 C 4.148438 -0.609375 2.160156 -1.175781 0.765625 -1.8125 L 0.765625 -10.796875 L 10.75 -10.796875 C 10.75 -9.859375 10.957031 -9.175781 11.375 -8.75 C 11.800781 -8.320312 12.570312 -8.109375 13.6875 -8.109375 C 14.625 -8.109375 15.296875 -8.253906 15.703125 -8.546875 C 16.117188 -8.835938 16.328125 -9.269531 16.328125 -9.84375 C 16.328125 -10.320312 16.128906 -10.734375 15.734375 -11.078125 C 15.335938 -11.429688 14.65625 -11.789062 13.6875 -12.15625 L 9.796875 -13.515625 C 6.441406 -14.785156 4.03125 -16.28125 2.5625 -18 C 1.09375 -19.726562 0.359375 -22.054688 0.359375 -24.984375 C 0.359375 -28.546875 1.53125 -31.253906 3.875 -33.109375 C 6.21875 -34.972656 10.125 -35.90625 15.59375 -35.90625 C 18.226562 -35.90625 20.703125 -35.640625 23.015625 -35.109375 C 25.328125 -34.585938 27.191406 -33.890625 28.609375 -33.015625 L 28.609375 -24.890625 L 19.546875 -24.890625 C 19.546875 -26.398438 18.609375 -27.15625 16.734375 -27.15625 C 15.828125 -27.15625 15.179688 -27.039062 14.796875 -26.8125 C 14.421875 -26.59375 14.234375 -26.195312 14.234375 -25.625 C 14.234375 -25.101562 14.453125 -24.691406 14.890625 -24.390625 C 15.328125 -24.085938 16.046875 -23.769531 17.046875 -23.4375 L 21 -22.078125 C 24.195312 -20.992188 26.53125 -19.582031 28 -17.84375 C 29.46875 -16.101562 30.203125 -13.828125 30.203125 -11.015625 C 30.203125 -7.179688 28.90625 -4.28125 26.3125 -2.3125 C 23.726562 -0.34375 19.945312 0.640625 14.96875 0.640625 Z M 14.96875 0.640625 "/></g></g></g><g fill="#cb7a35" fill-opacity="0.4"><g transform="translate(358.167632, 49.687282)"><g/></g></g><g fill="#cb7a35" fill-opacity="0.4"><g transform="translate(63.302383, 91.059707)"><g><path d="M 17.953125 0.640625 C 12.421875 0.640625 8.148438 -0.8125 5.140625 -3.71875 C 2.140625 -6.625 0.640625 -11.265625 0.640625 -17.640625 C 0.640625 -24.015625 2.140625 -28.648438 5.140625 -31.546875 C 8.148438 -34.453125 12.421875 -35.90625 17.953125 -35.90625 C 23.484375 -35.90625 27.753906 -34.453125 30.765625 -31.546875 C 33.773438 -28.648438 35.28125 -24.015625 35.28125 -17.640625 C 35.28125 -11.265625 33.773438 -6.625 30.765625 -3.71875 C 27.753906 -0.8125 23.484375 0.640625 17.953125 0.640625 Z M 17.953125 -7.4375 C 18.984375 -7.4375 19.753906 -7.707031 20.265625 -8.25 C 20.785156 -8.789062 21.046875 -9.640625 21.046875 -10.796875 L 21.046875 -24.484375 C 21.046875 -25.628906 20.785156 -26.472656 20.265625 -27.015625 C 19.753906 -27.566406 18.984375 -27.84375 17.953125 -27.84375 C 16.929688 -27.84375 16.160156 -27.566406 15.640625 -27.015625 C 15.128906 -26.472656 14.875 -25.628906 14.875 -24.484375 L 14.875 -10.796875 C 14.875 -9.609375 15.128906 -8.75 15.640625 -8.21875 C 16.160156 -7.695312 16.929688 -7.4375 17.953125 -7.4375 Z M 17.953125 -7.4375 "/></g></g></g><g fill="#cb7a35" fill-opacity="0.4"><g transform="translate(100.123193, 91.059707)"><g><path d="M 17.859375 0.640625 C 13.117188 0.640625 9.457031 -0.398438 6.875 -2.484375 C 4.289062 -4.578125 3 -7.96875 3 -12.65625 L 3 -27.84375 L 0.71875 -27.84375 L 0.71875 -35.28125 L 17.5 -35.28125 L 17.5 -27.84375 L 15.6875 -27.84375 L 15.6875 -10.34375 C 15.6875 -9.34375 15.90625 -8.609375 16.34375 -8.140625 C 16.78125 -7.671875 17.4375 -7.4375 18.3125 -7.4375 C 19.195312 -7.4375 19.859375 -7.671875 20.296875 -8.140625 C 20.734375 -8.609375 20.953125 -9.34375 20.953125 -10.34375 L 20.953125 -27.84375 L 19.140625 -27.84375 L 19.140625 -35.28125 L 34.6875 -35.28125 L 34.6875 -27.84375 L 32.421875 -27.84375 L 32.421875 -12.65625 C 32.421875 -7.96875 31.164062 -4.578125 28.65625 -2.484375 C 26.144531 -0.398438 22.546875 0.640625 17.859375 0.640625 Z M 17.859375 0.640625 "/></g></g></g><g fill="#cb7a35" fill-opacity="0.4"><g transform="translate(136.445204, 91.059707)"><g><path d="M 34.734375 -24.296875 L 26.9375 -24.296875 L 26.9375 -27.84375 L 24.03125 -27.84375 L 24.03125 -7.4375 L 27.203125 -7.4375 L 27.203125 0 L 8.15625 0 L 8.15625 -7.4375 L 11.328125 -7.4375 L 11.328125 -27.84375 L 8.4375 -27.84375 L 8.4375 -24.296875 L 0.640625 -24.296875 L 0.640625 -35.28125 L 34.734375 -35.28125 Z M 34.734375 -24.296875 "/></g></g></g><g fill="#cb7a35" fill-opacity="0.4"><g transform="translate(172.72187, 91.059707)"><g><path d="M 0.90625 -7.4375 L 3.171875 -7.4375 L 3.171875 -27.84375 L 0.90625 -27.84375 L 0.90625 -35.28125 L 20.8125 -35.28125 C 24.707031 -35.28125 27.679688 -34.441406 29.734375 -32.765625 C 31.796875 -31.085938 32.828125 -28.375 32.828125 -24.625 C 32.828125 -20.875 31.796875 -18.160156 29.734375 -16.484375 C 27.679688 -14.804688 24.707031 -13.96875 20.8125 -13.96875 L 15.875 -13.96875 L 15.875 -7.4375 L 20.21875 -7.4375 L 20.21875 0 L 0.90625 0 Z M 17.40625 -20.40625 C 19.164062 -20.40625 20.046875 -21.375 20.046875 -23.3125 L 20.046875 -24.9375 C 20.046875 -25.9375 19.828125 -26.671875 19.390625 -27.140625 C 18.953125 -27.609375 18.289062 -27.84375 17.40625 -27.84375 L 15.875 -27.84375 L 15.875 -20.40625 Z M 17.40625 -20.40625 "/></g></g></g><g fill="#cb7a35" fill-opacity="0.4"><g transform="translate(207.094017, 91.059707)"><g><path d="M 17.953125 0.640625 C 12.421875 0.640625 8.148438 -0.8125 5.140625 -3.71875 C 2.140625 -6.625 0.640625 -11.265625 0.640625 -17.640625 C 0.640625 -24.015625 2.140625 -28.648438 5.140625 -31.546875 C 8.148438 -34.453125 12.421875 -35.90625 17.953125 -35.90625 C 23.484375 -35.90625 27.753906 -34.453125 30.765625 -31.546875 C 33.773438 -28.648438 35.28125 -24.015625 35.28125 -17.640625 C 35.28125 -11.265625 33.773438 -6.625 30.765625 -3.71875 C 27.753906 -0.8125 23.484375 0.640625 17.953125 0.640625 Z M 17.953125 -7.4375 C 18.984375 -7.4375 19.753906 -7.707031 20.265625 -8.25 C 20.785156 -8.789062 21.046875 -9.640625 21.046875 -10.796875 L 21.046875 -24.484375 C 21.046875 -25.628906 20.785156 -26.472656 20.265625 -27.015625 C 19.753906 -27.566406 18.984375 -27.84375 17.953125 -27.84375 C 16.929688 -27.84375 16.160156 -27.566406 15.640625 -27.015625 C 15.128906 -26.472656 14.875 -25.628906 14.875 -24.484375 L 14.875 -10.796875 C 14.875 -9.609375 15.128906 -8.75 15.640625 -8.21875 C 16.160156 -7.695312 16.929688 -7.4375 17.953125 -7.4375 Z M 17.953125 -7.4375 "/></g></g></g><g fill="#cb7a35" fill-opacity="0.4"><g transform="translate(243.914819, 91.059707)"><g><path d="M 14.96875 0.640625 C 12.0625 0.640625 9.316406 0.390625 6.734375 -0.109375 C 4.148438 -0.609375 2.160156 -1.175781 0.765625 -1.8125 L 0.765625 -10.796875 L 10.75 -10.796875 C 10.75 -9.859375 10.957031 -9.175781 11.375 -8.75 C 11.800781 -8.320312 12.570312 -8.109375 13.6875 -8.109375 C 14.625 -8.109375 15.296875 -8.253906 15.703125 -8.546875 C 16.117188 -8.835938 16.328125 -9.269531 16.328125 -9.84375 C 16.328125 -10.320312 16.128906 -10.734375 15.734375 -11.078125 C 15.335938 -11.429688 14.65625 -11.789062 13.6875 -12.15625 L 9.796875 -13.515625 C 6.441406 -14.785156 4.03125 -16.28125 2.5625 -18 C 1.09375 -19.726562 0.359375 -22.054688 0.359375 -24.984375 C 0.359375 -28.546875 1.53125 -31.253906 3.875 -33.109375 C 6.21875 -34.972656 10.125 -35.90625 15.59375 -35.90625 C 18.226562 -35.90625 20.703125 -35.640625 23.015625 -35.109375 C 25.328125 -34.585938 27.191406 -33.890625 28.609375 -33.015625 L 28.609375 -24.890625 L 19.546875 -24.890625 C 19.546875 -26.398438 18.609375 -27.15625 16.734375 -27.15625 C 15.828125 -27.15625 15.179688 -27.039062 14.796875 -26.8125 C 14.421875 -26.59375 14.234375 -26.195312 14.234375 -25.625 C 14.234375 -25.101562 14.453125 -24.691406 14.890625 -24.390625 C 15.328125 -24.085938 16.046875 -23.769531 17.046875 -23.4375 L 21 -22.078125 C 24.195312 -20.992188 26.53125 -19.582031 28 -17.84375 C 29.46875 -16.101562 30.203125 -13.828125 30.203125 -11.015625 C 30.203125 -7.179688 28.90625 -4.28125 26.3125 -2.3125 C 23.726562 -0.34375 19.945312 0.640625 14.96875 0.640625 Z M 14.96875 0.640625 "/></g></g></g><g fill="#cb7a35" fill-opacity="0.4"><g transform="translate(275.384842, 91.059707)"><g><path d="M 34.734375 -24.296875 L 26.9375 -24.296875 L 26.9375 -27.84375 L 24.03125 -27.84375 L 24.03125 -7.4375 L 27.203125 -7.4375 L 27.203125 0 L 8.15625 0 L 8.15625 -7.4375 L 11.328125 -7.4375 L 11.328125 -27.84375 L 8.4375 -27.84375 L 8.4375 -24.296875 L 0.640625 -24.296875 L 0.640625 -35.28125 L 34.734375 -35.28125 Z M 34.734375 -24.296875 "/></g></g></g><g clip-path="url(#efdff0e59f)"><g fill="#cb7a35" fill-opacity="1"><g transform="translate(0.287975, 47.683009)"><g><path d="M 17.953125 0.640625 C 12.421875 0.640625 8.148438 -0.8125 5.140625 -3.71875 C 2.140625 -6.625 0.640625 -11.265625 0.640625 -17.640625 C 0.640625 -24.015625 2.140625 -28.648438 5.140625 -31.546875 C 8.148438 -34.453125 12.421875 -35.90625 17.953125 -35.90625 C 23.484375 -35.90625 27.753906 -34.453125 30.765625 -31.546875 C 33.773438 -28.648438 35.28125 -24.015625 35.28125 -17.640625 C 35.28125 -11.265625 33.773438 -6.625 30.765625 -3.71875 C 27.753906 -0.8125 23.484375 0.640625 17.953125 0.640625 Z M 17.953125 -7.4375 C 18.984375 -7.4375 19.753906 -7.707031 20.265625 -8.25 C 20.785156 -8.789062 21.046875 -9.640625 21.046875 -10.796875 L 21.046875 -24.484375 C 21.046875 -25.628906 20.785156 -26.472656 20.265625 -27.015625 C 19.753906 -27.566406 18.984375 -27.84375 17.953125 -27.84375 C 16.929688 -27.84375 16.160156 -27.566406 15.640625 -27.015625 C 15.128906 -26.472656 14.875 -25.628906 14.875 -24.484375 L 14.875 -10.796875 C 14.875 -9.609375 15.128906 -8.75 15.640625 -8.21875 C 16.160156 -7.695312 16.929688 -7.4375 17.953125 -7.4375 Z M 17.953125 -7.4375 "/></g></g></g></g><g fill="#cb7a35" fill-opacity="1"><g transform="translate(37.108784, 47.683009)"><g><path d="M 0.90625 -7.4375 L 3.171875 -7.4375 L 3.171875 -27.84375 L 0.90625 -27.84375 L 0.90625 -35.28125 L 21.71875 -35.28125 C 25.613281 -35.28125 28.585938 -34.476562 30.640625 -32.875 C 32.703125 -31.269531 33.734375 -28.671875 33.734375 -25.078125 C 33.734375 -23.046875 33.320312 -21.289062 32.5 -19.8125 C 31.6875 -18.332031 30.523438 -17.304688 29.015625 -16.734375 L 29.0625 -16.28125 C 31.96875 -15.820312 33.421875 -14.035156 33.421875 -10.921875 L 33.421875 -7.4375 L 35.546875 -7.4375 L 35.546875 0 L 21.171875 0 L 21.171875 -10.65625 C 21.171875 -11.832031 20.992188 -12.722656 20.640625 -13.328125 C 20.296875 -13.929688 19.753906 -14.335938 19.015625 -14.546875 C 18.273438 -14.765625 17.226562 -14.875 15.875 -14.875 L 15.875 -7.4375 L 18.859375 -7.4375 L 18.859375 0 L 0.90625 0 Z M 18.3125 -20.40625 C 19.195312 -20.40625 19.859375 -20.640625 20.296875 -21.109375 C 20.734375 -21.578125 20.953125 -22.3125 20.953125 -23.3125 L 20.953125 -24.9375 C 20.953125 -25.9375 20.734375 -26.671875 20.296875 -27.140625 C 19.859375 -27.609375 19.195312 -27.84375 18.3125 -27.84375 L 15.875 -27.84375 L 15.875 -20.40625 Z M 18.3125 -20.40625 "/></g></g></g><g fill="#cb7a35" fill-opacity="1"><g transform="translate(74.292364, 47.683009)"><g><path d="M 35.09375 -11.328125 L 32.828125 -11.328125 L 32.828125 -2.265625 C 31.492188 -1.515625 29.550781 -0.84375 27 -0.25 C 24.445312 0.34375 21.691406 0.640625 18.734375 0.640625 C 13.078125 0.640625 8.644531 -0.847656 5.4375 -3.828125 C 2.238281 -6.804688 0.640625 -11.410156 0.640625 -17.640625 C 0.640625 -24.015625 2.234375 -28.648438 5.421875 -31.546875 C 8.609375 -34.453125 13.164062 -35.90625 19.09375 -35.90625 C 21.957031 -35.90625 24.644531 -35.601562 27.15625 -35 C 29.664062 -34.394531 31.554688 -33.71875 32.828125 -32.96875 L 32.828125 -22.125 L 21.5 -22.125 L 21.5 -24.265625 C 21.5 -25.523438 21.234375 -26.4375 20.703125 -27 C 20.171875 -27.5625 19.332031 -27.84375 18.1875 -27.84375 C 17.03125 -27.84375 16.1875 -27.5625 15.65625 -27 C 15.132812 -26.4375 14.875 -25.523438 14.875 -24.265625 L 14.875 -11.015625 C 14.875 -9.742188 15.132812 -8.828125 15.65625 -8.265625 C 16.1875 -7.710938 17.03125 -7.4375 18.1875 -7.4375 C 19.332031 -7.4375 20.171875 -7.710938 20.703125 -8.265625 C 21.234375 -8.828125 21.5 -9.742188 21.5 -11.015625 L 21.5 -11.328125 L 19.046875 -11.328125 L 19.046875 -18.09375 L 35.09375 -18.09375 Z M 35.09375 -11.328125 "/></g></g></g><g fill="#cb7a35" fill-opacity="1"><g transform="translate(110.659721, 47.683009)"><g><path d="M 34.1875 -7.4375 L 36 -7.4375 L 36 0 L 18.234375 0 L 18.234375 -7.4375 L 20.953125 -7.4375 L 20.21875 -11.0625 L 14.0625 -11.0625 L 13.328125 -7.4375 L 16.046875 -7.4375 L 16.046875 0 L 0.546875 0 L 0.546875 -7.4375 L 2.359375 -7.4375 L 10.015625 -35.28125 L 26.53125 -35.28125 Z M 15.046875 -15.875 L 19.21875 -15.875 L 17.359375 -24.890625 L 16.90625 -24.890625 Z M 15.046875 -15.875 "/></g></g></g><g fill="#cb7a35" fill-opacity="1"><g transform="translate(148.115373, 47.683009)"><g><path d="M 27.03125 -35.28125 L 41.890625 -35.28125 L 41.890625 -27.84375 L 39.625 -27.84375 L 39.625 0 L 26.890625 0 L 13.609375 -20.453125 L 13.609375 -7.4375 L 15.78125 -7.4375 L 15.78125 0 L 0.90625 0 L 0.90625 -7.4375 L 3.171875 -7.4375 L 3.171875 -27.84375 L 0.90625 -27.84375 L 0.90625 -35.28125 L 17.28125 -35.28125 L 29.203125 -17.09375 L 29.203125 -27.84375 L 27.03125 -27.84375 Z M 27.03125 -35.28125 "/></g></g></g><g fill="#cb7a35" fill-opacity="1"><g transform="translate(191.738035, 47.683009)"><g><path d="M 0.90625 0 L 0.90625 -7.4375 L 3.171875 -7.4375 L 3.171875 -27.84375 L 0.90625 -27.84375 L 0.90625 -35.28125 L 18.140625 -35.28125 L 18.140625 -27.84375 L 15.875 -27.84375 L 15.875 -7.4375 L 18.140625 -7.4375 L 18.140625 0 Z M 0.90625 0 "/></g></g></g><g fill="#cb7a35" fill-opacity="1"><g transform="translate(211.690254, 47.683009)"><g><path d="M 21.578125 -11.15625 L 30.609375 -11.15625 L 30.609375 0 L 0.640625 0 L 0.640625 -6.53125 L 14.59375 -27.84375 L 9.890625 -27.84375 L 9.890625 -24.125 L 0.859375 -24.125 L 0.859375 -35.28125 L 29.875 -35.28125 L 29.875 -28.75 L 15.96875 -7.4375 L 21.578125 -7.4375 Z M 21.578125 -11.15625 "/></g></g></g><g fill="#cb7a35" fill-opacity="1"><g transform="translate(243.840457, 47.683009)"><g><path d="M 0.90625 0 L 0.90625 -7.4375 L 3.171875 -7.4375 L 3.171875 -27.84375 L 0.90625 -27.84375 L 0.90625 -35.28125 L 31.515625 -35.28125 L 31.515625 -21.578125 L 21.359375 -21.578125 L 21.359375 -27.84375 L 15.875 -27.84375 L 15.875 -20.671875 L 19.859375 -20.671875 L 19.859375 -15.5 L 15.875 -15.5 L 15.875 -7.4375 L 21.359375 -7.4375 L 21.359375 -14.59375 L 31.515625 -14.59375 L 31.515625 0 Z M 0.90625 0 "/></g></g></g><g fill="#cb7a35" fill-opacity="1"><g transform="translate(277.078963, 47.683009)"><g><path d="M 0.90625 -7.4375 L 3.171875 -7.4375 L 3.171875 -27.84375 L 0.90625 -27.84375 L 0.90625 -35.28125 L 21.71875 -35.28125 C 25.613281 -35.28125 28.585938 -34.476562 30.640625 -32.875 C 32.703125 -31.269531 33.734375 -28.671875 33.734375 -25.078125 C 33.734375 -23.046875 33.320312 -21.289062 32.5 -19.8125 C 31.6875 -18.332031 30.523438 -17.304688 29.015625 -16.734375 L 29.0625 -16.28125 C 31.96875 -15.820312 33.421875 -14.035156 33.421875 -10.921875 L 33.421875 -7.4375 L 35.546875 -7.4375 L 35.546875 0 L 21.171875 0 L 21.171875 -10.65625 C 21.171875 -11.832031 20.992188 -12.722656 20.640625 -13.328125 C 20.296875 -13.929688 19.753906 -14.335938 19.015625 -14.546875 C 18.273438 -14.765625 17.226562 -14.875 15.875 -14.875 L 15.875 -7.4375 L 18.859375 -7.4375 L 18.859375 0 L 0.90625 0 Z M 18.3125 -20.40625 C 19.195312 -20.40625 19.859375 -20.640625 20.296875 -21.109375 C 20.734375 -21.578125 20.953125 -22.3125 20.953125 -23.3125 L 20.953125 -24.9375 C 20.953125 -25.9375 20.734375 -26.671875 20.296875 -27.140625 C 19.859375 -27.609375 19.195312 -27.84375 18.3125 -27.84375 L 15.875 -27.84375 L 15.875 -20.40625 Z M 18.3125 -20.40625 "/></g></g></g><g fill="#cb7a35" fill-opacity="1"><g transform="translate(314.262528, 47.683009)"><g><path d="M 1.625 -24.84375 L 3.578125 -29.46875 L 1.359375 -29.46875 L 1.359375 -35.28125 L 7.703125 -35.28125 L 7.703125 -29.46875 L 4.671875 -24.84375 Z M 1.625 -24.84375 "/></g></g></g><g fill="#cb7a35" fill-opacity="1"><g transform="translate(324.692167, 47.683009)"><g><path d="M 14.96875 0.640625 C 12.0625 0.640625 9.316406 0.390625 6.734375 -0.109375 C 4.148438 -0.609375 2.160156 -1.175781 0.765625 -1.8125 L 0.765625 -10.796875 L 10.75 -10.796875 C 10.75 -9.859375 10.957031 -9.175781 11.375 -8.75 C 11.800781 -8.320312 12.570312 -8.109375 13.6875 -8.109375 C 14.625 -8.109375 15.296875 -8.253906 15.703125 -8.546875 C 16.117188 -8.835938 16.328125 -9.269531 16.328125 -9.84375 C 16.328125 -10.320312 16.128906 -10.734375 15.734375 -11.078125 C 15.335938 -11.429688 14.65625 -11.789062 13.6875 -12.15625 L 9.796875 -13.515625 C 6.441406 -14.785156 4.03125 -16.28125 2.5625 -18 C 1.09375 -19.726562 0.359375 -22.054688 0.359375 -24.984375 C 0.359375 -28.546875 1.53125 -31.253906 3.875 -33.109375 C 6.21875 -34.972656 10.125 -35.90625 15.59375 -35.90625 C 18.226562 -35.90625 20.703125 -35.640625 23.015625 -35.109375 C 25.328125 -34.585938 27.191406 -33.890625 28.609375 -33.015625 L 28.609375 -24.890625 L 19.546875 -24.890625 C 19.546875 -26.398438 18.609375 -27.15625 16.734375 -27.15625 C 15.828125 -27.15625 15.179688 -27.039062 14.796875 -26.8125 C 14.421875 -26.59375 14.234375 -26.195312 14.234375 -25.625 C 14.234375 -25.101562 14.453125 -24.691406 14.890625 -24.390625 C 15.328125 -24.085938 16.046875 -23.769531 17.046875 -23.4375 L 21 -22.078125 C 24.195312 -20.992188 26.53125 -19.582031 28 -17.84375 C 29.46875 -16.101562 30.203125 -13.828125 30.203125 -11.015625 C 30.203125 -7.179688 28.90625 -4.28125 26.3125 -2.3125 C 23.726562 -0.34375 19.945312 0.640625 14.96875 0.640625 Z M 14.96875 0.640625 "/></g></g></g><g fill="#cb7a35" fill-opacity="1"><g transform="translate(356.163361, 47.683009)"><g/></g></g><g fill="#cb7a35" fill-opacity="1"><g transform="translate(61.298112, 89.055435)"><g><path d="M 17.953125 0.640625 C 12.421875 0.640625 8.148438 -0.8125 5.140625 -3.71875 C 2.140625 -6.625 0.640625 -11.265625 0.640625 -17.640625 C 0.640625 -24.015625 2.140625 -28.648438 5.140625 -31.546875 C 8.148438 -34.453125 12.421875 -35.90625 17.953125 -35.90625 C 23.484375 -35.90625 27.753906 -34.453125 30.765625 -31.546875 C 33.773438 -28.648438 35.28125 -24.015625 35.28125 -17.640625 C 35.28125 -11.265625 33.773438 -6.625 30.765625 -3.71875 C 27.753906 -0.8125 23.484375 0.640625 17.953125 0.640625 Z M 17.953125 -7.4375 C 18.984375 -7.4375 19.753906 -7.707031 20.265625 -8.25 C 20.785156 -8.789062 21.046875 -9.640625 21.046875 -10.796875 L 21.046875 -24.484375 C 21.046875 -25.628906 20.785156 -26.472656 20.265625 -27.015625 C 19.753906 -27.566406 18.984375 -27.84375 17.953125 -27.84375 C 16.929688 -27.84375 16.160156 -27.566406 15.640625 -27.015625 C 15.128906 -26.472656 14.875 -25.628906 14.875 -24.484375 L 14.875 -10.796875 C 14.875 -9.609375 15.128906 -8.75 15.640625 -8.21875 C 16.160156 -7.695312 16.929688 -7.4375 17.953125 -7.4375 Z M 17.953125 -7.4375 "/></g></g></g><g fill="#cb7a35" fill-opacity="1"><g transform="translate(98.118922, 89.055435)"><g><path d="M 17.859375 0.640625 C 13.117188 0.640625 9.457031 -0.398438 6.875 -2.484375 C 4.289062 -4.578125 3 -7.96875 3 -12.65625 L 3 -27.84375 L 0.71875 -27.84375 L 0.71875 -35.28125 L 17.5 -35.28125 L 17.5 -27.84375 L 15.6875 -27.84375 L 15.6875 -10.34375 C 15.6875 -9.34375 15.90625 -8.609375 16.34375 -8.140625 C 16.78125 -7.671875 17.4375 -7.4375 18.3125 -7.4375 C 19.195312 -7.4375 19.859375 -7.671875 20.296875 -8.140625 C 20.734375 -8.609375 20.953125 -9.34375 20.953125 -10.34375 L 20.953125 -27.84375 L 19.140625 -27.84375 L 19.140625 -35.28125 L 34.6875 -35.28125 L 34.6875 -27.84375 L 32.421875 -27.84375 L 32.421875 -12.65625 C 32.421875 -7.96875 31.164062 -4.578125 28.65625 -2.484375 C 26.144531 -0.398438 22.546875 0.640625 17.859375 0.640625 Z M 17.859375 0.640625 "/></g></g></g><g fill="#cb7a35" fill-opacity="1"><g transform="translate(134.440933, 89.055435)"><g><path d="M 34.734375 -24.296875 L 26.9375 -24.296875 L 26.9375 -27.84375 L 24.03125 -27.84375 L 24.03125 -7.4375 L 27.203125 -7.4375 L 27.203125 0 L 8.15625 0 L 8.15625 -7.4375 L 11.328125 -7.4375 L 11.328125 -27.84375 L 8.4375 -27.84375 L 8.4375 -24.296875 L 0.640625 -24.296875 L 0.640625 -35.28125 L 34.734375 -35.28125 Z M 34.734375 -24.296875 "/></g></g></g><g fill="#cb7a35" fill-opacity="1"><g transform="translate(170.717599, 89.055435)"><g><path d="M 0.90625 -7.4375 L 3.171875 -7.4375 L 3.171875 -27.84375 L 0.90625 -27.84375 L 0.90625 -35.28125 L 20.8125 -35.28125 C 24.707031 -35.28125 27.679688 -34.441406 29.734375 -32.765625 C 31.796875 -31.085938 32.828125 -28.375 32.828125 -24.625 C 32.828125 -20.875 31.796875 -18.160156 29.734375 -16.484375 C 27.679688 -14.804688 24.707031 -13.96875 20.8125 -13.96875 L 15.875 -13.96875 L 15.875 -7.4375 L 20.21875 -7.4375 L 20.21875 0 L 0.90625 0 Z M 17.40625 -20.40625 C 19.164062 -20.40625 20.046875 -21.375 20.046875 -23.3125 L 20.046875 -24.9375 C 20.046875 -25.9375 19.828125 -26.671875 19.390625 -27.140625 C 18.953125 -27.609375 18.289062 -27.84375 17.40625 -27.84375 L 15.875 -27.84375 L 15.875 -20.40625 Z M 17.40625 -20.40625 "/></g></g></g><g fill="#cb7a35" fill-opacity="1"><g transform="translate(205.089746, 89.055435)"><g><path d="M 17.953125 0.640625 C 12.421875 0.640625 8.148438 -0.8125 5.140625 -3.71875 C 2.140625 -6.625 0.640625 -11.265625 0.640625 -17.640625 C 0.640625 -24.015625 2.140625 -28.648438 5.140625 -31.546875 C 8.148438 -34.453125 12.421875 -35.90625 17.953125 -35.90625 C 23.484375 -35.90625 27.753906 -34.453125 30.765625 -31.546875 C 33.773438 -28.648438 35.28125 -24.015625 35.28125 -17.640625 C 35.28125 -11.265625 33.773438 -6.625 30.765625 -3.71875 C 27.753906 -0.8125 23.484375 0.640625 17.953125 0.640625 Z M 17.953125 -7.4375 C 18.984375 -7.4375 19.753906 -7.707031 20.265625 -8.25 C 20.785156 -8.789062 21.046875 -9.640625 21.046875 -10.796875 L 21.046875 -24.484375 C 21.046875 -25.628906 20.785156 -26.472656 20.265625 -27.015625 C 19.753906 -27.566406 18.984375 -27.84375 17.953125 -27.84375 C 16.929688 -27.84375 16.160156 -27.566406 15.640625 -27.015625 C 15.128906 -26.472656 14.875 -25.628906 14.875 -24.484375 L 14.875 -10.796875 C 14.875 -9.609375 15.128906 -8.75 15.640625 -8.21875 C 16.160156 -7.695312 16.929688 -7.4375 17.953125 -7.4375 Z M 17.953125 -7.4375 "/></g></g></g><g fill="#cb7a35" fill-opacity="1"><g transform="translate(241.910548, 89.055435)"><g><path d="M 14.96875 0.640625 C 12.0625 0.640625 9.316406 0.390625 6.734375 -0.109375 C 4.148438 -0.609375 2.160156 -1.175781 0.765625 -1.8125 L 0.765625 -10.796875 L 10.75 -10.796875 C 10.75 -9.859375 10.957031 -9.175781 11.375 -8.75 C 11.800781 -8.320312 12.570312 -8.109375 13.6875 -8.109375 C 14.625 -8.109375 15.296875 -8.253906 15.703125 -8.546875 C 16.117188 -8.835938 16.328125 -9.269531 16.328125 -9.84375 C 16.328125 -10.320312 16.128906 -10.734375 15.734375 -11.078125 C 15.335938 -11.429688 14.65625 -11.789062 13.6875 -12.15625 L 9.796875 -13.515625 C 6.441406 -14.785156 4.03125 -16.28125 2.5625 -18 C 1.09375 -19.726562 0.359375 -22.054688 0.359375 -24.984375 C 0.359375 -28.546875 1.53125 -31.253906 3.875 -33.109375 C 6.21875 -34.972656 10.125 -35.90625 15.59375 -35.90625 C 18.226562 -35.90625 20.703125 -35.640625 23.015625 -35.109375 C 25.328125 -34.585938 27.191406 -33.890625 28.609375 -33.015625 L 28.609375 -24.890625 L 19.546875 -24.890625 C 19.546875 -26.398438 18.609375 -27.15625 16.734375 -27.15625 C 15.828125 -27.15625 15.179688 -27.039062 14.796875 -26.8125 C 14.421875 -26.59375 14.234375 -26.195312 14.234375 -25.625 C 14.234375 -25.101562 14.453125 -24.691406 14.890625 -24.390625 C 15.328125 -24.085938 16.046875 -23.769531 17.046875 -23.4375 L 21 -22.078125 C 24.195312 -20.992188 26.53125 -19.582031 28 -17.84375 C 29.46875 -16.101562 30.203125 -13.828125 30.203125 -11.015625 C 30.203125 -7.179688 28.90625 -4.28125 26.3125 -2.3125 C 23.726562 -0.34375 19.945312 0.640625 14.96875 0.640625 Z M 14.96875 0.640625 "/></g></g></g><g fill="#cb7a35" fill-opacity="1"><g transform="translate(273.380571, 89.055435)"><g><path d="M 34.734375 -24.296875 L 26.9375 -24.296875 L 26.9375 -27.84375 L 24.03125 -27.84375 L 24.03125 -7.4375 L 27.203125 -7.4375 L 27.203125 0 L 8.15625 0 L 8.15625 -7.4375 L 11.328125 -7.4375 L 11.328125 -27.84375 L 8.4375 -27.84375 L 8.4375 -24.296875 L 0.640625 -24.296875 L 0.640625 -35.28125 L 34.734375 -35.28125 Z M 34.734375 -24.296875 "/></g></g></g></g></g></svg>