<svg xmlns="http://www.w3.org/2000/svg" xmlns:xlink="http://www.w3.org/1999/xlink" width="212" zoomAndPan="magnify" viewBox="0 0 159 343.499995" height="458" preserveAspectRatio="xMidYMid meet" version="1.0"><defs><clipPath id="684f6cf648"><path d="M 138 28 L 158.882812 28 L 158.882812 342.25 L 138 342.25 Z M 138 28 " clip-rule="nonzero"/></clipPath><clipPath id="7c7bbac25a"><path d="M -165.03125 -0.566406 L 159.246094 0 L 158.648438 343 L -165.628906 342.433594 Z M -165.03125 -0.566406 " clip-rule="nonzero"/></clipPath><clipPath id="f55c63eedc"><path d="M -165.03125 -0.566406 L 159.246094 0 L 158.648438 343 L -165.628906 342.433594 Z M -165.03125 -0.566406 " clip-rule="nonzero"/></clipPath><clipPath id="a31a7e9f3b"><path d="M 138 26 L 158.882812 26 L 158.882812 31 L 138 31 Z M 138 26 " clip-rule="nonzero"/></clipPath><clipPath id="fde8f1daa8"><path d="M -165.03125 -0.566406 L 159.246094 0 L 158.648438 343 L -165.628906 342.433594 Z M -165.03125 -0.566406 " clip-rule="nonzero"/></clipPath><clipPath id="52a3ea60f3"><path d="M -165.03125 -0.566406 L 159.246094 0 L 158.648438 343 L -165.628906 342.433594 Z M -165.03125 -0.566406 " clip-rule="nonzero"/></clipPath><clipPath id="da092c2c1f"><path d="M 139 27 L 158.882812 27 L 158.882812 32 L 139 32 Z M 139 27 " clip-rule="nonzero"/></clipPath><clipPath id="ab9bba21f8"><path d="M -165.03125 -0.566406 L 159.246094 0 L 158.648438 343 L -165.628906 342.433594 Z M -165.03125 -0.566406 " clip-rule="nonzero"/></clipPath><clipPath id="c3421d203b"><path d="M -165.03125 -0.566406 L 159.246094 0 L 158.648438 343 L -165.628906 342.433594 Z M -165.03125 -0.566406 " clip-rule="nonzero"/></clipPath><clipPath id="f7df1026e7"><path d="M 0.117188 0 L 143 0 L 143 263 L 0.117188 263 Z M 0.117188 0 " clip-rule="nonzero"/></clipPath><clipPath id="5db74d53fc"><path d="M -165.03125 -0.566406 L 159.246094 0 L 158.648438 343 L -165.628906 342.433594 Z M -165.03125 -0.566406 " clip-rule="nonzero"/></clipPath><clipPath id="9270e71f3e"><path d="M -165.03125 -0.566406 L 159.246094 0 L 158.648438 343 L -165.628906 342.433594 Z M -165.03125 -0.566406 " clip-rule="nonzero"/></clipPath><clipPath id="60fb10fa4b"><path d="M 8 21 L 131 21 L 131 251 L 8 251 Z M 8 21 " clip-rule="nonzero"/></clipPath><clipPath id="3f2cd60cff"><path d="M -165.03125 -0.566406 L 159.246094 0 L 158.648438 343 L -165.628906 342.433594 Z M -165.03125 -0.566406 " clip-rule="nonzero"/></clipPath><clipPath id="1aa5f800df"><path d="M -165.03125 -0.566406 L 159.246094 0 L 158.648438 343 L -165.628906 342.433594 Z M -165.03125 -0.566406 " clip-rule="nonzero"/></clipPath><clipPath id="bad30dc4d4"><path d="M 137 57 L 141 57 L 141 264 L 137 264 Z M 137 57 " clip-rule="nonzero"/></clipPath><clipPath id="f820604e6d"><path d="M -165.03125 -0.566406 L 159.246094 0 L 158.648438 343 L -165.628906 342.433594 Z M -165.03125 -0.566406 " clip-rule="nonzero"/></clipPath><clipPath id="3f8a262a13"><path d="M -165.03125 -0.566406 L 159.246094 0 L 158.648438 343 L -165.628906 342.433594 Z M -165.03125 -0.566406 " clip-rule="nonzero"/></clipPath><clipPath id="26caf9dcea"><path d="M 138 28 L 158.882812 28 L 158.882812 342.25 L 138 342.25 Z M 138 28 " clip-rule="nonzero"/></clipPath><clipPath id="e32efe0972"><path d="M -165.03125 -0.566406 L 159.246094 0 L 158.648438 343 L -165.628906 342.433594 Z M -165.03125 -0.566406 " clip-rule="nonzero"/></clipPath><clipPath id="aee3b03cfb"><path d="M -165.03125 -0.566406 L 159.246094 0 L 158.648438 343 L -165.628906 342.433594 Z M -165.03125 -0.566406 " clip-rule="nonzero"/></clipPath><clipPath id="78d7d813a1"><path d="M 138 26 L 158.882812 26 L 158.882812 31 L 138 31 Z M 138 26 " clip-rule="nonzero"/></clipPath><clipPath id="163af07d23"><path d="M -165.03125 -0.566406 L 159.246094 0 L 158.648438 343 L -165.628906 342.433594 Z M -165.03125 -0.566406 " clip-rule="nonzero"/></clipPath><clipPath id="dfec32b489"><path d="M -165.03125 -0.566406 L 159.246094 0 L 158.648438 343 L -165.628906 342.433594 Z M -165.03125 -0.566406 " clip-rule="nonzero"/></clipPath><clipPath id="fbeb82cd76"><path d="M 139 27 L 158.882812 27 L 158.882812 32 L 139 32 Z M 139 27 " clip-rule="nonzero"/></clipPath><clipPath id="17b670f602"><path d="M -165.03125 -0.566406 L 159.246094 0 L 158.648438 343 L -165.628906 342.433594 Z M -165.03125 -0.566406 " clip-rule="nonzero"/></clipPath><clipPath id="9f02a8c0a8"><path d="M -165.03125 -0.566406 L 159.246094 0 L 158.648438 343 L -165.628906 342.433594 Z M -165.03125 -0.566406 " clip-rule="nonzero"/></clipPath><clipPath id="3822c0b78c"><path d="M 0.117188 0 L 143 0 L 143 263 L 0.117188 263 Z M 0.117188 0 " clip-rule="nonzero"/></clipPath><clipPath id="73a60d2fd5"><path d="M -165.03125 -0.566406 L 159.246094 0 L 158.648438 343 L -165.628906 342.433594 Z M -165.03125 -0.566406 " clip-rule="nonzero"/></clipPath><clipPath id="87f4fae520"><path d="M -165.03125 -0.566406 L 159.246094 0 L 158.648438 343 L -165.628906 342.433594 Z M -165.03125 -0.566406 " clip-rule="nonzero"/></clipPath><clipPath id="685fb240f1"><path d="M 8 21 L 131 21 L 131 251 L 8 251 Z M 8 21 " clip-rule="nonzero"/></clipPath><clipPath id="f2231cc59d"><path d="M -165.03125 -0.566406 L 159.246094 0 L 158.648438 343 L -165.628906 342.433594 Z M -165.03125 -0.566406 " clip-rule="nonzero"/></clipPath><clipPath id="60bcfdd190"><path d="M -165.03125 -0.566406 L 159.246094 0 L 158.648438 343 L -165.628906 342.433594 Z M -165.03125 -0.566406 " clip-rule="nonzero"/></clipPath><clipPath id="da51ea61a6"><path d="M 8 39 L 48 39 L 48 43 L 8 43 Z M 8 39 " clip-rule="nonzero"/></clipPath><clipPath id="c3360fe4df"><path d="M -165.03125 -0.566406 L 159.246094 0 L 158.648438 343 L -165.628906 342.433594 Z M -165.03125 -0.566406 " clip-rule="nonzero"/></clipPath><clipPath id="b5918ab88d"><path d="M -165.03125 -0.566406 L 159.246094 0 L 158.648438 343 L -165.628906 342.433594 Z M -165.03125 -0.566406 " clip-rule="nonzero"/></clipPath><clipPath id="dea91ad297"><path d="M 8 88 L 131 88 L 131 92 L 8 92 Z M 8 88 " clip-rule="nonzero"/></clipPath><clipPath id="6ee8216d37"><path d="M -165.03125 -0.566406 L 159.246094 0 L 158.648438 343 L -165.628906 342.433594 Z M -165.03125 -0.566406 " clip-rule="nonzero"/></clipPath><clipPath id="324d85fdd5"><path d="M -165.03125 -0.566406 L 159.246094 0 L 158.648438 343 L -165.628906 342.433594 Z M -165.03125 -0.566406 " clip-rule="nonzero"/></clipPath><clipPath id="6d964204fc"><path d="M 8 63 L 67 63 L 67 68 L 8 68 Z M 8 63 " clip-rule="nonzero"/></clipPath><clipPath id="eccd589799"><path d="M -165.03125 -0.566406 L 159.246094 0 L 158.648438 343 L -165.628906 342.433594 Z M -165.03125 -0.566406 " clip-rule="nonzero"/></clipPath><clipPath id="4c659d0a5a"><path d="M -165.03125 -0.566406 L 159.246094 0 L 158.648438 343 L -165.628906 342.433594 Z M -165.03125 -0.566406 " clip-rule="nonzero"/></clipPath><clipPath id="c76cfb704b"><path d="M 8 113 L 131 113 L 131 118 L 8 118 Z M 8 113 " clip-rule="nonzero"/></clipPath><clipPath id="8bd2ade505"><path d="M -165.03125 -0.566406 L 159.246094 0 L 158.648438 343 L -165.628906 342.433594 Z M -165.03125 -0.566406 " clip-rule="nonzero"/></clipPath><clipPath id="2bfa28c86e"><path d="M -165.03125 -0.566406 L 159.246094 0 L 158.648438 343 L -165.628906 342.433594 Z M -165.03125 -0.566406 " clip-rule="nonzero"/></clipPath><clipPath id="f60c13ac2d"><path d="M 8 138 L 131 138 L 131 144 L 8 144 Z M 8 138 " clip-rule="nonzero"/></clipPath><clipPath id="3118a67c0a"><path d="M -165.03125 -0.566406 L 159.246094 0 L 158.648438 343 L -165.628906 342.433594 Z M -165.03125 -0.566406 " clip-rule="nonzero"/></clipPath><clipPath id="dd90abc1b3"><path d="M -165.03125 -0.566406 L 159.246094 0 L 158.648438 343 L -165.628906 342.433594 Z M -165.03125 -0.566406 " clip-rule="nonzero"/></clipPath><clipPath id="d422305df4"><path d="M 8 164 L 131 164 L 131 172 L 8 172 Z M 8 164 " clip-rule="nonzero"/></clipPath><clipPath id="4ea893e135"><path d="M -165.03125 -0.566406 L 159.246094 0 L 158.648438 343 L -165.628906 342.433594 Z M -165.03125 -0.566406 " clip-rule="nonzero"/></clipPath><clipPath id="0b45b638ed"><path d="M -165.03125 -0.566406 L 159.246094 0 L 158.648438 343 L -165.628906 342.433594 Z M -165.03125 -0.566406 " clip-rule="nonzero"/></clipPath><clipPath id="356ede60a0"><path d="M 8 192 L 131 192 L 131 198 L 8 198 Z M 8 192 " clip-rule="nonzero"/></clipPath><clipPath id="a5f9f1541b"><path d="M -165.03125 -0.566406 L 159.246094 0 L 158.648438 343 L -165.628906 342.433594 Z M -165.03125 -0.566406 " clip-rule="nonzero"/></clipPath><clipPath id="0ccad9ad46"><path d="M -165.03125 -0.566406 L 159.246094 0 L 158.648438 343 L -165.628906 342.433594 Z M -165.03125 -0.566406 " clip-rule="nonzero"/></clipPath><clipPath id="155c307514"><path d="M 8 221 L 131 221 L 131 227 L 8 227 Z M 8 221 " clip-rule="nonzero"/></clipPath><clipPath id="281b6efc1d"><path d="M -165.03125 -0.566406 L 159.246094 0 L 158.648438 343 L -165.628906 342.433594 Z M -165.03125 -0.566406 " clip-rule="nonzero"/></clipPath><clipPath id="2e28da86eb"><path d="M -165.03125 -0.566406 L 159.246094 0 L 158.648438 343 L -165.628906 342.433594 Z M -165.03125 -0.566406 " clip-rule="nonzero"/></clipPath><clipPath id="0d8e36959b"><path d="M 137 57 L 141 57 L 141 264 L 137 264 Z M 137 57 " clip-rule="nonzero"/></clipPath><clipPath id="a15e3a3837"><path d="M -165.03125 -0.566406 L 159.246094 0 L 158.648438 343 L -165.628906 342.433594 Z M -165.03125 -0.566406 " clip-rule="nonzero"/></clipPath><clipPath id="220c99edac"><path d="M -165.03125 -0.566406 L 159.246094 0 L 158.648438 343 L -165.628906 342.433594 Z M -165.03125 -0.566406 " clip-rule="nonzero"/></clipPath><clipPath id="bc0be6f885"><path d="M 38 20 L 52 20 L 52 40 L 38 40 Z M 38 20 " clip-rule="nonzero"/></clipPath><clipPath id="dc61144660"><path d="M -165.03125 -0.566406 L 159.246094 0 L 158.648438 343 L -165.628906 342.433594 Z M -165.03125 -0.566406 " clip-rule="nonzero"/></clipPath><clipPath id="af63e1adc6"><path d="M -165.03125 -0.566406 L 159.246094 0 L 158.648438 343 L -165.628906 342.433594 Z M -165.03125 -0.566406 " clip-rule="nonzero"/></clipPath><clipPath id="3e4ffa5f54"><path d="M 71 65 L 89 65 L 89 73 L 71 73 Z M 71 65 " clip-rule="nonzero"/></clipPath><clipPath id="e683b0740a"><path d="M -165.03125 -0.566406 L 159.246094 0 L 158.648438 343 L -165.628906 342.433594 Z M -165.03125 -0.566406 " clip-rule="nonzero"/></clipPath><clipPath id="b32e42e210"><path d="M -165.03125 -0.566406 L 159.246094 0 L 158.648438 343 L -165.628906 342.433594 Z M -165.03125 -0.566406 " clip-rule="nonzero"/></clipPath><clipPath id="0cc2d45ba8"><path d="M 91 70 L 100 70 L 100 74 L 91 74 Z M 91 70 " clip-rule="nonzero"/></clipPath><clipPath id="2bbc659333"><path d="M -165.03125 -0.566406 L 159.246094 0 L 158.648438 343 L -165.628906 342.433594 Z M -165.03125 -0.566406 " clip-rule="nonzero"/></clipPath><clipPath id="82f10e0158"><path d="M -165.03125 -0.566406 L 159.246094 0 L 158.648438 343 L -165.628906 342.433594 Z M -165.03125 -0.566406 " clip-rule="nonzero"/></clipPath><clipPath id="dbe09c1ddf"><path d="M 13 256 L 23 256 L 23 260 L 13 260 Z M 13 256 " clip-rule="nonzero"/></clipPath><clipPath id="a758838177"><path d="M -165.03125 -0.566406 L 159.246094 0 L 158.648438 343 L -165.628906 342.433594 Z M -165.03125 -0.566406 " clip-rule="nonzero"/></clipPath><clipPath id="9256269c57"><path d="M -165.03125 -0.566406 L 159.246094 0 L 158.648438 343 L -165.628906 342.433594 Z M -165.03125 -0.566406 " clip-rule="nonzero"/></clipPath><clipPath id="dcd9fa8657"><path d="M 143 54 L 147 54 L 147 70 L 143 70 Z M 143 54 " clip-rule="nonzero"/></clipPath><clipPath id="ba91c3f7d4"><path d="M -165.03125 -0.566406 L 159.246094 0 L 158.648438 343 L -165.628906 342.433594 Z M -165.03125 -0.566406 " clip-rule="nonzero"/></clipPath><clipPath id="78940d9cb3"><path d="M -165.03125 -0.566406 L 159.246094 0 L 158.648438 343 L -165.628906 342.433594 Z M -165.03125 -0.566406 " clip-rule="nonzero"/></clipPath><clipPath id="0d987ef144"><path d="M 147 62 L 151 62 L 151 75 L 147 75 Z M 147 62 " clip-rule="nonzero"/></clipPath><clipPath id="2fe052aff6"><path d="M -165.03125 -0.566406 L 159.246094 0 L 158.648438 343 L -165.628906 342.433594 Z M -165.03125 -0.566406 " clip-rule="nonzero"/></clipPath><clipPath id="aea537d3dc"><path d="M -165.03125 -0.566406 L 159.246094 0 L 158.648438 343 L -165.628906 342.433594 Z M -165.03125 -0.566406 " clip-rule="nonzero"/></clipPath><clipPath id="32ae7bfce5"><path d="M 153 152 L 156 152 L 156 173 L 153 173 Z M 153 152 " clip-rule="nonzero"/></clipPath><clipPath id="e0005890e6"><path d="M -165.03125 -0.566406 L 159.246094 0 L 158.648438 343 L -165.628906 342.433594 Z M -165.03125 -0.566406 " clip-rule="nonzero"/></clipPath><clipPath id="356694ed60"><path d="M -165.03125 -0.566406 L 159.246094 0 L 158.648438 343 L -165.628906 342.433594 Z M -165.03125 -0.566406 " clip-rule="nonzero"/></clipPath><clipPath id="5eb829f74f"><path d="M 141 296 L 145 296 L 145 313 L 141 313 Z M 141 296 " clip-rule="nonzero"/></clipPath><clipPath id="4ebd195d7f"><path d="M -165.03125 -0.566406 L 159.246094 0 L 158.648438 343 L -165.628906 342.433594 Z M -165.03125 -0.566406 " clip-rule="nonzero"/></clipPath><clipPath id="e7cc27593d"><path d="M -165.03125 -0.566406 L 159.246094 0 L 158.648438 343 L -165.628906 342.433594 Z M -165.03125 -0.566406 " clip-rule="nonzero"/></clipPath><clipPath id="e743e0906c"><path d="M 141 315 L 145 315 L 145 327 L 141 327 Z M 141 315 " clip-rule="nonzero"/></clipPath><clipPath id="891519a588"><path d="M -165.03125 -0.566406 L 159.246094 0 L 158.648438 343 L -165.628906 342.433594 Z M -165.03125 -0.566406 " clip-rule="nonzero"/></clipPath><clipPath id="a57f5a2093"><path d="M -165.03125 -0.566406 L 159.246094 0 L 158.648438 343 L -165.628906 342.433594 Z M -165.03125 -0.566406 " clip-rule="nonzero"/></clipPath></defs><g clip-path="url(#684f6cf648)"><g clip-path="url(#7c7bbac25a)"><g clip-path="url(#f55c63eedc)"><path fill="#bf6a2c" d="M 138.453125 340.964844 C 138.632812 341.144531 138.453125 341.144531 138.453125 340.964844 C 138.449219 342.046875 142.957031 342.957031 148.546875 342.964844 C 154.140625 342.976562 158.648438 342.261719 158.652344 341.179688 C 158.652344 341.179688 158.652344 341 158.652344 341 L 159.195312 28.355469 L 138.996094 28.320312 Z M 138.453125 340.964844 " fill-opacity="1" fill-rule="nonzero"/></g></g></g><g clip-path="url(#a31a7e9f3b)"><g clip-path="url(#fde8f1daa8)"><g clip-path="url(#52a3ea60f3)"><path fill="#bf6a2c" d="M 159.195312 28.355469 C 159.195312 28.476562 159.132812 28.59375 159.003906 28.710938 C 158.871094 28.824219 158.679688 28.9375 158.425781 29.046875 C 158.171875 29.15625 157.863281 29.257812 157.492188 29.355469 C 157.125 29.457031 156.707031 29.546875 156.238281 29.628906 C 155.769531 29.710938 155.257812 29.785156 154.707031 29.851562 C 154.15625 29.914062 153.570312 29.96875 152.960938 30.015625 C 152.347656 30.058594 151.714844 30.089844 151.066406 30.113281 C 150.414062 30.136719 149.757812 30.144531 149.09375 30.144531 C 148.429688 30.144531 147.773438 30.132812 147.125 30.105469 C 146.472656 30.082031 145.84375 30.046875 145.230469 30 C 144.617188 29.953125 144.035156 29.898438 143.484375 29.832031 C 142.933594 29.765625 142.421875 29.6875 141.953125 29.605469 C 141.484375 29.519531 141.066406 29.425781 140.699219 29.328125 C 140.328125 29.230469 140.019531 29.125 139.765625 29.015625 C 139.511719 28.90625 139.320312 28.792969 139.191406 28.675781 C 139.0625 28.558594 138.996094 28.441406 138.996094 28.320312 C 138.996094 28.203125 139.0625 28.085938 139.191406 27.96875 C 139.320312 27.855469 139.511719 27.742188 139.765625 27.632812 C 140.019531 27.523438 140.332031 27.421875 140.703125 27.324219 C 141.070312 27.222656 141.488281 27.132812 141.957031 27.050781 C 142.425781 26.96875 142.9375 26.894531 143.488281 26.828125 C 144.039062 26.765625 144.621094 26.710938 145.234375 26.664062 C 145.847656 26.621094 146.480469 26.589844 147.128906 26.566406 C 147.78125 26.542969 148.4375 26.535156 149.101562 26.535156 C 149.761719 26.535156 150.421875 26.546875 151.070312 26.574219 C 151.722656 26.597656 152.351562 26.632812 152.964844 26.679688 C 153.578125 26.726562 154.160156 26.78125 154.710938 26.847656 C 155.261719 26.914062 155.773438 26.992188 156.242188 27.074219 C 156.710938 27.160156 157.128906 27.253906 157.496094 27.351562 C 157.863281 27.449219 158.175781 27.554688 158.429688 27.664062 C 158.683594 27.773438 158.875 27.886719 159.003906 28.003906 C 159.132812 28.121094 159.199219 28.238281 159.195312 28.355469 Z M 159.195312 28.355469 " fill-opacity="1" fill-rule="nonzero"/></g></g></g><g clip-path="url(#da092c2c1f)"><g clip-path="url(#ab9bba21f8)"><g clip-path="url(#c3421d203b)"><path fill="#924516" d="M 149.09375 31.410156 C 145.304688 31.402344 141.878906 31.035156 140.074219 30.488281 C 139.355469 30.308594 138.996094 29.585938 139.175781 28.863281 C 139.359375 28.140625 140.082031 27.78125 140.800781 27.964844 C 142.425781 28.507812 145.667969 28.875 149.097656 28.882812 C 152.523438 28.886719 155.769531 28.53125 157.394531 27.992188 C 158.117188 27.8125 158.835938 28.175781 159.015625 28.898438 C 159.195312 29.621094 158.832031 30.34375 158.109375 30.523438 C 156.304688 31.242188 152.878906 31.414062 149.09375 31.410156 Z M 149.09375 31.410156 " fill-opacity="1" fill-rule="nonzero"/></g></g></g><g clip-path="url(#f7df1026e7)"><g clip-path="url(#5db74d53fc)"><g clip-path="url(#9270e71f3e)"><path fill="#bf6a2c" d="M 142.558594 262.449219 L 0.976562 262.203125 L 1.433594 2.449219 C 1.433594 1.003906 2.699219 -0.253906 4.140625 -0.253906 C 10.09375 -0.242188 24.160156 0.324219 30.464844 5.207031 C 38.570312 11.539062 43.964844 20.394531 49.359375 29.25 C 54.753906 37.921875 60.332031 46.957031 68.617188 52.929688 C 77.261719 59.261719 87.898438 61.808594 98.539062 62.730469 C 112.964844 64.015625 141.652344 58.109375 141.652344 58.109375 C 141.652344 58.109375 141.113281 263.347656 142.558594 262.449219 Z M 142.558594 262.449219 " fill-opacity="1" fill-rule="nonzero"/></g></g></g><g clip-path="url(#60fb10fa4b)"><g clip-path="url(#3f2cd60cff)"><g clip-path="url(#1aa5f800df)"><path fill="#924516" d="M 130.855469 250.335938 L 8.035156 250.121094 L 8.429688 23.761719 C 8.429688 22.5 9.515625 21.417969 10.777344 21.417969 C 16.007812 21.429688 28.089844 21.992188 33.675781 26.152344 C 40.699219 31.582031 45.375 39.351562 50.050781 47.121094 C 54.726562 54.710938 59.582031 62.480469 66.605469 67.726562 C 73.992188 73.15625 83.367188 75.519531 92.5625 76.257812 C 105.183594 77.363281 129.902344 72.351562 129.902344 72.351562 C 129.902344 72.351562 129.769531 251.054688 130.855469 250.335938 Z M 130.855469 250.335938 " fill-opacity="1" fill-rule="nonzero"/></g></g></g><g clip-path="url(#bad30dc4d4)"><g clip-path="url(#f820604e6d)"><g clip-path="url(#3f8a262a13)"><path fill="#924516" d="M 138.585938 263.707031 C 137.867188 263.703125 137.324219 263.160156 137.328125 262.441406 L 137.683594 58.644531 C 137.683594 57.921875 138.226562 57.382812 138.945312 57.382812 C 139.667969 57.386719 140.207031 57.929688 140.207031 58.648438 L 139.851562 262.445312 C 140.03125 263.167969 139.308594 263.707031 138.585938 263.707031 Z M 138.585938 263.707031 " fill-opacity="1" fill-rule="nonzero"/></g></g></g><g clip-path="url(#26caf9dcea)"><g clip-path="url(#e32efe0972)"><g clip-path="url(#aee3b03cfb)"><path fill="#bf6a2c" d="M 138.453125 340.964844 C 138.632812 341.144531 138.453125 341.144531 138.453125 340.964844 C 138.449219 342.046875 142.957031 342.957031 148.546875 342.964844 C 154.140625 342.976562 158.648438 342.261719 158.652344 341.179688 C 158.652344 341.179688 158.652344 341 158.652344 341 L 159.195312 28.355469 L 138.996094 28.320312 Z M 138.453125 340.964844 " fill-opacity="1" fill-rule="nonzero"/></g></g></g><g clip-path="url(#78d7d813a1)"><g clip-path="url(#163af07d23)"><g clip-path="url(#dfec32b489)"><path fill="#bf6a2c" d="M 159.195312 28.355469 C 159.195312 28.476562 159.132812 28.59375 159.003906 28.710938 C 158.871094 28.824219 158.679688 28.9375 158.425781 29.046875 C 158.171875 29.15625 157.863281 29.257812 157.492188 29.355469 C 157.125 29.457031 156.707031 29.546875 156.238281 29.628906 C 155.769531 29.710938 155.257812 29.785156 154.707031 29.851562 C 154.15625 29.914062 153.570312 29.96875 152.960938 30.015625 C 152.347656 30.058594 151.714844 30.089844 151.066406 30.113281 C 150.414062 30.136719 149.757812 30.144531 149.09375 30.144531 C 148.429688 30.144531 147.773438 30.132812 147.125 30.105469 C 146.472656 30.082031 145.84375 30.046875 145.230469 30 C 144.617188 29.953125 144.035156 29.898438 143.484375 29.832031 C 142.933594 29.765625 142.421875 29.6875 141.953125 29.605469 C 141.484375 29.519531 141.066406 29.425781 140.699219 29.328125 C 140.328125 29.230469 140.019531 29.125 139.765625 29.015625 C 139.511719 28.90625 139.320312 28.792969 139.191406 28.675781 C 139.0625 28.558594 138.996094 28.441406 138.996094 28.320312 C 138.996094 28.203125 139.0625 28.085938 139.191406 27.96875 C 139.320312 27.855469 139.511719 27.742188 139.765625 27.632812 C 140.019531 27.523438 140.332031 27.421875 140.703125 27.324219 C 141.070312 27.222656 141.488281 27.132812 141.957031 27.050781 C 142.425781 26.96875 142.9375 26.894531 143.488281 26.828125 C 144.039062 26.765625 144.621094 26.710938 145.234375 26.664062 C 145.847656 26.621094 146.480469 26.589844 147.128906 26.566406 C 147.78125 26.542969 148.4375 26.535156 149.101562 26.535156 C 149.761719 26.535156 150.421875 26.546875 151.070312 26.574219 C 151.722656 26.597656 152.351562 26.632812 152.964844 26.679688 C 153.578125 26.726562 154.160156 26.78125 154.710938 26.847656 C 155.261719 26.914062 155.773438 26.992188 156.242188 27.074219 C 156.710938 27.160156 157.128906 27.253906 157.496094 27.351562 C 157.863281 27.449219 158.175781 27.554688 158.429688 27.664062 C 158.683594 27.773438 158.875 27.886719 159.003906 28.003906 C 159.132812 28.121094 159.199219 28.238281 159.195312 28.355469 Z M 159.195312 28.355469 " fill-opacity="1" fill-rule="nonzero"/></g></g></g><g clip-path="url(#fbeb82cd76)"><g clip-path="url(#17b670f602)"><g clip-path="url(#9f02a8c0a8)"><path fill="#924516" d="M 149.09375 31.410156 C 145.304688 31.402344 141.878906 31.035156 140.074219 30.488281 C 139.355469 30.308594 138.996094 29.585938 139.175781 28.863281 C 139.359375 28.140625 140.082031 27.78125 140.800781 27.964844 C 142.425781 28.507812 145.667969 28.875 149.097656 28.882812 C 152.523438 28.886719 155.769531 28.53125 157.394531 27.992188 C 158.117188 27.8125 158.835938 28.175781 159.015625 28.898438 C 159.195312 29.621094 158.832031 30.34375 158.109375 30.523438 C 156.304688 31.242188 152.878906 31.414062 149.09375 31.410156 Z M 149.09375 31.410156 " fill-opacity="1" fill-rule="nonzero"/></g></g></g><g clip-path="url(#3822c0b78c)"><g clip-path="url(#73a60d2fd5)"><g clip-path="url(#87f4fae520)"><path fill="#bf6a2c" d="M 142.558594 262.449219 L 0.976562 262.203125 L 1.433594 2.449219 C 1.433594 1.003906 2.699219 -0.253906 4.140625 -0.253906 C 10.09375 -0.242188 24.160156 0.324219 30.464844 5.207031 C 38.570312 11.539062 43.964844 20.394531 49.359375 29.25 C 54.753906 37.921875 60.332031 46.957031 68.617188 52.929688 C 77.261719 59.261719 87.898438 61.808594 98.539062 62.730469 C 112.964844 64.015625 141.652344 58.109375 141.652344 58.109375 C 141.652344 58.109375 141.113281 263.347656 142.558594 262.449219 Z M 142.558594 262.449219 " fill-opacity="1" fill-rule="nonzero"/></g></g></g><g clip-path="url(#685fb240f1)"><g clip-path="url(#f2231cc59d)"><g clip-path="url(#60bcfdd190)"><path fill="#924516" d="M 130.855469 250.335938 L 8.035156 250.121094 L 8.429688 23.761719 C 8.429688 22.5 9.515625 21.417969 10.777344 21.417969 C 16.007812 21.429688 28.089844 21.992188 33.675781 26.152344 C 40.699219 31.582031 45.375 39.351562 50.050781 47.121094 C 54.726562 54.710938 59.582031 62.480469 66.605469 67.726562 C 73.992188 73.15625 83.367188 75.519531 92.5625 76.257812 C 105.183594 77.363281 129.902344 72.351562 129.902344 72.351562 C 129.902344 72.351562 129.769531 251.054688 130.855469 250.335938 Z M 130.855469 250.335938 " fill-opacity="1" fill-rule="nonzero"/></g></g></g><g clip-path="url(#da51ea61a6)"><g clip-path="url(#c3360fe4df)"><g clip-path="url(#b5918ab88d)"><path fill="#7c360f" d="M 8.578125 41.632812 C 21.742188 42.558594 34.726562 42.941406 47.894531 42.964844 C 47.351562 42.0625 46.8125 41.15625 46.273438 40.433594 C 33.828125 40.234375 21.207031 39.851562 8.582031 39.105469 Z M 8.578125 41.632812 " fill-opacity="1" fill-rule="nonzero"/></g></g></g><g clip-path="url(#dea91ad297)"><g clip-path="url(#6ee8216d37)"><g clip-path="url(#324d85fdd5)"><path fill="#7c360f" d="M 60.980469 88.65625 C 43.664062 88.625 25.988281 88.59375 8.496094 88.382812 L 8.492188 90.910156 C 25.984375 91.121094 43.660156 91.152344 60.972656 91.183594 C 83.699219 91.222656 107.144531 91.265625 130.050781 91.847656 C 130.050781 90.941406 130.050781 90.039062 130.054688 89.320312 C 107.148438 88.738281 83.703125 88.695312 60.980469 88.65625 Z M 60.980469 88.65625 " fill-opacity="1" fill-rule="nonzero"/></g></g></g><g clip-path="url(#6d964204fc)"><g clip-path="url(#eccd589799)"><g clip-path="url(#4c659d0a5a)"><path fill="#7c360f" d="M 8.535156 66.183594 C 27.832031 66.214844 47.308594 66.609375 66.605469 67.546875 C 65.527344 66.640625 64.445312 65.738281 63.363281 64.832031 C 45.152344 64.078125 26.753906 63.6875 8.539062 63.65625 Z M 8.535156 66.183594 " fill-opacity="1" fill-rule="nonzero"/></g></g></g><g clip-path="url(#c76cfb704b)"><g clip-path="url(#8bd2ade505)"><g clip-path="url(#2bfa28c86e)"><path fill="#7c360f" d="M 130.007812 114.949219 L 8.453125 113.292969 L 8.449219 115.820312 L 130.003906 117.476562 C 130.007812 116.574219 130.007812 115.671875 130.007812 114.949219 Z M 130.007812 114.949219 " fill-opacity="1" fill-rule="nonzero"/></g></g></g><g clip-path="url(#f60c13ac2d)"><g clip-path="url(#3118a67c0a)"><g clip-path="url(#dd90abc1b3)"><path fill="#7c360f" d="M 8.410156 138.566406 L 8.402344 141.09375 C 35.273438 142.402344 62.328125 142.992188 89.378906 143.039062 C 102.90625 143.0625 116.613281 142.90625 130.140625 142.570312 C 130.144531 141.667969 130.144531 140.765625 130.144531 139.863281 C 89.5625 140.875 48.804688 140.441406 8.410156 138.566406 Z M 8.410156 138.566406 " fill-opacity="1" fill-rule="nonzero"/></g></g></g><g clip-path="url(#d422305df4)"><g clip-path="url(#4ea893e135)"><g clip-path="url(#0b45b638ed)"><path fill="#7c360f" d="M 130.09375 168.742188 L 8.363281 164.921875 L 8.359375 167.628906 L 130.089844 171.449219 C 130.09375 170.546875 130.09375 169.644531 130.09375 168.742188 Z M 130.09375 168.742188 " fill-opacity="1" fill-rule="nonzero"/></g></g></g><g clip-path="url(#356ede60a0)"><g clip-path="url(#a5f9f1541b)"><g clip-path="url(#0ccad9ad46)"><path fill="#7c360f" d="M 8.3125 192.71875 L 8.308594 195.246094 C 38.246094 196.921875 68.363281 197.695312 98.484375 197.75 C 109.125 197.769531 119.585938 197.605469 130.226562 197.445312 C 130.226562 196.542969 130.230469 195.640625 130.230469 194.917969 C 89.648438 195.75 48.710938 194.957031 8.3125 192.71875 Z M 8.3125 192.71875 " fill-opacity="1" fill-rule="nonzero"/></g></g></g><g clip-path="url(#155c307514)"><g clip-path="url(#281b6efc1d)"><g clip-path="url(#2e28da86eb)"><path fill="#7c360f" d="M 130.359375 224.882812 C 130.359375 223.980469 130.359375 223.078125 130.363281 222.355469 C 89.78125 224.089844 48.839844 223.835938 8.261719 221.78125 L 8.257812 224.308594 C 29.898438 225.429688 51.722656 226.007812 73.542969 226.046875 C 92.480469 226.078125 111.417969 225.75 130.359375 224.882812 Z M 130.359375 224.882812 " fill-opacity="1" fill-rule="nonzero"/></g></g></g><g clip-path="url(#0d8e36959b)"><g clip-path="url(#a15e3a3837)"><g clip-path="url(#220c99edac)"><path fill="#924516" d="M 138.585938 263.707031 C 137.867188 263.703125 137.324219 263.160156 137.328125 262.441406 L 137.683594 58.644531 C 137.683594 57.921875 138.226562 57.382812 138.945312 57.382812 C 139.667969 57.386719 140.207031 57.929688 140.207031 58.648438 L 139.851562 262.445312 C 140.03125 263.167969 139.308594 263.707031 138.585938 263.707031 Z M 138.585938 263.707031 " fill-opacity="1" fill-rule="nonzero"/></g></g></g><g clip-path="url(#bc0be6f885)"><g clip-path="url(#dc61144660)"><g clip-path="url(#af63e1adc6)"><path fill="#924516" d="M 50.242188 39.359375 C 49.882812 39.359375 49.34375 39.175781 49.164062 38.816406 L 38.371094 22.191406 C 38.011719 21.648438 38.191406 20.746094 38.734375 20.386719 C 39.277344 20.023438 40.175781 20.207031 40.535156 20.75 L 51.328125 37.375 C 51.6875 37.917969 51.507812 38.820312 50.964844 39.179688 C 50.785156 39.359375 50.605469 39.359375 50.242188 39.359375 Z M 50.242188 39.359375 " fill-opacity="1" fill-rule="nonzero"/></g></g></g><g clip-path="url(#3e4ffa5f54)"><g clip-path="url(#e683b0740a)"><g clip-path="url(#b32e42e210)"><path fill="#924516" d="M 87.160156 72.277344 C 86.976562 72.277344 86.976562 72.277344 87.160156 72.277344 C 82.109375 71.726562 77.242188 70.453125 72.558594 68.277344 C 71.835938 67.917969 71.65625 67.195312 71.839844 66.472656 C 72.199219 65.75 72.921875 65.570312 73.644531 65.753906 C 77.96875 67.746094 82.476562 69.019531 87.164062 69.566406 C 87.886719 69.570312 88.425781 70.292969 88.242188 71.015625 C 88.242188 71.734375 87.699219 72.277344 87.160156 72.277344 Z M 87.160156 72.277344 " fill-opacity="1" fill-rule="nonzero"/></g></g></g><g clip-path="url(#0cc2d45ba8)"><g clip-path="url(#2bbc659333)"><g clip-path="url(#82f10e0158)"><path fill="#924516" d="M 97.796875 73.378906 L 92.566406 73.367188 C 91.847656 73.367188 91.304688 72.824219 91.308594 72.101562 C 91.308594 71.378906 91.851562 70.839844 92.570312 70.839844 L 97.800781 70.851562 C 98.523438 70.851562 99.0625 71.394531 99.0625 72.117188 C 99.0625 72.65625 98.339844 73.378906 97.796875 73.378906 Z M 97.796875 73.378906 " fill-opacity="1" fill-rule="nonzero"/></g></g></g><g clip-path="url(#dbe09c1ddf)"><g clip-path="url(#a758838177)"><g clip-path="url(#9256269c57)"><path fill="#924516" d="M 21.722656 259.890625 L 14.328125 259.515625 C 13.609375 259.515625 13.066406 258.792969 13.070312 258.070312 C 13.070312 257.347656 13.792969 256.808594 14.515625 256.808594 L 21.726562 257.183594 C 22.449219 257.183594 22.988281 257.90625 22.988281 258.628906 C 22.988281 259.351562 22.445312 259.890625 21.722656 259.890625 Z M 21.722656 259.890625 " fill-opacity="1" fill-rule="nonzero"/></g></g></g><g clip-path="url(#dcd9fa8657)"><g clip-path="url(#ba91c3f7d4)"><g clip-path="url(#78940d9cb3)"><path fill="#924516" d="M 145.058594 69.667969 C 144.335938 69.667969 143.796875 69.125 143.796875 68.402344 L 144 55.40625 C 144 54.683594 144.542969 54.144531 145.265625 54.144531 C 145.984375 54.148438 146.527344 54.691406 146.523438 55.410156 L 146.320312 68.40625 C 146.320312 69.128906 145.777344 69.671875 145.058594 69.667969 Z M 145.058594 69.667969 " fill-opacity="1" fill-rule="nonzero"/></g></g></g><g clip-path="url(#0d987ef144)"><g clip-path="url(#2fe052aff6)"><g clip-path="url(#aea537d3dc)"><path fill="#924516" d="M 148.65625 74.007812 C 147.933594 74.007812 147.394531 73.464844 147.398438 72.742188 L 147.773438 64.078125 C 147.773438 63.355469 148.496094 62.816406 149.039062 62.816406 C 149.757812 62.816406 150.296875 63.359375 150.296875 64.082031 L 149.921875 72.746094 C 149.921875 73.46875 149.378906 74.007812 148.65625 74.007812 Z M 148.65625 74.007812 " fill-opacity="1" fill-rule="nonzero"/></g></g></g><g clip-path="url(#32ae7bfce5)"><g clip-path="url(#e0005890e6)"><g clip-path="url(#356694ed60)"><path fill="#924516" d="M 154.617188 172.578125 C 153.894531 172.574219 153.355469 172.03125 153.355469 171.308594 L 153.386719 153.800781 C 153.386719 153.078125 153.929688 152.539062 154.652344 152.539062 C 155.375 152.542969 155.914062 153.082031 155.914062 153.804688 L 155.882812 171.316406 C 155.878906 172.035156 155.339844 172.578125 154.617188 172.578125 Z M 154.617188 172.578125 " fill-opacity="1" fill-rule="nonzero"/></g></g></g><g clip-path="url(#5eb829f74f)"><g clip-path="url(#4ebd195d7f)"><g clip-path="url(#e7cc27593d)"><path fill="#924516" d="M 143.011719 312.269531 C 142.289062 312.269531 141.75 311.726562 141.75 311.003906 L 141.773438 297.828125 C 141.773438 297.105469 142.316406 296.566406 143.039062 296.566406 C 143.757812 296.566406 144.300781 297.109375 144.296875 297.832031 L 144.273438 311.1875 C 144.273438 311.730469 143.730469 312.269531 143.011719 312.269531 Z M 143.011719 312.269531 " fill-opacity="1" fill-rule="nonzero"/></g></g></g><g clip-path="url(#e743e0906c)"><g clip-path="url(#891519a588)"><g clip-path="url(#a57f5a2093)"><path fill="#924516" d="M 142.625 326.53125 C 141.902344 326.527344 141.363281 325.804688 141.363281 325.082031 L 141.742188 316.78125 C 141.742188 316.058594 142.464844 315.519531 143.183594 315.519531 C 143.90625 315.519531 144.445312 316.242188 144.445312 316.964844 L 144.070312 325.269531 C 143.886719 325.992188 143.347656 326.53125 142.625 326.53125 Z M 142.625 326.53125 " fill-opacity="1" fill-rule="nonzero"/></g></g></g></svg>