<svg xmlns="http://www.w3.org/2000/svg" xmlns:xlink="http://www.w3.org/1999/xlink" width="83" zoomAndPan="magnify" viewBox="0 0 62.25 62.249997" height="83" preserveAspectRatio="xMidYMid meet" version="1.0"><defs><clipPath id="0962b3752e"><path d="M 0 0 L 61.457031 0 L 61.457031 61.457031 L 0 61.457031 Z M 0 0 " clip-rule="nonzero"/></clipPath><clipPath id="c2a968d653"><path d="M 0 0 L 61.457031 0 L 61.457031 61.457031 L 0 61.457031 Z M 0 0 " clip-rule="nonzero"/></clipPath><clipPath id="f589f1f06f"><rect x="0" width="62" y="0" height="62"/></clipPath><clipPath id="7b4c547754"><path d="M 13 22 L 49 22 L 49 40 L 13 40 Z M 13 22 " clip-rule="nonzero"/></clipPath><clipPath id="f467ab7e58"><path d="M 13.355469 30.625 L 46 22.453125 L 48.105469 30.863281 L 15.460938 39.039062 Z M 13.355469 30.625 " clip-rule="nonzero"/></clipPath><clipPath id="44a69265dc"><path d="M 0.28125 0.292969 L 35.140625 0.292969 L 35.140625 17.128906 L 0.28125 17.128906 Z M 0.28125 0.292969 " clip-rule="nonzero"/></clipPath><clipPath id="e3fedd73ee"><path d="M 0.355469 8.625 L 33 0.453125 L 35.105469 8.863281 L 2.460938 17.039062 Z M 0.355469 8.625 " clip-rule="nonzero"/></clipPath><clipPath id="e3de17db89"><rect x="0" width="36" y="0" height="18"/></clipPath><clipPath id="3db491f758"><path d="M 11 17 L 30 17 L 30 31 L 11 31 Z M 11 17 " clip-rule="nonzero"/></clipPath><clipPath id="9981e42bd3"><path d="M 11.054688 21.539062 L 27.613281 17.394531 L 29.976562 26.828125 L 13.417969 30.976562 Z M 11.054688 21.539062 " clip-rule="nonzero"/></clipPath><clipPath id="b5135b2e85"><path d="M 0 0.3125 L 19 0.3125 L 19 14 L 0 14 Z M 0 0.3125 " clip-rule="nonzero"/></clipPath><clipPath id="a41e33fdfd"><path d="M 0.0546875 4.539062 L 16.613281 0.394531 L 18.976562 9.828125 L 2.417969 13.976562 Z M 0.0546875 4.539062 " clip-rule="nonzero"/></clipPath><clipPath id="978a31656e"><rect x="0" width="19" y="0" height="14"/></clipPath><clipPath id="8e34916ce0"><path d="M 31 30 L 51 30 L 51 45 L 31 45 Z M 31 30 " clip-rule="nonzero"/></clipPath><clipPath id="dfa4a86497"><path d="M 31.386719 34.246094 L 47.945312 30.097656 L 50.402344 39.914062 L 33.84375 44.0625 Z M 31.386719 34.246094 " clip-rule="nonzero"/></clipPath><clipPath id="8a86827d34"><path d="M 0.304688 0 L 19.511719 0 L 19.511719 14.109375 L 0.304688 14.109375 Z M 0.304688 0 " clip-rule="nonzero"/></clipPath><clipPath id="ba4d1dc36c"><path d="M 0.386719 4.246094 L 16.945312 0.0976562 L 19.402344 9.914062 L 2.84375 14.0625 Z M 0.386719 4.246094 " clip-rule="nonzero"/></clipPath><clipPath id="aad31446ff"><rect x="0" width="20" y="0" height="15"/></clipPath></defs><g clip-path="url(#0962b3752e)"><g transform="matrix(1, 0, 0, 1, 0, 0.000000000000007747)"><g clip-path="url(#f589f1f06f)"><g clip-path="url(#c2a968d653)"><path fill="#000000" d="M 0 0 L 61.457031 0 L 61.457031 61.457031 L 0 61.457031 Z M 0 0 " fill-opacity="1" fill-rule="nonzero"/></g></g></g></g><g clip-path="url(#7b4c547754)"><g clip-path="url(#f467ab7e58)"><g transform="matrix(1, 0, 0, 1, 13, 22)"><g clip-path="url(#e3de17db89)"><g clip-path="url(#44a69265dc)"><g clip-path="url(#e3fedd73ee)"><path fill="#ffffff" d="M 0.355469 8.625 L 32.984375 0.453125 L 35.09375 8.867188 L 2.460938 17.039062 Z M 0.355469 8.625 " fill-opacity="1" fill-rule="nonzero"/></g></g></g></g></g></g><g clip-path="url(#3db491f758)"><g clip-path="url(#9981e42bd3)"><g transform="matrix(1, 0, 0, 1, 11, 17)"><g clip-path="url(#978a31656e)"><g clip-path="url(#b5135b2e85)"><g clip-path="url(#a41e33fdfd)"><path fill="#ffffff" d="M 0.0546875 4.539062 L 16.601562 0.398438 L 18.964844 9.832031 L 2.417969 13.976562 Z M 0.0546875 4.539062 " fill-opacity="1" fill-rule="nonzero"/></g></g></g></g></g></g><g clip-path="url(#8e34916ce0)"><g clip-path="url(#dfa4a86497)"><g transform="matrix(1, 0, 0, 1, 31, 30)"><g clip-path="url(#aad31446ff)"><g clip-path="url(#8a86827d34)"><g clip-path="url(#ba4d1dc36c)"><path fill="#ffffff" d="M 0.386719 4.246094 L 16.953125 0.0976562 L 19.410156 9.914062 L 2.84375 14.0625 Z M 0.386719 4.246094 " fill-opacity="1" fill-rule="nonzero"/></g></g></g></g></g></g></svg>