<?xml version="1.0" encoding="UTF-8"?>
<svg id="Layer_2" data-name="Layer 2" xmlns="http://www.w3.org/2000/svg" viewBox="0 0 1029.25 724.04">
  <defs>
    <style>
      .cls-1 {
        fill: #d1e5ed;
      }

      .cls-2 {
        fill: #a2b3bc;
      }

      .cls-3 {
        fill: #93a6b2;
      }

      .cls-4 {
        fill: #5d7887;
      }
    </style>
  </defs>
  <g id="Layer_1-2" data-name="Layer 1">
    <path class="cls-3" d="M776.17,270.1c-.06,1.51-.21,3.07-.46,4.66-.25,1.58-.6,3.2-1.03,4.86-2.63,9.94-8.55,21.12-16.68,32.71-11.52,16.44-30,30.97-69.25,39.93.73,1.52,1.31,3.09,1.76,4.68,2.16,7.63,1.26,15.95-.82,23.72-1,3.75-2.24,7.21-3.74,10.4h0c-9.92,21.13-31.06,30.26-68.51,33.31-2.14.17-4.33.32-6.57.46.2,2.88-.03,5.95-.76,9.22-.78,3.52-2.12,7.27-4.11,11.28-6.15,12.41-20.79,28.53-34.03,33.58-9.78,3.74-20.85,5.43-32.65,5.91.37.37.72.74,1.04,1.12,2.03,2.31,3.39,4.78,4.15,7.34h0s.01.01.01.01c3.96,13.28-7.96,29-25.89,36.85-10.24,4.49-21.95,4.94-34.7,3.69.15.52.27,1.06.36,1.61.28,1.47.36,3.04.24,4.69-.09,1.25-.24,2.44-.45,3.58-1.63,9.18-6.76,14.98-14.38,18.3-.49.22-1,.42-1.52.62,1.07,2.98,1.86,7.14.83,11.38-1.03,4.22-3.87,8.52-10.03,11.83.1.13.19.26.27.39.54.78.95,1.61,1.23,2.47,1.87,5.64-1.62,12.61-9.8,17.62,1.46,1.61,2.61,3.42,3.78,5.38.42.72.85,1.47,1.3,2.23.99,1.7,1.62,3.87,1.71,6.18.22,5.23-2.31,11.18-9.57,14,1.15.7,1.95,1.42,2.27,2.19,1.61,3.88,3.63,12.39-12.77,16.7,4.75,1.7,8.57,4.62,8.92,9.67.21,2.85-1.27,5.06-3.8,6.73,4.71,2.52,5.55,6.42,5.14,8.77-.1.54-.29,1.16-.61,1.82,1.04.11,2.1.22,3.18.34,0,0,3.21,3.36,2.43,6.67-.28,1.17-1.49,3.52-3.41,6.1,1.89.41,3.18,1.14,3.53,2.23.64,2.04.25,3.99-.81,5.77,1.29.19,2.2.59,2.52,1.23,1.4,2.81-.13,5.26-2.1,7,3.03,1.24,5.56,4.07,2.43,6.81,3.24.37,5.76,1.32,4.67,2.86-2,2.83-9.17,5-9.17,5-4.99.3-7.07-.97-7.46-2.56-1.07.21-2.03.32-2.82.31-1.1-.03-1.86-.31-2.05-.92-.06-.18-.11-.36-.15-.54-.42-1.67-.26-3.17.28-4.5-2.51.86-3.2.82-4.13-.12-1.93-1.97-2.63-3.79-2.46-5.43-5.98-.58-11.45-3.24-11.45-3.24-1.36-1.42-1.79-2.8-1.53-4.11-.22-.08-.44-.17-.66-.27-3.78-1.6-7.15-4.54-10.23-9.62-1.33-2.19-1.68-4.16-1.15-5.87.08-.28.19-.56.33-.83-4.65-2.34-7.69-5.73-9.09-9.03-1.5-3.53-1.11-6.96,1.21-8.91-6-4.44-7.5-11.41-.39-15.18.73-.4,1.56-.75,2.49-1.07-8.09-3.7-12.97-10.1-14.86-17.15-1.61-6.02-1.04-12.51,1.57-18.19.12-.28.25-.55.39-.83-4.07-5.05-3.8-9.79-.54-13.44-4.16-3.47-6.53-7.42-7.31-11.24-.99-4.86.58-9.49,4.24-12.63-.2-.21-.39-.41-.58-.62-1.63-1.81-2.76-3.7-3.33-5.61h0c-1.49-5,.8-10.1,7.7-14.13.11-.07.22-.14.33-.2-3.17-.95-6.04-2.35-8.48-4.58-4.12-3.77-7.02-8.33-8.03-13.03h0c-1.53-7.07,1.19-14.45,10.34-19.96.02-.02.04-.03.06-.04-.8-.37-1.59-.75-2.37-1.17-16.79-9.06-28.07-26.31-22.85-43.06l.06-.21c.4-1.25.89-2.49,1.48-3.73.02-.04.04-.09.06-.13.01,0,.01-.01.01-.01,1.23-2.57,2.88-5.1,4.98-7.58.48-.57.99-1.14,1.53-1.71-10.93-8.79-18.63-20.02-21.15-30.36-2.24-9.18-.42-17.67,6.81-23.19.4-.3.81-.59,1.24-.88-18.51-5.69-31.21-12.96-39.56-21.01-12.3-11.83-15.12-25.33-13.04-37.9.06-.4.13-.81.21-1.21-12.35-1.87-23.23-4.82-32.74-9.61-24.93-12.53-39.99-30.28-45.92-47.92-4.39-13.04-3.79-26.02,1.51-36.78.88-1.82,1.91-3.56,3.06-5.24-41.01-11.51-66.45-49.68-72.25-70.6-8.05-29.05-14.04-62.8-4.77-85.35h0c3.31-8.07,8.57-14.69,16.37-19.17,94.5-54.2,329.61-35.85,510.29-10.9,114.89,15.86,172.49,53.98,181.05,97.02,7.32,36.79-21.2,77.18-80.41,110.34Z"/>
    <ellipse class="cls-4" cx="514.43" cy="113.85" rx="32.4" ry="285.72" transform="translate(354.05 615.72) rotate(-84.76)"/>
    <path class="cls-3" d="M210.64,84.83c21.86-39.29,393.75,15.33,421.33,29.02,0,0-82-35.02-175.33-45.69-93.33-10.67-241.33,0-241.33,0l-4.67,16.67Z"/>
    <path class="cls-3" d="M801.31,130.83c1.33,18.67-81.33,20.88-149.33,15.77,0,0,72,20.23,141.33,10.23,69.33-10,8-26,8-26Z"/>
    <path class="cls-4" d="M776.17,270.1c-.06,1.51-.21,3.07-.46,4.66-.25,1.58-.6,3.2-1.03,4.86-5.22.59-10.5,1.1-15.85,1.54-139.49,11.67-320.95-4-283.31-4,52.35,0,317.67-18.96,381.06-117.4,7.32,36.79-21.2,77.18-80.41,110.34Z"/>
    <path class="cls-4" d="M222.83,254c.88-1.82,1.91-3.56,3.06-5.24-41.01-11.51-66.45-49.68-72.25-70.6-8.05-29.05-14.04-62.8-4.77-85.35,13.25,93.31,161.56,185.97,238.13,197.97-46.36,13.06-93.27,3.45-164.17-36.78Z"/>
    <path class="cls-4" d="M775.71,274.76c-.25,1.58-.6,3.2-1.03,4.86-2.63,9.94-8.55,21.12-16.68,32.71-11.52,16.44-30,30.97-69.25,39.93.73,1.52,1.31,3.09,1.76,4.68-60.78-.51-135.2-12.78-135.2-12.78,95.33.67,216.66-38.67,203.52-63l9.14-8.33,7.74,1.93Z"/>
    <path class="cls-4" d="M433.97,350.83s-73.18,3.11-134.2-1.31c.06-.4.13-.81.21-1.21-12.35-1.87-23.23-4.82-32.74-9.61-24.93-12.53-39.99-30.28-45.92-47.92,60.99,61.17,212.65,60.05,212.65,60.05Z"/>
    <path class="cls-4" d="M685.95,391.07c-9.92,21.12-31.06,30.25-68.51,33.3-73.76-5.86-151.8-23.52-129.47-22.21,29.77,1.75,126.49,8.1,197.98-11.09Z"/>
    <path class="cls-4" d="M610.11,434.05c-.78,3.52-2.12,7.27-4.11,11.28-6.15,12.41-20.79,28.53-34.03,33.58-9.78,3.74-20.85,5.43-32.65,5.91.37.37.72.74,1.04,1.12-42.6-4.03-79.67-12.22-70.39-11.11,16.67,2,93.86,6.66,140.14-40.78Z"/>
    <path class="cls-4" d="M518.64,530.14c-10.24,4.49-21.95,4.94-34.7,3.69.15.52.27,1.06.36,1.61-39.65-6.62-72.15-19.36-59.66-17.28,20,3.33,70,9.33,119.87-24.88h0s.01.01.01.01c3.96,13.28-7.96,29-25.89,36.85Z"/>
    <path class="cls-4" d="M363.94,464.57c.48-.57.99-1.14,1.53-1.71-10.93-8.79-18.63-20.02-21.15-30.36,18.95,19.95,75.69,38.05,89.65,42.16,12.26,3.61-32.48-1.4-70.03-10.09Z"/>
    <path class="cls-4" d="M351.13,409.31c.4-.3.81-.59,1.24-.88-18.51-5.69-31.21-12.96-39.56-21.01,35.85,19.36,96.83,31.74,99.26,32.23-19.38-2.24-40.84-5.41-60.94-10.34Z"/>
    <path class="cls-4" d="M382.51,520.5s.04-.03.06-.04c-.8-.37-1.59-.75-2.37-1.17-16.79-9.06-28.07-26.31-22.85-43.06-7.86,27.98,51.55,49.31,60.58,51.59-.95-.15-18.33-2.93-35.42-7.32Z"/>
    <path class="cls-4" d="M484.09,543.71c-1.63,9.18-6.76,14.98-14.38,18.3-24.85.48-61.07-8.7-57.57-8.18,4.5.66,53.17,6.33,71.95-10.12Z"/>
    <path class="cls-4" d="M458.99,585.84c.1.13.19.26.27.39-16.98.53-32.63-2.68-36.45-3.54,4.01.78,21.5,3.16,46.21-8.68-1.03,4.22-3.87,8.52-10.03,11.83Z"/>
    <path class="cls-4" d="M450.69,606.32c1.46,1.61,2.61,3.42,3.78,5.38-20.32,2.08-41.64-6.04-32.54-6.04,11.29,0,38.46-4.25,38.56-16.96,1.87,5.64-1.62,12.61-9.8,17.62Z"/>
    <path class="cls-4" d="M459.5,719c-2,2.83-9.17,5-9.17,5-4.99.3-7.07-.97-7.46-2.56-1.07.21-2.03.32-2.82.31-.75-.5-1.48-.98-2.2-1.46-13.74-9.13-23.46-16.13-23.46-16.13,0,0,1.39-.55,3.51-1.54,7.34-3.41,23.48-11.99,21.74-20.71-2.18-10.88-12.54-9.37-13.22-9.26,4.78-2.01,18.86-5.92,15.6-14.24-3.18-8.08-16.52-4.49-17.34-4.26,11.72-3.92,14.71-9,18.71-13.49,4-4.5-13.25-4.75-13.25-4.75,7.79-1.42,16.69-3.95,27.34-15.8.22,5.23-2.31,11.18-9.57,14,1.15.7,1.95,1.42,2.27,2.19,1.61,3.88,3.63,12.39-12.77,16.7,4.75,1.7,8.57,4.62,8.92,9.67.21,2.85-1.27,5.06-3.8,6.73,4.71,2.52,5.55,6.42,5.14,8.77-.1.54-.29,1.16-.61,1.82,1.04.11,2.1.22,3.18.34,0,0,3.21,3.36,2.43,6.67-.28,1.17-1.49,3.52-3.41,6.1,1.89.41,3.18,1.14,3.53,2.23.64,2.04.25,3.99-.81,5.77,1.29.19,2.2.59,2.52,1.23,1.4,2.81-.13,5.26-2.1,7,3.03,1.24,5.56,4.07,2.43,6.81,3.24.37,5.76,1.32,4.67,2.86Z"/>
    <path class="cls-4" d="M388.35,558.27c.11-.07.22-.14.33-.2-3.17-.95-6.04-2.35-8.48-4.58-4.12-3.77-7.02-8.33-8.03-13.03,6.4,9.88,18.16,15.08,33.72,18.45,0,0-8.02,0-17.54-.64Z"/>
    <path class="cls-4" d="M409.89,580.41c-6.39-.16-16.38-.9-25.91-2.4-1.63-1.81-2.76-3.7-3.33-5.61,11.49,5.54,29.24,8.01,29.24,8.01Z"/>
    <path class="cls-4" d="M416.39,651.16s-8.29,2.8-17.81,2.02c.73-.4,1.56-.75,2.49-1.07-8.09-3.7-12.97-10.1-14.86-17.15,9.11,9.96,24.42,15.08,30.18,16.2Z"/>
    <path class="cls-4" d="M411.9,611.54s-12.7,6.11-24.12,5.23c.12-.28.25-.55.39-.83-4.07-5.05-3.8-9.79-.54-13.44-4.16-3.47-6.53-7.42-7.31-11.24,17.71,18.33,31.58,20.28,31.58,20.28Z"/>
    <path class="cls-4" d="M416.39,682.33s-3.21,3.45-9.87,4.8c.08-.28.19-.56.33-.83-4.65-2.34-7.69-5.73-9.09-9.03,7.09,4.31,14.29,5.29,18.63,5.06Z"/>
    <path class="cls-2" d="M610.11,184.88c-299.47.28-305.47,7.72-322.47,0-17-7.72,54.91,120.64,234.96,136.46,0,0-40.38,15.82-104.67,10.82,0,0,58.01,46.17,127.36,49.08,0,0-56.73-23.62-43.69-29.35,13.04-5.73,97.54-25.38,98.04-30.56.5-5.18-227.5-40.68-220.5-88.68s230.97-47.78,230.97-47.78Z"/>
    <path class="cls-1" d="M459.42,22.24C144.18,15.84,121.74,37.24,118.74,53.74c-3,16.5,205.06,70.42,475.26,76.46,0,0-629.75,10.54-538.26-76.46C112.75.13,459.42,22.24,459.42,22.24Z"/>
    <path class="cls-1" d="M729.21,187.46c199.49-.23,222.02-40.58,201.43-52.63-31.56-18.47-102.44-29.18-102.44-29.18,0,0,143.88-10.88,144,51.93.1,49.92-242.99,29.88-242.99,29.88Z"/>
    <path class="cls-1" d="M481.9,63.42c214.75,24.74,300.75,52.24,300.75,54.49s-48.33-32.75-150.67-43.75c-102.33-11-150.08-10.74-150.08-10.74Z"/>
    <path class="cls-1" d="M179.64,159.76c254.34,82.4,566.01,58.8,566.01,58.8,0,0-158.02,31.88-373.47,0-150.85-22.32-192.54-58.8-192.54-58.8Z"/>
    <path class="cls-1" d="M807.64,266.83c56,19.33-54.64,51.08-268.32,50.7,0,0,392.32-.13,346.32-26.75-46-26.62-78-23.95-78-23.95Z"/>
    <path class="cls-1" d="M95,113.85c-140.36,8.31,160.64,66.31,174.64,62.31.97,9.03-294.16-30.1-268-51,24.25-19.37,93.36-11.31,93.36-11.31Z"/>
    <path class="cls-1" d="M401.3,482.83c170.67,17.33,236.86,14.53,176.67,3.11,0,0,58.02,8.22,60,14.55,4.33,13.87-236.67-17.67-236.67-17.67Z"/>
    <path class="cls-1" d="M906.64,194.53c164-1.37,73-33.57,73-33.57,0,0,56,5.63,49,23.92-7,18.28-122,9.65-122,9.65Z"/>
    <path class="cls-1" d="M204.64,250.16c283.16,79.58,365.84,82,365.84,82,0,0-147.84-8-238.5-30s-127.33-52-127.33-52Z"/>
    <path class="cls-1" d="M367.97,428.87c120,16.46,197.38,13.78,240,10.78,26.65-1.88,80.16-8.55,11.98,10.35-70.68,19.59-251.99-17.39-251.98-21.12Z"/>
    <path class="cls-1" d="M705.31,372.16c79.33,13.33-38.14,32.41-78.41,29.2,0,0,186.35,12.94,131.74-20.12-19.48-9.08-53.33-9.08-53.33-9.08Z"/>
    <path class="cls-1" d="M356.07,504.02c-40.76,10.14,85.91,38.74,99.91,36.44-.1,4.03-158.72-12.27-138-31.63,12.67-9.18,38.09-4.81,38.09-4.81Z"/>
    <path class="cls-1" d="M411.91,588.7c87.4,16.13,100.4,3.77,95.07,0-5.33-3.77-27.33-6.54-27.33-6.54,0,0,41.75-2.2,40.03,12-2.36,19.41-107.76-5.46-107.76-5.46Z"/>
    <path class="cls-1" d="M380.65,604.06c-5.01,3.1,23.66,19.1,63.66,18.77,0,0-55,3.24-70.67-9.38-5.67-11.33,7.01-9.39,7.01-9.39Z"/>
    <path class="cls-1" d="M405.89,644.14c55.42-.98,67.65-13.65,53.87-11.65,0,0,14.88-4.73,15.55,2.47.67,7.2-69.42,9.18-69.42,9.18Z"/>
    <path class="cls-1" d="M329.64,442.27c-94,4.88,58.09,27.61,73.66,29.86,0,0-159.27-1.98-137.72-22.98,21.55-21,64.05-6.88,64.05-6.88Z"/>
    <path class="cls-1" d="M470.49.13c395.15,30.03,320.66,85.03,243.87,85.03,0,0,285.79,14,175.03-38C778.64-4.84,465.83.13,465.83.13"/>
    <path class="cls-4" d="M109.75,199.96c-103.49,12.77,85.01,48.32,85.01,48.32,0,0-215.45-18.79-163.45-36.12,52-17.33,78.44-12.19,78.44-12.19Z"/>
    <path class="cls-4" d="M814.64,317.53c79.33,8.62-130.16,14.57-142.67,14.62-12.51.05,274,12.04,208-7.31s-65.33-7.31-65.33-7.31Z"/>
    <path class="cls-4" d="M194.76,348.83c-110.12,16,139.19,53.72,255.88,54.71,0,0-288.4-48.26-229.32-54.71"/>
    <path class="cls-1" d="M202.64,290.78c-145,26.75,123.36,66.88,391.36,82.09,1.28,16.64-533.93,5.54-489.36-55.33,26.1-18.19,98-26.76,98-26.76Z"/>
    <path class="cls-4" d="M383.98,633.16c-44.33,3,17,18.33,46.33,15,.49,3.2-102.37,1.05-82.15-10.61,19.44-11.21,35.81-4.39,35.81-4.39Z"/>
    <path class="cls-4" d="M365.98,569.83c-25.33,2,46.1,21.97,46.1,21.97,0,0-76.4-16.16-67.75-19.4,8.65-3.24,21.65-2.57,21.65-2.57Z"/>
    <path class="cls-4" d="M492.31,610.49c51,1.67,38.33-5.46,33-6.56-5.33-1.11,17.67-.11,15.67,5.23-2,5.33-48.67,1.33-48.67,1.33Z"/>
  </g>
</svg>