<?xml version="1.0" encoding="UTF-8"?>
<svg id="Layer_2" data-name="Layer 2" xmlns="http://www.w3.org/2000/svg" viewBox="0 0 753.24 739.59">
  <defs>
    <style>
      .cls-1 {
        fill: #d1e5ed;
      }

      .cls-2 {
        fill: #a2b3bc;
      }

      .cls-3 {
        fill: #93a6b2;
      }

      .cls-4 {
        fill: #5d7887;
      }
    </style>
  </defs>
  <g id="Layer_1-2" data-name="Layer 1">
    <g>
      <g>
        <path class="cls-3" d="M661.09,148.03c.02,1.87.01,3.75-.03,5.67-.02.62-.04,1.24-.06,1.86-.02.62-.05,1.25-.08,1.87-.04.83-.09,1.67-.16,2.53,0,.16-.01.31-.03.47-.07.9-.15,1.82-.23,2.75-.05.53-.1,1.07-.16,1.61-.07.68-.15,1.35-.23,2.04-.05.5-.11,1.01-.19,1.52-.06.52-.14,1.04-.21,1.56-.15,1.04-.3,2.08-.48,3.12,0,.05-.01.1-.02.15-.63,3.84-1.45,7.75-2.43,11.71-.73,2.87-1.55,5.76-2.48,8.7-2.24,7.01-5.1,14.18-8.7,21.46-.97,1.93-1.98,3.88-3.04,5.84-.72,1.3-1.45,2.61-2.21,3.92-.66,1.14-1.34,2.29-2.05,3.44-.34.56-.7,1.13-1.05,1.7-.31.49-.62.99-.95,1.49-.32.49-.64.99-.97,1.49-.98,1.49-2,2.97-3.04,4.47-1.04,1.49-2.12,2.99-3.24,4.48-.49.66-.98,1.3-1.48,1.96-.55.73-1.11,1.46-1.68,2.18-.57.72-1.14,1.45-1.74,2.17-.59.73-1.19,1.46-1.79,2.18-.6.73-1.22,1.46-1.84,2.18-.57.67-1.14,1.33-1.73,2-.58.67-1.18,1.33-1.77,2-.6.67-1.21,1.33-1.82,2-1.23,1.33-2.49,2.66-3.77,3.99-1.04,1.09-2.11,2.17-3.21,3.27-.35.35-.71.71-1.07,1.06-.57.55-1.13,1.11-1.72,1.67-.69.67-1.38,1.33-2.09,2h0c1.81,3.65,3.31,7.47,4.45,11.43,10.36,35.66-8.26,82.37-102.15,109.2.59.03,1.18.07,1.75.12,3.74.35,6.81,1.26,9.26,2.63l.03.02c.98.53,1.85,1.16,2.62,1.89l.18.14c11.71,10.73.25,37.3-24.44,57.07-2,1.6-4.08,3.16-6.24,4.66-.67.46-1.38.93-2.12,1.38,1.41,1.91,2.52,4.04,3.23,6.28,1.54,4.77,1.37,10.11-1.11,15.22-1.08,2.2-4.51,4.81-9.72,7.67,1.48,1.02,2.63,2.24,3.52,3.62.97,1.51,1.61,3.22,1.99,5.08v.04c1.54,7.62-1.51,17.56-5.52,25.6-.25.52-.6,1.06-1.03,1.62,4.59,2.53,8.05,6.66,10.67,11.6,1.37,2.57,2.52,5.36,3.47,8.25h0c2.88,8.6,4.14,18.13,4.92,25.64.47,4.54-1.85,9.74-6.21,15.14.08.04.17.08.25.14,4.47,2.4,7.37,6.41,9.87,11.76v.03c1.77,3.82,3.33,8.29,5.1,13.31,1.68,4.75-.21,10.13-4.66,15.55,1.15.28,2.32.66,3.46,1.15,1.64.7,3.27,1.64,4.84,2.89,1.48,1.16,2.67,2.4,3.56,3.72,3.06,4.52,2.48,9.89-2.77,15.75,0,.29,0,.58-.02.88.09,0,.19,0,.28.01.76.02,1.54.28,2.33.73,6.89,3.9,14.24,22,10.97,25.88-.76.9-1.6,2.26-2.52,3.92-.02.02-.04.05-.04.07-.21.35-.41.72-.6,1.09.35-.14.72-.25,1.08-.34,1.16-.3,2.4-.35,3.66.01.67.18,1.33.47,2.01.9,2.16,1.38,2.03,5.43.67,10.33,5.95-1.57,9.27,3.16,8.27,9.15-.22,1.32-.73,2.75-1.43,4.2,1.23,1.26,2.09,3.17,2.4,5.18,1.81.73,2.99,3.94,2.18,6.7-1.07,3.69-6.64,6.29-7.76,3.14-3,1.49-6.45,1.8-8.27.21-.83.86-1.35,1.37-1.35,1.37-3.06.29-5.39-.2-7.07-1.26-1.25-.76-2.13-1.84-2.7-3.13-4.94,2.64-10.34,1.02-15.28-5.3-7.76,3.95-11.8.12-16.21-2.96-1.8-1.26-1.89-4.07-.35-8.74-6.01,3.83-12.3,5.16-17.85,1.46-12.43-8.29-20.61-16.64-21.14-23.16,0-.04-.01-.08-.01-.12-14.23,2.07-21.81-.88-24.77-6.56-1.87-3.57-1.91-8.2-.63-13.32.05-.21.1-.41.16-.61-10.17-.4-17.3-3.05-21.91-7.1-6.2-5.45-7.85-13.45-6.26-21.99.01-.04.01-.07.02-.11-11.21-.15-19.67-2.53-25.4-7.08h-.01c-3.69-2.91-6.26-6.73-7.69-11.42-1.73-5.52-1.88-12.25-.51-20.15-3.26.92-6.53,1.22-9.8,1h-.01s-.02.01-.03,0c-22.71-1.44-43.65-27.65-35.48-48.14.02-.05.04-.1.06-.16-.8.21-1.51.4-2.1.54-9.87,2.58-17.69-1.52-23.03-9.89-4.13-6.44-6.78-15.4-7.8-25.82-.9-.22-1.85-.47-2.81-.75t-.02,0c-19.65-5.8-49.34-25.34-51.29-60.69-.2-3.72-.09-7.62.37-11.7.02-.29.06-.57.09-.86-25.57-1.41-42.52-6.43-46.05-16.01-2.3-6.24-2.48-11.88-1.24-16.94.31-1.33.73-2.61,1.24-3.86-2.14-.49-4.22-1.02-6.27-1.57t-.02,0c-41.13-10.96-63.77-32.41-76.24-52.78-15.2-24.8-15.3-47.97-15.3-48.56h0C71.14,130.96,533.64-12.45,632.02,66.2c3.62,2.89,6.74,6.07,9.33,9.58,0,0,0,.01.01.02,3.44,4.66,5.85,9.43,7.29,14.33.01,0,.01.01.01.02,1.4,3.27,2.89,7.03,4.32,11.25.35,1.05.72,2.13,1.06,3.25.65,2.04,1.27,4.17,1.86,6.39.15.55.3,1.11.44,1.67.09.33.18.68.26,1.02.14.53.27,1.07.4,1.62.07.29.15.59.21.89.14.56.26,1.12.39,1.7.27,1.24.53,2.5.78,3.78.16.79.3,1.59.45,2.4.16.86.3,1.74.44,2.61.1.61.2,1.23.28,1.85.09.61.18,1.24.26,1.86.08.57.16,1.15.23,1.74.06.47.11.95.17,1.42.03.32.07.64.1.97.1.93.19,1.85.27,2.8.06.74.12,1.49.18,2.24.03.43.05.84.08,1.27.03.43.05.85.07,1.28.03.64.06,1.29.09,1.95.05,1.3.08,2.61.1,3.93Z"/>
        <path class="cls-3" d="M546.44,718.86c0,1.18-.67,2.13-1.49,2.13s-1.5-.96-1.5-2.13.67-2.14,1.5-2.14,1.49.96,1.49,2.14Z"/>
      </g>
      <ellipse class="cls-4" cx="361.41" cy="179.99" rx="206.85" ry="58.29" transform="translate(-38.02 121.08) rotate(-18.08)"/>
      <path class="cls-3" d="M550.06,92.22c-206.64,27.04-318.28,126.9-318.28,126.9,0,0,102.98-113.72,265.41-137.3l52.87,10.4Z"/>
      <path class="cls-3" d="M154.12,253.1c156.71,14.56,300.25-63.79,300.25-63.79,0,0-79.01,72.81-178.19,76.97-99.18,4.16-122.06-13.17-122.06-13.17Z"/>
      <path class="cls-4" d="M597.14,276.24c-127.32,67.59-298.18,70.18-268.98,64,44.39-9.39,88.38-18.67,131.21-34.1,45.87-16.53,95.55-35.58,129.77-71.78,35.12-37.16,51.98-87.14,48.69-137.93-.66-10.23-5.85-19.95-5.81-30.24,3.62,2.89,6.74,6.07,9.34,9.6,3.44,4.66,5.85,9.43,7.3,14.35,13.6,31.59,34.18,110.3-51.52,186.09Z"/>
      <path class="cls-4" d="M264.37,366.82s-48.41,19.45-93.7,29.34c-.01,0-.01.01-.02,0-41.13-10.96-63.77-32.41-76.24-52.78,37.91,30.24,110.11,34.66,169.96,23.43Z"/>
      <path class="cls-4" d="M505.68,391.17c.59.03,1.18.07,1.75.12-42.61,11.87-81.56,17.44-84.13,17.81,66.24-10.11,185.7-64.51,184.53-127.14,10.36,35.66-8.26,82.37-102.15,109.2Z"/>
      <path class="cls-4" d="M378.69,409.14c-3.15.71-84.67,18.92-155.79,26.26.02-.29.06-.57.09-.86-25.57-1.41-42.52-6.43-46.05-16.01-2.3-6.24-2.48-11.88-1.24-16.94,8.23,32.47,145.38,18.66,202.98,7.55Z"/>
      <path class="cls-4" d="M361.42,485.05s-44.6,18.45-87.58,22.75h-.02c-19.65-5.8-49.34-25.34-51.29-60.69h.01c9.07,34.82,93.93,44.18,138.88,37.94Z"/>
      <path class="cls-4" d="M488.83,457.7c-.67.46-1.38.93-2.12,1.38,1.41,1.91,2.52,4.04,3.23,6.28-20.22,4.13-46.15,3.56-46.15,3.56,0,0,79.57-30.68,72.89-75l.03.02,2.62,1.89.18.14c12.66,11.61-1.76,41.7-30.68,61.73Z"/>
      <path class="cls-4" d="M358.77,530.32c-12.6,3.72-31.87,9.28-49.26,13.55.02-.05.04-.1.06-.16-.8.21-1.51.4-2.1.54-9.87,2.58-17.69-1.52-23.03-9.89,31.07,2,55.91.18,74.33-4.05Z"/>
      <path class="cls-4" d="M373.61,525.95c-.14.07-1.25.46-3.55,1.23-3.44,1.15-7.21,2.2-11.29,3.14,8.72-2.57,14.52-4.35,14.83-4.37Z"/>
      <path class="cls-4" d="M488.74,535.81c-15.2,13.39-43.71,18.7-44.9,18.92,10.95-4.52,25.71-14.62,34.83-30.17.02.01.03.02.05.03.18.1.35.21.52.32.86.55,1.67,1.15,2.45,1.82.21.17.42.35.61.53.26.24.52.48.77.74.22.22.44.44.66.68.23.24.45.48.67.74.2.23.4.46.58.69.19.23.37.46.55.69.17.21.33.44.49.66s.31.44.47.66c.07.1.15.21.22.32.36.54.71,1.09,1.05,1.65.34.57.67,1.14.98,1.74h0Z"/>
      <path class="cls-4" d="M402.19,567.74s-22.22,31.62-46.85,43.42c-1.73-5.52-1.88-12.25-.51-20.15-3.26.92-6.53,1.22-9.8,1,19.53-2.37,39.23-11.82,57.16-24.27Z"/>
      <path class="cls-4" d="M490.92,584.84c.08.04.17.08.25.14-18.51,18.16-46.05,29.99-47.34,30.53,1.43-.82,40.91-23.84,48.38-71.44,2.88,8.59,4.14,18.12,4.92,25.63.47,4.54-1.85,9.74-6.21,15.14Z"/>
      <path class="cls-4" d="M388.42,629.77s.01-.07.02-.11c-11.21-.15-19.67-2.53-25.4-7.08,29.88,5.96,70.28-14.71,74.65-17.01-3.52,1.94-30.37,16.68-49.27,24.2Z"/>
      <path class="cls-4" d="M442.51,649.39c-5.54,2.27-15.77,6.38-26.09,10.09.05-.21.1-.41.16-.61-10.17-.4-17.3-3.05-21.91-7.1,23.52,4.53,40.41.27,47.84-2.37Z"/>
      <path class="cls-4" d="M446.74,647.65s-1.46.76-4.22,1.74c2.65-1.07,4.22-1.74,4.22-1.74Z"/>
      <path class="cls-4" d="M501.48,625.63c1.15.28,2.32.66,3.46,1.15-13.53,15.97-32.96,29.18-35.13,30.62,2.85-1.99,34.67-25.02,31.22-60.64,1.77,3.82,3.33,8.29,5.1,13.31,1.68,4.75-.21,10.13-4.66,15.55Z"/>
      <path class="cls-4" d="M510.83,650.05c.76.02,1.54.28,2.33.73-.58.44-1.19.85-1.78,1.25-7.34,4.91-14.92,7.6-15.38,7.76.49-.42,12.29-10.44,17.34-26.38,3.06,4.52,2.48,9.89-2.77,15.75.09.3.18.6.26.89Z"/>
      <path class="cls-4" d="M525.72,681.41c-.72.9-1.5,1.74-2.32,2.51-8.11,7.69-20.45,9.82-19.79,9.16,1.01-1.01,14.98-13.37,7.78-41.05-.18-.64-.35-1.31-.55-1.98.76.02,1.54.28,2.33.73,6.89,3.9,14.24,22,10.97,25.88-.76.9-1.6,2.26-2.52,3.92-.02.02-.04.05-.04.07.17.25.32.5.48.75,1.16-.3,2.4-.35,3.66.01Z"/>
      <path class="cls-4" d="M455.92,667.89c-1.79,1.58-7.9,6.9-14.08,11.6,0-.04-.01-.08-.01-.12-14.23,2.07-21.81-.88-24.77-6.56,26.53,3.3,36.59-3.09,38.86-4.91Z"/>
      <path class="cls-4" d="M456.38,667.5c-.07.06-.2.19-.38.34.19-.18.31-.29.38-.34Z"/>
      <path class="cls-4" d="M521.58,680.65s-.02-.03-.03-.05l.07-.02s-.04.05-.04.07Z"/>
      <path class="cls-4" d="M539.82,717.87c-1.07,3.69-6.64,6.29-7.76,3.14-3,1.49-6.45,1.8-8.27.21-.83.86-1.35,1.37-1.35,1.37-3.06.29-5.39-.2-7.07-1.26,4.5-6.46,14.99-22.49,8.03-37.42-.4-.84-.84-1.69-1.34-2.52,1.16-.3,2.4-.35,3.66.01.67.18,1.33.47,2.01.9,2.16,1.38,2.03,5.43.67,10.33,5.95-1.57,9.27,3.16,8.27,9.15-.22,1.32-.73,2.75-1.43,4.2,1.23,1.26,2.09,3.17,2.4,5.18,1.81.73,2.99,3.94,2.18,6.7Z"/>
      <path class="cls-4" d="M546.44,718.86c0,1.18-.67,2.13-1.49,2.13s-1.5-.96-1.5-2.13.67-2.14,1.5-2.14,1.49.96,1.49,2.14Z"/>
      <path class="cls-4" d="M489.94,465.37c1.54,4.77,1.37,10.11-1.11,15.22-1.08,2.2-4.51,4.81-9.72,7.67,1.48,1.02,2.63,2.24,3.52,3.62-23.54,14.21-58,25.34-59.29,25.74,1.85-.94,63.53-32.23,58.41-55.79,0,0,6.18-11.46,13.31-8.78-2,1.6-4.08,3.16-6.24,4.66-.67.46-1.38.93-2.12,1.38,1.41,1.91,2.52,4.04,3.23,6.28Z"/>
      <path class="cls-2" d="M520.14,189.3c-246.4,141.81-345.19,132.44-345.19,132.44,0,0,94.09,64.85,225.41,48.03,131.32-16.82-37.89,69.53-75.5,77.32-37.61,7.79,106.59,3.15,134.34-11.69,0,0-68.46-.89-57.02-3.97,11.44-3.08,21.84-29.6,60.33-41.56,38.48-11.96,57.62-34.84,57.62-34.84,0,0-211.56-3.32-246.92-12.58,0,0,168.23-68.03,210.75-109.12,42.52-41.09,36.17-44.03,36.17-44.03Z"/>
      <path class="cls-1" d="M238.24,512.09c-84.31,62.91,57.91,81.7,269.8-15.21,0,0-212.39,114.4-280.07,81.51-59.1-28.72,10.27-66.3,10.27-66.3Z"/>
      <path class="cls-1" d="M363.04,37.79C699.15.35,537.36,120.33,509.56,141.47c-27.8,21.14,209.35-100.43,133.42-132.22-75.93-31.79-279.94,28.54-279.94,28.54Z"/>
      <path class="cls-1" d="M130.08,196.23c-274.63,156.32,137.27,105.07,269.68,33.41,0,0-322.75,156.37-389.81,88.85-52.53-52.89,120.13-122.27,120.13-122.27Z"/>
      <path class="cls-1" d="M659.53,128.58c123.87-16.94-113.63,122.92-212.79,156.48,4.29,6.67,372.4-135.87,296.1-158.41-71.73-21.18-83.3,1.93-83.3,1.93Z"/>
      <path class="cls-1" d="M237.33,396.16c241.51,2.37,318.88-59.85,318.88-59.85,0,0-32.33,53.59-155.84,65.28-123.51,11.69-163.04-5.42-163.04-5.42Z"/>
      <path class="cls-1" d="M79.01,342.45c54.3,31.99,204.92,11.11,225.23,8.42,0,0-134.87,42.3-205.6,27.04s-19.63-35.46-19.63-35.46Z"/>
      <path class="cls-1" d="M540.08,393.92c94.71-4.24,2.42,46.38-156.09,69.3-3.36,8.79,274.8-38.65,216-69.3-37.75-19.67-59.91,0-59.91,0Z"/>
      <path class="cls-1" d="M208.9,464.29c-19.42,1,29.82,19.03,142.15-5.24,0,0-194.16,45.34-178.9,12.62,2.8-7.38,36.75-7.38,36.75-7.38Z"/>
      <path class="cls-1" d="M497.19,530.32c95.86-10.42-34.86,93.72-41.27,96.77-6.41,3.06,128.29-76.91,96.57-109.47-12.41-9.82-55.3,12.7-55.3,12.7Z"/>
      <path class="cls-1" d="M396.77,663.95c-19.02,11.96,35.58,8.45,77.71-17.36,0,0-40.23,45.44-95.79,38.16-17.07-5.2,18.08-20.8,18.08-20.8Z"/>
      <path class="cls-1" d="M519.2,635.18c55.13-11.09-9.01,46.81-18.03,53.39,0,0,72.46-48.94,54.09-58.8-18.38-9.85-36.06,5.4-36.06,5.4Z"/>
      <path class="cls-1" d="M440.15,691.34c-13.52,10.75,24.27,9.09,61.02-19.73,0,0-42.65,36.71-69.69,38.45-27.04,1.73,8.67-18.72,8.67-18.72Z"/>
      <path class="cls-1" d="M532.38,680.03c25.87-8.41,8.32,14.3-7.97,30.14-16.3,15.84-49.58,26.15-37.44,8.69,0,0-39.33,49.8,38.76-4.98,67.69-65.36,6.66-33.85,6.66-33.85Z"/>
      <path class="cls-1" d="M629.11,262.81c56.17.69-41.1,52.7-72.9,62.41,0,0,149.87-50.72,120.75-58.3s-47.85-4.11-47.85-4.11Z"/>
      <path class="cls-1" d="M71.95,201.51C187.4,80.44,363.04,37.79,363.04,37.79c0,0-148.59,26.92-241.17,88.87-92.57,61.95-42.86,77.67-42.86,77.67"/>
      <path class="cls-1" d="M442.51,87.72c76.99-1.51-78.29,83.66-108.45,92.27-30.16,8.62,199.97-60.42,158.93-92.29-19.2-11.07-50.47.02-50.47.02Z"/>
      <path class="cls-1" d="M345.03,605.57c-35.59,15.74,32.07,28.11,91.46-8.8,0,0-85.44,55.3-105.55,29.69-11.44-15.3,14.09-20.89,14.09-20.89Z"/>
      <path class="cls-1" d="M474.48,544.07c-40.57,31.47-95.59,50.17-95.79,50.35-.2.18,35.04-5.28,65.93-23.26s29.85-27.09,29.85-27.09Z"/>
    </g>
  </g>
</svg>