<?xml version="1.0" encoding="UTF-8"?>
<svg id="Layer_2" data-name="Layer 2" xmlns="http://www.w3.org/2000/svg" viewBox="0 0 953.75 814.34">
  <defs>
    <style>
      .cls-1 {
        fill: #d1e5ed;
      }

      .cls-2 {
        fill: #a2b3bc;
      }

      .cls-3 {
        fill: #93a6b2;
      }

      .cls-4 {
        fill: #5d7887;
      }
    </style>
  </defs>
  <g id="Layer_1-2" data-name="Layer 1">
    <g>
      <path class="cls-3" d="M740.41,212.13c-3.95,6.25-11.42,13.01-21.79,20.06h0c-10.18,6.93-23.16,14.14-38.33,21.4,4.79,1.65,8.81,3.59,11.96,5.83h0c4.52,3.22,7.26,7.07,7.93,11.6,3.73,25.1-.34,40.88-26.49,54.96h0c-11.87,6.4-28.31,12.44-50.64,18.84.7.25,1.39.52,2.06.79h0c15.48,6.24,25.83,17.85,27.85,34.45,1.87,15.36.67,28.76-14.48,40.02-.7.52-1.44,1.04-2.2,1.56,12.34,3.92,20.48,9.53,22.75,17.28,1.65,5.64,2.52,11.07,2.58,16.26h0c.23,16.85-7.86,31.26-24.67,42.46-11.24,7.5-26.36,13.57-45.5,17.98.92.62,1.79,1.27,2.61,1.96,17.02,14.03,14.72,40.22,1.78,61.58-1.42,2.34-3.58,4.32-6.41,5.99-4.62,2.74-11.01,4.61-18.73,5.76,2.93,2.03,4.75,3.91,5.23,5.57.14.49.29,1,.43,1.51h0c3.12,11.01,5.45,24.21-14.99,32.15-4.71,1.84-10.64,3.39-18.04,4.56,8.9,8.32,10.83,14.41,6.92,18.83-3.18,3.6-10.2,6.09-20.47,7.79,2.2,6.15-3.5,12.03-14.19,16.81-3.77,1.69-8.16,3.24-13.05,4.62,7.45,3.21,12.35,6.97,13.66,11.55.32,1.12.25,2.27-.16,3.43-1.72,4.88-9.55,10.03-20.8,14.94,14.37,2.07,16.29,7.68,15.76,11.93-.31,2.48-8.63,7.41-20.14,13.03,5.71,2.11,7.84,6.8,6.72,12.94-.52,2.86-4.66,6.07-10.78,9.32-1.98,1.06-4.17,2.11-6.5,3.16,1.12.56,2.17,1.15,3.14,1.76,4.81,3,7.76,6.47,7.66,9.56-.15,4.3-4.67,7.54-11.07,9.98,1.17,1.93,1.71,4.44,2.41,7.43,1.82,7.66-13.41,10.73-26.65,9.86-9.85-.64,13.76-4.41,14.08-10.03-6.78-.91-11.81-5.35-13.77-9.86-10.51.78-15.83-3.57-13.4-14.26-.08-.01-.16-.02-.24-.05-2.96-.55-6.15-3.41-8.41-5.83-1.78-1.93-2.97-3.57-2.97-3.57-3.84-8.98-2.43-12.52,2.9-19.73h-.51c-15.47,0-24.9-3.64-30.88-8.82-5.73-4.94-8.29-11.29-9.96-17.15-1.66-5.85-3.79-19.1,0-28.36h0c1.06-2.61,2.6-4.89,4.74-6.61-5.63-3.1-14.7-9.73-22.79-16.83-6.96-6.11-13.19-12.56-15.88-17.41-.44-.79-.78-1.53-1.02-2.23-4.76-5.85-6.05-12.17-4.5-18.18h0c1.79-6.92,7.36-13.4,15.79-18.22-3.6-3.06-6.14-6.12-7.88-9.1-8.13-13.83.85-25.76.85-25.76,3.78-7-3.82-11.92-4.08-15.16-.14-1.69,1.7-2.92,8.15-3.75-6.24-3.39-11.83-6.97-16.69-10.62-13.19-9.91-21.04-20.35-21.99-28.99-.46-4.32.79-8.19,3.97-11.32-9.04-4.19-15.76-8.82-20.33-13.81-7.32-8-9.15-16.94-6.26-26.51,1.36-4.52,3.78-9.19,7.18-13.96-10.45-2.56-19.28-5.5-26.59-8.68-19.56-8.52-28.24-18.78-27.92-28.19.24-6.93,1.01-12.48,6.15-17.13-10.7-5.06-15.67-11.07-17.99-15.5-1.95-3.72-2.01-6.32-2.01-6.32-.51-8.48,3.39-16.88,10.8-25.08-30.9-2.71-56.25-9.6-72.9-21.79-1.25-.92-2.46-1.87-3.61-2.85-4.66-1.15-9.15-2.84-13.22-5.36-6.02-3.74-10.72-9.04-14.71-14.82-1.48-2.14-2.85-4.34-4.16-6.55-4.44-7.51-8.28-15.29-10.29-23.76-.33-1.39-.61-2.81-.84-4.24-1.35-8.58-.51-17.35,1.96-25.66,2.77-9.3,7.45-17.96,12.99-25.9,6.55-9.39,14.35-17.89,22.66-25.75,9.69-9.15,20.15-17.46,30.98-25.2,12.22-8.74,24.95-16.75,37.95-24.25,14.21-8.2,28.78-15.79,43.57-22.91,15.71-7.57,31.68-14.59,47.82-21.17,16.73-6.82,33.65-13.15,50.74-19.04,17.28-5.96,34.72-11.46,52.29-16.5,17.37-4.99,34.87-9.53,52.49-13.58,17.01-3.91,34.13-7.36,51.34-10.26,16.2-2.72,32.48-4.96,48.83-6.53,14.95-1.44,29.96-2.34,44.98-2.41,13.28-.07,26.58.49,39.77,2.1,11.24,1.37,22.44,3.5,33.21,7,8.92,2.91,17.66,6.79,25.28,12.32,6.58,4.76,12.26,10.78,16.03,18.01.65,1.26,1.24,2.54,1.77,3.84,2.6,6.41,3.72,13.34,3.63,20.27-.07,5.86-.95,11.67-2.37,17.36-.9,3.66-2.02,7.26-3.3,10.8,5.84,7.09,9.7,15.67,11.38,25.35h0c3.39,19.5-2.1,43.49-18.22,69.02Z"/>
      <path class="cls-4" d="M454.6,804.79c-12.82,5.63-5.9,9.95,11.85,9.52,17.75-.43,7.04-12.55,4.17-12.55s-16.02,3.03-16.02,3.03Z"/>
      <path class="cls-4" d="M245.55,376c-1.95-3.72-2.01-6.32-2.01-6.32-.51-8.48,3.39-16.88,10.8-25.08-30.9-2.71-56.25-9.6-72.9-21.79,67.61-94.55,286.92-121.66,316.82-125.93,31.11-4.44-202.92,61.01-252.72,179.12Z"/>
      <path class="cls-4" d="M758.63,143.11c-147.31-47.73-283.47,7.48-293.53,10.78-9.69,3.19,159.63-72.02,285.45-46.92-.9,3.66-2.02,7.26-3.3,10.8,5.84,7.09,9.7,15.67,11.38,25.35Z"/>
      <path class="cls-4" d="M680.29,253.59c4.79,1.65,8.81,3.59,11.96,5.83-53.55-28.59-162.12-21.25-162.12-21.25,19.82-8.35,100.6-28.3,188.48-5.98-10.18,6.93-23.16,14.14-38.33,21.4Z"/>
      <path class="cls-4" d="M623.06,344.82c.7.25,1.39.52,2.06.79-22.67-1.24-55.18-1.85-102.37-2.4,59.24-21.03,111.65-25.11,150.95-17.23-11.87,6.4-28.31,12.44-50.64,18.84Z"/>
      <path class="cls-4" d="M661.63,455.18c-66.15-43.04-129.64-40.57-169.61-33.17,5.24-1.03,83.2-16.96,146.48-1.93-.7.52-1.44,1.04-2.2,1.56,12.34,3.92,20.48,9.53,22.75,17.28,1.65,5.64,2.52,11.07,2.58,16.26Z"/>
      <path class="cls-4" d="M591.46,515.62c.92.62,1.79,1.27,2.61,1.96-60.46-29.53-119.82-20.74-121.25-20.54,1.61-.65,95.28-38.28,164.13.6-11.24,7.5-26.36,13.57-45.5,17.98Z"/>
      <path class="cls-4" d="M499.36,339.96c-33.64,6.03-136.9,45.6-194.64,119.5,1.36-4.52,3.78-9.19,7.18-13.96-10.45-2.56-19.28-5.5-26.59-8.68,68.81-80.69,180.22-94.27,214.05-96.85Z"/>
      <path class="cls-4" d="M499.36,339.96c3.45-.63,6.16-.89,8.02-.81,4.62.21,1.15.11-8.02.81Z"/>
      <path class="cls-4" d="M452.15,531.67c-12.17.13-54.07,6.2-94.29,22.8-.14-1.69,1.7-2.92,8.15-3.75-6.24-3.39-11.83-6.97-16.69-10.62,53.75-8.77,118.99-8.6,102.83-8.42Z"/>
      <path class="cls-4" d="M575.95,596.47c.14.49.29,1,.43,1.51-20.61-29-84.6-51.98-84.6-51.98,0,0,63.77,4.56,97.66,39.15-4.62,2.74-11.01,4.61-18.73,5.76,2.93,2.03,4.75,3.91,5.23,5.57Z"/>
      <path class="cls-4" d="M550.27,653.51c-18.37-35.16-53.81-42.72-61.98-44.08-8.02-1.34,49.63-9.84,73.1,20.69-4.71,1.84-10.64,3.39-18.04,4.56,8.9,8.32,10.83,14.41,6.92,18.83Z"/>
      <path class="cls-4" d="M454.65,670.93s-32.04-2.77-62.01,13.02c1.06-2.61,2.6-4.88,4.74-6.6-5.63-3.1-14.7-9.73-22.79-16.83-6.96-6.11-13.19-12.56-15.88-17.41,51.27-6.33,95.94,27.82,95.94,27.82Z"/>
      <path class="cls-4" d="M516.06,697.71c-20.16-18.95-18.21-17.98-30.52-19.61-9.82-1.3,13.9-1.63,30.07.01-3.77,1.69-8.16,3.24-13.05,4.62,7.45,3.21,12.35,6.97,13.66,11.55.32,1.12.25,2.27-.16,3.43Z"/>
      <path class="cls-4" d="M483.23,723.3s-31.9,1.36-49.75,14.98c-15.47,0-24.9-3.64-30.88-8.82,53.09-15.52,77.44-7.73,80.63-6.16Z"/>
      <path class="cls-4" d="M480.32,763.03c1.12.56,2.17,1.15,3.14,1.76-12.59-1.99-25.88-.28-25.88-.28,1.51-1.51,14.62-6.75,29.25-4.64-1.98,1.06-4.17,2.11-6.5,3.16Z"/>
      <path class="cls-4" d="M468.81,755.02s-16.02,2.34-26.33,12.4c-2.96-.55-6.15-3.41-8.41-5.83,9.17-6.57,34.74-6.57,34.74-6.57Z"/>
      <path class="cls-4" d="M469.79,593.94c-1.33-.18-82.7-11.24-116.6,28.76,1.79-6.91,7.36-13.4,15.79-18.21-3.6-3.06-6.14-6.12-7.88-9.1,47.92-23.07,107.48-1.89,108.69-1.45Z"/>
      <path class="cls-2" d="M372.92,101.83c47.45-16.13,128.2-8.62,128.2-8.62-84.46,4.92-339.06,84.79-365.65,176.25-.33-1.39-.61-2.81-.84-4.24-1.35-8.58-.51-17.35,1.96-25.66,2.77-9.3,7.45-17.96,12.99-25.9,6.55-9.39,14.35-17.89,22.66-25.75,9.69-9.15,20.15-17.46,30.98-25.2,12.22-8.74,24.95-16.75,37.95-24.25,14.21-8.2,28.78-15.79,43.57-22.91,15.71-7.57,31.68-14.59,47.82-21.17,16.73-6.82,33.65-13.15,50.74-19.04,17.28-5.96,34.72-11.46,52.29-16.5,17.37-4.99,34.87-9.53,52.49-13.58,17.01-3.91,34.13-7.36,51.34-10.26,16.2-2.72,32.48-4.96,48.83-6.53,14.95-1.44,29.96-2.34,44.98-2.41,13.28-.07,26.58.49,39.77,2.1,11.24,1.37,22.44,3.5,33.21,7,8.92,2.91,17.66,6.79,25.28,12.32,6.58,4.76,12.26,10.78,16.03,18.01.65,1.26,1.24,2.54,1.77,3.84-130.26-83.24-422.2,48.07-376.37,32.49Z"/>
      <path class="cls-4" d="M450.73,455.19c-3.69.46-103.34,13.34-123.39,55.91-.46-4.32.79-8.19,3.97-11.32-9.04-4.19-15.76-8.82-20.33-13.81,28.03-24.88,135.89-30.58,139.75-30.78Z"/>
      <path class="cls-1" d="M524.46,181.7c294.45-11.24,346.15,58.79,256.24,77.72,0,0,127.02-19,77.57-54.97-49.45-35.96-333.81-22.76-333.81-22.76Z"/>
      <path class="cls-1" d="M277.3,447.18c-160.69,5.62,83.81-119.11,239.12-141.59,0,0-338.01,35.2-344.75,141.77,0,25.66,105.63-.18,105.63-.18Z"/>
      <path class="cls-1" d="M667.53,473.34c89.9-15.73,74.98-73.63-157.32-77.54,0,0,268.57-2.58,252.84,38.6-15.73,41.18-95.52,38.93-95.52,38.93Z"/>
      <path class="cls-1" d="M149.91,299.77C69.74,306.26-4.84,115.96,516.42,18.57c0,0-574.91,80.75-511.55,250.89,24.41,52.79,145.04,30.31,145.04,30.31Z"/>
      <path class="cls-4" d="M64.92,208.95c-39.33,40.45,11.81,108.45,69.07,107.88,0,0-101.66-.34-110.65-47.37-8.99-47.02,41.58-60.51,41.58-60.51Z"/>
      <path class="cls-1" d="M485.29,466.58c-190.58,49.73-177.44,56.87-141.24,69.27,0,0-53.5,6.7-51.55-15.33,2.49-28.12,192.78-60.3,192.79-53.94Z"/>
      <path class="cls-1" d="M598.23,574.95c47.64-3.49,16.18-31.95-54.25-46.94,0,0,113.88,21.26,102.64,43.97-4.5,12.65-48.39,2.97-48.39,2.97Z"/>
      <path class="cls-1" d="M618.23.59c131.03-2.25,152.11,38.2,134.78,44.2,0,0,24.67.25,22.48-18.73C771.74-6.16,618.23.59,618.23.59Z"/>
      <path class="cls-1" d="M696.92,327.23c83.05-16.48-36.82-77.92-236.85-37.46,0,0,240.49-62.18,292.93,3,18.74,23.22-56.08,34.46-56.08,34.46Z"/>
      <path class="cls-2" d="M499.36,113.71c-90.24,24.72-84.25,53.19-84.25,53.19h161.71l-174.84,124.36s117.19-99.64,122.47-104.89c5.28-5.24-53.51-4.5-143.61,5.99-90.1,10.49,32.02-48.7,55.99-61.43,23.97-12.74,62.52-17.23,62.52-17.23Z"/>
      <path class="cls-1" d="M344.05,622.7c-95.25-42.24,116.02-42.91,190.94-24.72,0,0-210.52-62.47-231.5-4.78-4.5,14.14,40.56,29.5,40.56,29.5Z"/>
      <path class="cls-1" d="M522.75,687.36c63.93,3.23,39.2-14-2.75-25.99,0,0,63.68,8.27,63.68,25.99,0,12.74-60.93,0-60.93,0Z"/>
      <path class="cls-1" d="M468.81,707.82c-110.1,6.99-91.4,35.46-76.92,34.96,0,0-25.65,3.84-28.47-8.99-4.71-21.48,105.39-25.97,105.39-25.97Z"/>
      <path class="cls-4" d="M609.16,584.64c34.96.31,27.26-9.88,18.48-12.65,0,0,14.64,3.6,10.99,12.66-1.67,4.13-29.47,0-29.47,0Z"/>
      <path class="cls-4" d="M282.51,405.65c-66.43,24.47-59.25,63.11-17.98,56.94,0,0-48.95,11.99-51.44-11.99-2.5-23.97,69.42-44.95,69.42-44.95Z"/>
      <path class="cls-1" d="M303.17,498.82c-64.11,31.44-38.52,57.2,0,54.44,0,0-59.62,19.05-67.11-10.21-7.49-29.26,67.11-44.23,67.11-44.23Z"/>
      <path class="cls-1" d="M795.34,139.28c104.51-23.6-56.44-57.31-177.12-47.2,0,0,233.3-37.08,264.77,21.63,0,15.73-87.65,25.57-87.65,25.57Z"/>
      <path class="cls-1" d="M796.45,57.53c193.29,8.24,116.89,73.42,86.54,73.42,0,0,79.03-3.75,70.04-45.7-8.99-41.95-156.58-27.72-156.58-27.72Z"/>
      <path class="cls-4" d="M840.91,101.84c60.43,1.14,25.72,34.8,4.37,37.45,0,0,56.06-2.84,53.07-20.82-3-17.98-57.44-16.62-57.44-16.62Z"/>
    </g>
  </g>
</svg>