<?xml version="1.0" encoding="UTF-8"?>
<svg id="Layer_2" data-name="Layer 2" xmlns="http://www.w3.org/2000/svg" viewBox="0 0 654.1 965.16">
  <defs>
    <style>
      .cls-1 {
        fill: #d1e5ed;
      }

      .cls-2 {
        fill: #a2b3bc;
      }

      .cls-3 {
        fill: #93a6b2;
      }

      .cls-4 {
        fill: #5d7887;
      }
    </style>
  </defs>
  <g id="Layer_1-2" data-name="Layer 1">
    <g>
      <g>
        <path class="cls-3" d="M583.09,568.61c-.65,2.04-1.41,3.99-2.27,5.86-2.36,5.12-5.19,9.69-8.48,13.74-16.38,20.18-43.92,27.23-77.89,24.25,1.79,4.78,2.1,10.21-.61,15.45-4.69,9.07-18.45,17.57-49.26,21.15-1.49.17-3.02.33-4.59.48-7.77.73-17.72-1.04-29.27-4.8,0,.05.02.1.02.15.18,1.32.29,2.63.3,3.92,0,.71-.02,1.42-.07,2.11,0,.16-.02.32-.04.47-.11,1.17-.3,2.31-.58,3.42-.08.3-.16.6-.25.9,0,0,0,0,0,.02-.08.28-.18.56-.28.84-.11.32-.24.64-.37.96-.12.3-.26.59-.4.88-.13.28-.27.56-.43.83,0,.02-.02.05-.03.07-.62,1.12-1.37,2.2-2.26,3.23-.22.26-.46.52-.7.77-.26.27-.53.54-.81.8-.01,0-.01.01-.02.02-.26.24-.53.48-.81.72-.02.01-.04.03-.06.05-.3.24-.6.48-.92.72-.32.25-.65.48-1,.72-.26.18-.54.34-.83.47-2.89,1.4-7.26,1.04-12.88-.72,3.05,6.7,1.9,12.13-.41,18.51-.18.52-.38,1.05-.58,1.58-.5,1.33-1.04,2.71-1.59,4.15-.82,2.15-1.66,4.45-2.44,6.96-.1.33-.22.65-.36.96-.06.16-.13.31-.21.46-.46.95-1.08,1.77-1.83,2.49-.17.16-.34.31-.52.46-.37.3-.75.58-1.17.83-.21.13-.42.25-.64.37-.24.13-.5.26-.76.37-.21.1-.43.19-.64.27-.03.02-.06.03-.09.04-.22.08-.44.16-.67.24-.78.26-1.61.47-2.5.64-1.18.22-2.46.37-3.82.45-.35,0-.69.03-1.05.04-4.35.11-9.55-.47-15.42-1.65-.77-.15-1.56-.32-2.35-.49.1.61.18,1.22.25,1.83.25,2.09.33,4.19.29,6.28-.15,6.8-1.72,13.34-4.02,18.14-.1.22-.2.42-.31.63-.07.14-.14.27-.21.41-1.99,3.77-11.5,5.02-24.9,5,.6.34,1.18.7,1.74,1.1,1.75,1.21,3.31,2.65,4.59,4.35,1.09,1.47,1.97,3.13,2.57,5.01.28.88.5,1.81.65,2.79.49,3.26.2,7.08-1.12,11.53-.66,2.2-2.22,4.38-4.51,6.5.25.18.5.36.74.55,5.11,3.91,8.04,7.59,9.14,11.1,2.63,8.41-5.26,15.82-18.9,22.96,2.61,3.01,3.25,7.17,2.55,11.8-.56,3.74-2,7.81-3.98,11.83,0,.01-.01.01-.01.01-1.43,2.9-3.14,5.77-5,8.5.7.45,1.36.94,1.94,1.49,1.53,1.43,2.61,3.18,3.11,5.26,1.6,6.69,1.72,14.16.9,21.3l-.03.24h0c-.04.33-.08.66-.13.98-1.88,14.4-7.51,27.15-12.32,28.97,0,0-.01.01-.02.01-.16.06-.34.11-.49.14.34.83.56,1.67.67,2.52.41,3.08-.6,6.24-2.3,9-1.36,2.21-4.97,3.37-9.55,3.52.11.29.21.56.3.84.47,1.52.59,3.04.27,4.52-.02.09-.04.18-.07.26-.12.52-.28,1.02-.47,1.48-.23.55-.5,1.06-.82,1.54-1,1.5-2.37,2.65-4.03,3.41h-.03c-.7.33-1.45.59-2.24.77-.21,3.69-1.88,6.07-4.56,7.4.89,1.08,1.42,2.1,1.38,2.89-.03.43-.08.89-.15,1.37-.42,2.43-1.69,5.26-4.66,6.98.1.11.2.23.29.35,1.06,1.24,1.74,2.65,1.74,3.6,0,1.45-.67,4.28-3.58,5.62-.69.32-1.52.55-2.5.66,1.07,1.3,1.79,2.76,1.74,3.59-.11,1.57-2.09,3.53-5.74,2.95-2.56-.42-3.67-5.5-2.33-7.92-1.42-1.1-2.28-2.69-2.59-4.34-.31-1.61-.1-3.26.62-4.56-1.64-1.13-2.84-2.8-3.45-4.76-.22-.68-.36-1.4-.41-2.15-.16-1.7.1-3.54.82-5.42-.08-.05-.16-.1-.24-.16-4.01-2.58-5.97-7.83-6.04-12.88-.06-3.49.78-6.88,2.44-9.24-.93-1.64-1.64-3.46-2.02-5.48-.11-.59-.2-1.19-.25-1.82-.18-2.17-.01-4.56.63-7.22-5.73-6.15-9.68-12.28-6.83-16.11-.03-.03-.06-.06-.08-.09-2.94-3.54-4-3.73-3.97-8.06,0-.14,0-.28.01-.41h0c.12-5,1.74-9.53,4.42-13.54-2.5-3.12-4.12-7.69-4.38-14.18-.12-2.95.04-6.28.51-10.06-5.19.56-9.49.27-13-.72h-.02c-10.79-3.07-14.22-12.86-13.26-25.84.03-.56.08-1.13.14-1.7.06-.59.12-1.18.2-1.78.2-1.55.45-3.14.74-4.75-11.58-2.6-22.21-9.68-29.83-18.69h-.01c-9.98-11.8-14.77-26.91-9.69-39.53,1.43-3.56,3.65-6.92,6.75-9.96,0,0,.84.04,2.36.11.05,0,.1.01.15.01-.31-.2-.63-.4-.95-.61-.01,0-.01-.01-.01-.01-4.1-2.66-8.04-6.07-11.76-10.11l-.04-.04c-5.63-6.12-10.76-13.72-15.16-22.46-.1-.22-.21-.43-.32-.65-1.94-3.92-3.74-8.07-5.37-12.42-2.6-6.92-4.78-14.34-6.44-22.16-1.74-8.06-2.93-16.54-3.49-25.3-.25-3.81-.38-7.67-.38-11.57,0-5.17.21-10.42.66-15.72,0-.03.01-.06.01-.09-.23-.19-.46-.38-.69-.57l-.03-.03c-11.7-9.62-21.67-19.83-28.89-30.4h0c-10.89-15.99-15.52-32.79-10.35-49.73.21-.68.43-1.37.67-2.05.05-.15.1-.3.16-.45-19.89-16.12-31.94-48.71-30.02-76.19h0c.24-3.63.73-7.16,1.48-10.56,1.03-4.65,2.53-9.04,4.55-13.04,2.72-5.41,6.39-10.1,11.08-13.78-3.31-6.49-6.18-13.16-8.5-19.91,0-.01-.01-.02-.01-.02-7.65-22.41-9-45.68,1.23-65.73.3-.62.63-1.23.97-1.84-.34-.76-.69-1.52-1.02-2.27-9.45-21.69-5.85-50.43,4.09-77.96,1.74-4.85,3.69-9.67,5.81-14.4,3.72-8.38,7.96-16.49,12.49-24.1,2.27-3.81,4.61-7.48,7-11,5.25-7.71,10.72-14.65,16.16-20.49,3.67-3.95,7.32-7.39,10.88-10.24,42.16-33.69,97.11-27.36,153.86,2.14,4.85,2.52,9.71,5.21,14.58,8.05,123.76,72.4,251.6,247.29,270.9,351.87,3.5,18.98,3.43,35.64-.89,48.95Z"/>
        <path class="cls-3" d="M268.51,958.86c-3.97-2.04-.62,6.86,2.35,6.27,2.97-.59-.06-5.1-2.35-6.27Z"/>
      </g>
      <ellipse class="cls-4" cx="390.14" cy="360.86" rx="66.26" ry="162.71" transform="translate(-141.21 351.03) rotate(-41.71)"/>
      <path class="cls-3" d="M360.22,239.28c77.89,80.5,107.16,148.98,108.2,167.27s8.01-62.84-41.3-127.55c-49.31-64.71-66.91-39.73-66.91-39.73Z"/>
      <path class="cls-3" d="M510.24,437.39c4.18,89.91-132.77-20.29-162.57-76.53,0,0,68.08,130.9,156.62,128.28,31.56.04,5.95-51.75,5.95-51.75Z"/>
      <path class="cls-3" d="M390.14,301.22c-52.92-49.4-82.71-49.4-90.55-39.99-7.84,9.41,7.06,32.15,13.33,39.99,0,0-1.71-26.3,5.55-29.84,18.04-8.81,71.68,29.84,71.68,29.84Z"/>
      <path class="cls-4" d="M572.34,588.2c-16.38,20.18-43.92,27.23-77.89,24.25,1.8,4.78,2.1,10.22-.61,15.45-190.24-31.46-303.56-236.63-272.97-196.86,32.79,42.62,181.35,165.48,351.47,157.16Z"/>
      <path class="cls-4" d="M88.25,319.9c.31-.62.64-1.23.97-1.84-.34-.76-.69-1.52-1.02-2.27-14.06-32.27.77-80.18,22.39-116.46,10.73,135.95,56.53,204.67,87.82,247.01,25.6,34.63-70.4-33.46-110.17-126.43Z"/>
      <path class="cls-1" d="M278.15,372.05c-121.8-185.05-53.58-209.82-32.41-210.99,21.17-1.18,68.48,28.56,105.59,64.11,0,0-72.66-47.57-96.7-29.8-24.05,17.77-15.68,125.98,23.52,176.68h0Z"/>
      <path class="cls-1" d="M455.62,318.47c62.34,104.28,84.82,149.49,74.49,174.07-6.27,14.93-43.13,6.27-43.13,6.27,0,0,49.4,22.74,61.94-5.49,12.55-28.23-93.31-174.85-93.31-174.85Z"/>
      <path class="cls-4" d="M401.99,666.34c-.26.18-.54.34-.83.47-72.91-31.17-130.33-103.95-130.33-103.95,44.64,35.93,94.09,64.33,139.91,82.03,1.13,8.24-.8,16.07-8.74,21.45Z"/>
      <path class="cls-4" d="M152.17,469.8s-37.95-17.13-67.71-50.47c2.72-5.4,6.39-10.1,11.08-13.78-3.31-6.48-6.19-13.16-8.5-19.91,14.8,39.15,37.05,54.36,65.13,84.16Z"/>
      <path class="cls-4" d="M387.29,686.17c-1.25,3.32-2.72,6.92-4.02,11.11-2.61,8.37-14.61,9.31-32.03,5.48.1.61.18,1.22.25,1.83-71.21-17.38-114.97-46.44-115.79-47,1.07.45,70.98,29.56,151.6,28.57Z"/>
      <path class="cls-4" d="M108.29,519.58c.05-.15.1-.3.16-.45-19.89-16.12-31.94-48.72-30.02-76.2,25.87,67.02,145.57,159.21,149.46,162.19-2.8-1.94-67.22-46.65-119.59-85.54Z"/>
      <path class="cls-4" d="M351.77,710.87c-.16,7.3-1.96,14.31-4.54,19.19-1.98,3.77-11.49,5.02-24.89,4.99.6.35,1.18.71,1.74,1.1-32.3-1.98-69.41-8.66-57.43-9.17,18.36-.77,39.33,3.69,85.12-16.11Z"/>
      <path class="cls-4" d="M189.87,722.88c-4.09-2.67-8.04-6.07-11.75-10.11,4.12,3.94,8.04,7.28,11.75,10.11Z"/>
      <path class="cls-4" d="M190.69,723.49c18.47,13.86,53.63,19.26,56.74,19.37-4.07,0-43.25,10.33-65.85-9.52,1.43-3.56,3.65-6.92,6.75-9.97,0,0,.84.05,2.36.12Z"/>
      <path class="cls-4" d="M225.88,738.75s-.24.02-.71,0h.71Z"/>
      <path class="cls-4" d="M146.87,601.76c-11.7-9.62-21.66-19.83-28.89-30.4,4.95,5.56,16.5,18.3,28.89,30.4Z"/>
      <path class="cls-4" d="M208.52,642.73c-9.69-1.62-40.6-2.3-61.22-12.99-.25-3.81-.38-7.67-.38-11.57,0-5.17.21-10.42.66-15.72,13.12,12.74,52.94,38.53,60.94,40.28Z"/>
      <path class="cls-4" d="M273.6,780.55c-1.23.29-2.18.47-2.77.54-1.13.13.03-.06,2.77-.54Z"/>
      <path class="cls-4" d="M330.77,759.83c-.66,2.2-2.22,4.38-4.51,6.5.25.19.49.37.74.56-17.41,7.14-44.24,12.04-53.4,13.66,11.88-2.8,50.54-15.78,57.64-35.03,1.22,3.83,1.25,8.54-.47,14.32Z"/>
      <path class="cls-4" d="M317.23,800.95c2.61,3.01,3.25,7.17,2.56,11.79-18.36,5.75-46.97-2.77-35.36-3.17,14.72-.5,28.45-8.41,51.71-31.58,2.63,8.41-5.26,15.82-18.9,22.96Z"/>
      <path class="cls-4" d="M220.37,796.31c.2-1.55.45-3.14.74-4.75-11.58-2.6-22.21-9.68-29.83-18.68,14.51,11.48,36.97,16.25,51.85,13.71,0,0-8.74,7.35-22.76,9.73Z"/>
      <path class="cls-4" d="M310.8,833.08c.71.45,1.36.95,1.94,1.5-8.58,1.06-17.27-.13-17.59-.17.28,0,11.52-.06,20.65-9.82-1.43,2.9-3.14,5.77-5,8.49Z"/>
      <path class="cls-4" d="M316.72,861.39c-1.76,14.79-7.53,28.08-12.45,29.94,0,0,0,0-.02,0-8.84,1.13-18.39-2.56-18.39-2.56,0,0,22.78-1.86,30.85-27.38Z"/>
      <path class="cls-4" d="M261.55,820.3c-.18.36-5.68,11.23-15.75,16.11-.12-2.95.04-6.28.51-10.06-5.18.56-9.49.27-13-.72,20.66-.5,28.01-5.17,28.24-5.32Z"/>
      <path class="cls-4" d="M302.13,902.99c-1.36,2.21-4.97,3.38-9.55,3.53.11.28.2.56.3.84-12.77-1.08-26.22-4.23-27.22-4.46,1,.21,15.42,3.03,38.77-8.9.41,3.07-.6,6.23-2.3,8.99Z"/>
      <path class="cls-4" d="M273.12,926.15s-5.42.82-11.25-.71c-4.01-2.58-5.97-7.83-6.04-12.88,9.82,14.06,17.29,13.59,17.29,13.59Z"/>
      <path class="cls-4" d="M277.5,937.98c.1.11.2.23.29.34-4.73.3-8.48-1.69-8.48-1.69,0,0,6.97-.61,12.85-5.64-.42,2.43-1.69,5.25-4.66,6.98Z"/>
      <path class="cls-4" d="M291.79,915.15c-1,1.51-2.37,2.66-4.03,3.41-.02,0-.02,0-.03,0-10.38.87-13.14-.17-13.14-.17,0,0,10.37-1.51,17.2-3.25Z"/>
      <path class="cls-4" d="M273.45,948.21c1.07,1.29,1.79,2.75,1.73,3.59-.1,1.57-2.09,3.53-5.73,2.94-2.56-.42-3.68-5.5-2.34-7.92-1.42-1.1-2.27-2.69-2.59-4.34,2.39,2.92,7.83,4.55,11.42,5.06-.7.32-1.52.56-2.5.67Z"/>
      <path class="cls-4" d="M260.14,874.22c-.27,0-5.24-.31-10.42-1.63-2.94-3.54-4-3.72-3.97-8.06,0-.13,0-.27,0-.41,4.09,6.9,11.57,9.93,14.04,10.08.2.02.31.02.34.02Z"/>
      <path class="cls-1" d="M258.75,848.78c14.7,5.75,39,1.31,45.02-3.66,0,0-11.39,11.5-22.03,11.76-10.64.26-22.99-8.1-22.99-8.1Z"/>
      <path class="cls-4" d="M405.62,663.3c-1.04,1.08-2.23,2.09-3.62,3.03-.26.18-.54.34-.83.47-2.89,1.4-7.26,1.03-12.88-.72,3.3,7.25,1.68,13-1,20.09-1.25,3.32-2.72,6.92-4.02,11.11-.49,1.56-1.29,2.85-2.41,3.91-22.13-8.57-47.68-19.57-48.49-19.92,1.1.28,44.16,11.31,52.84-22.05l4.92-4.38,15.48,8.45Z"/>
      <path class="cls-1" d="M235.7,114.97C135.01,30,68.33,25.3,178.12,291.09c0,0-135.98-190.73-93.66-285.89,16.45-34,151.24,109.76,151.24,109.76Z"/>
      <path class="cls-1" d="M309.19,562.85c264.5,183.39,277.1,126.93,249.63,83.42,0,0,43.89,45.42,38.55,71.55-12.75,62.45-293.62-133.98-288.19-154.97Z"/>
      <path class="cls-1" d="M71.41,372.05c-23.52,17.77,52.53,180.08,150.55,223.99,0,0-116.05-36.85-162.31-147.41-28.23-55.67,11.76-76.58,11.76-76.58Z"/>
      <path class="cls-1" d="M210.98,638.38c124.67,69,191.32,42.88,191.32,42.88,0,0-18.03,21.16-83.9,10.7-65.86-10.45-107.42-53.58-107.42-53.58Z"/>
      <path class="cls-1" d="M138.58,638.38c-15.16.78,50.45,53.14,131.82,62.81,0,0-51.73,7.52-105.63-19.94-53.9-27.46-26.19-42.88-26.19-42.88Z"/>
      <path class="cls-1" d="M237.9,750.51c42.34.52,110.65-12.02,113.87-17.25,3.22-5.23-4.35,19.34-48.92,19.86-44.57.52-64.95-2.61-64.95-2.61Z"/>
      <path class="cls-1" d="M106.34,278.81c15.25,86.71,115.35,221.58,131.56,235.69,0,0-62.2-54.1-99.84-114.48-37.64-60.38-31.72-121.21-31.72-121.21Z"/>
      <path class="cls-1" d="M164.77,772.87c-29.76,3.94,12.89,36.71,93.97,21.02,0,0-113.89,22.93-116.51-8.4,0-15.12,22.53-12.62,22.53-12.62Z"/>
      <path class="cls-1" d="M316.72,717.82c72.25,31.9,82.7,2.73,73.42-6.95,0,0,32.13,11.71,15.48,25.28-16.65,13.57-88.9-18.33-88.9-18.33Z"/>
      <path class="cls-1" d="M297.36,345.77c1.69,1.87,3.37,3.72,5.05,5.56,223.82,244.78,382.5,196.85,273.36,45.32,0,0,123.75,140.85,60.16,166.2-131.63,52.77-338.57-217.08-338.57-217.08Z"/>
      <path class="cls-1" d="M514.52,291.09c-164.76-205.5-215.44-143.23-198.73-104.58,0,8.64-49.38-63.79.92-73.73,50.3-9.94,197.81,178.3,197.81,178.3Z"/>
      <path class="cls-1" d="M88.08,115.79c-52.74-33.33-.02,119.57,64.97,191.7,0,0-107.76-99.41-117.05-197.51-1.14-40.71,52.07,5.81,52.07,5.81Z"/>
      <path class="cls-2" d="M207.3,382.75s141.07,126.24,161.15,128.59c0,0-162.47-144.27-174.3-161.52-11.83-17.25.14,121.86,103.62,231.31,0,0-74.88-99.15-90.46-170.32-1.4-11.59,0-28.05,0-28.05Z"/>
      <path class="cls-1" d="M200.5,379.63c147.7,192.89,254.34,191.15,262.96,190.06-4.7.17-50.97,8.8-156.82-94.94-105.85-103.74-106.14-95.12-106.14-95.12Z"/>
      <path class="cls-2" d="M279.44,562.85c-126.74-37.64-143.68-63.25-143.68-63.25,0,0,118.58,48.91,118.98,27.33l25.89,33.31,5.2,7.7-6.4-5.08Z"/>
      <path class="cls-2" d="M49.57,372.05c-36.96-26.92-42.45,30.32,11.65,106.38,0,0-72.92-83.9-59.59-120.75,2.35-17.25,47.94,14.38,47.94,14.38Z"/>
      <path class="cls-2" d="M139.11,628.79c-54.36.96-6.65,62.12,39.01,64.21,0,0-101.74-18.82-86.06-49.66,6.8-14.56,47.05-14.56,47.05-14.56Z"/>
      <path class="cls-2" d="M332.37,841.46c24.71,5.75-6.71,18.66-27.85,22.66s59.62-8.29,53.61-15.6c-6.01-7.32-25.75-7.06-25.75-7.06Z"/>
      <path class="cls-2" d="M247.43,887.46c-16.06-.26,2.83,11.55,29.94,10.19,0,0-43.13,2.42-47.05-6.11-4.44-5.24,17.1-4.08,17.1-4.08Z"/>
      <path class="cls-2" d="M305.47,905.76c26.26,1.96-27.86,8.99-39.81,9.39,0,0,69.79-2.86,58.62-7.79-11.17-4.93-18.81-1.6-18.81-1.6Z"/>
      <path class="cls-2" d="M260.14,928.5c-5.83.98,9.06,6.96,18.87,2.5,0,0-4.12,4.4-21.17,1.63-7.84-1.61,2.31-4.14,2.31-4.14Z"/>
      <path class="cls-1" d="M191.28,532.07c129.74,126.44,155.29,124.68,168.94,122.78,3.34,0-38.16-7.84-112.91-78.41-74.75-70.57-85.2-87.26-85.2-87.26l29.17,42.88Z"/>
    </g>
  </g>
</svg>