<svg xmlns="http://www.w3.org/2000/svg" xmlns:xlink="http://www.w3.org/1999/xlink" width="4208" zoomAndPan="magnify" viewBox="0 0 3156 656.249984" height="875" preserveAspectRatio="xMidYMid meet" version="1.0"><defs><clipPath id="ee61fe3ecb"><path d="M 2 326 L 885 326 L 885 513.25 L 2 513.25 Z M 2 326 " clip-rule="nonzero"/></clipPath><clipPath id="9106850427"><path d="M 2390 476 L 3153.699219 476 L 3153.699219 653 L 2390 653 Z M 2390 476 " clip-rule="nonzero"/></clipPath><clipPath id="dd5683b56d"><path d="M 755 332.097656 L 1337 332.097656 L 1337 473 L 755 473 Z M 755 332.097656 " clip-rule="nonzero"/></clipPath><clipPath id="e53b6b323c"><path d="M 1327.027344 473 L 1767.527344 473 L 1767.527344 593 L 1327.027344 593 Z M 1327.027344 473 " clip-rule="nonzero"/></clipPath></defs><g clip-path="url(#ee61fe3ecb)"><path fill="#efebd4" d="M 424.664062 425.351562 C 424.773438 426.453125 423.199219 423.667969 422.289062 423.046875 C 420.015625 421.496094 417.382812 420.519531 414.773438 419.707031 C 407.195312 417.359375 399.039062 416.878906 391.160156 417.5625 C 380.054688 418.527344 369.351562 422.429688 360.175781 428.734375 C 356.207031 431.464844 349.328125 440.921875 344.316406 441.324219 C 340.941406 441.601562 334.570312 429.691406 332.164062 427.613281 C 323.1875 419.875 311.019531 416.953125 299.46875 416.046875 C 280.320312 414.558594 262.4375 418.882812 247.992188 431.910156 C 243.277344 436.160156 239 440.957031 235.109375 445.960938 C 234.519531 446.722656 231.824219 452.144531 230.863281 452.304688 C 229.429688 452.546875 224.542969 448.90625 223.007812 448.402344 C 216.128906 446.15625 208.703125 445.816406 201.535156 446.449219 C 182.746094 448.109375 169.226562 458.25 152.054688 463.820312 C 140.960938 467.425781 127.609375 463.433594 115.65625 466.703125 C 85.96875 474.8125 55.382812 479.226562 26.992188 491.441406 C 20.148438 494.386719 13.25 497.410156 6.742188 501.054688 C 6.640625 501.109375 2.308594 503.441406 2.839844 504.082031 C 3.628906 505.03125 8.304688 504.117188 9.183594 504.082031 C 16.648438 503.765625 24.15625 503.804688 31.625 503.835938 C 63.605469 503.96875 95.542969 503.574219 127.515625 504.664062 C 142.714844 505.183594 157.792969 508.195312 172.941406 508.421875 C 184.855469 508.597656 196.621094 506.046875 208.566406 506.8125 C 220.523438 507.574219 230.695312 513.394531 242.964844 513.058594 C 261.144531 512.558594 281.058594 510.367188 299.082031 507.980469 C 310.117188 506.523438 320.851562 503.105469 332.066406 503.105469 C 342.050781 503.105469 350.996094 507.75 360.953125 508.03125 C 382.949219 508.652344 406.917969 507.273438 428.925781 505.738281 C 469.4375 502.910156 509.640625 501.921875 550.234375 500.371094 C 553.660156 500.238281 557.128906 500.058594 560.53125 499.589844 C 563.125 499.230469 565.742188 498.722656 568.242188 497.929688 C 586.925781 491.996094 555.285156 480.167969 547.601562 480.167969 C 546.375 480.167969 550.011719 480.59375 551.210938 480.855469 C 553.976562 481.453125 556.753906 481.949219 559.558594 482.363281 C 566.414062 483.378906 573.214844 483.796875 580.148438 483.632812 C 600.535156 483.148438 621.109375 480.515625 641.484375 481.632812 C 703.707031 485.039062 764.589844 476.835938 826.761719 474.65625 C 841.535156 474.136719 857.09375 474.480469 871.414062 470.308594 C 875.375 469.15625 884.429688 467.046875 884.683594 461.625 C 884.84375 458.355469 876.984375 459.621094 875.21875 459.527344 C 862.855469 458.855469 850.515625 458.03125 838.132812 457.773438 C 821.125 457.414062 803.996094 455.316406 786.996094 455.722656 C 775.347656 456 762.492188 459.910156 750.933594 457.722656 C 738.570312 455.382812 725.011719 447.511719 712.675781 443.71875 C 707.78125 442.210938 702.859375 441.011719 697.699219 441.472656 C 696.640625 441.566406 691.445312 443.421875 690.671875 443.035156 C 682.636719 439.015625 678.734375 432.039062 668.128906 430.738281 C 665.417969 430.40625 662.628906 430.449219 659.929688 430.832031 C 659.585938 430.886719 655.019531 432.113281 655.539062 432.347656 C 660.730469 434.710938 665.792969 426.984375 666.808594 423.175781 C 669.339844 413.691406 667.628906 398.59375 657.050781 394.824219 C 647.355469 391.371094 633.808594 393.460938 624.699219 397.800781 C 622.863281 398.675781 618.441406 403.625 616.839844 403.800781 C 614.980469 404.011719 607.640625 395.976562 605.863281 394.871094 C 599.042969 390.632812 591.179688 389.15625 583.21875 389.410156 C 576.636719 389.613281 569.949219 390.730469 563.652344 392.675781 C 561.257812 393.414062 559.117188 397.066406 556.871094 395.945312 C 555.667969 395.34375 554.964844 389.089844 554.625 387.992188 C 552.117188 379.789062 549.496094 371.457031 545.40625 363.886719 C 534.757812 344.214844 514.074219 333.902344 492.996094 328.902344 C 465.105469 322.28125 432.242188 329.027344 409.605469 346.90625 C 386.355469 365.265625 375.574219 401.316406 389.546875 428.101562 " fill-opacity="1" fill-rule="nonzero"/></g><path fill="#f8f3de" d="M 1007.035156 55.859375 C 1006.351562 57.066406 1005.015625 53.898438 1003.789062 53.242188 C 1001.21875 51.851562 998.308594 50.96875 995.441406 50.445312 C 987.796875 49.054688 980.144531 51.066406 972.898438 53.425781 C 962.890625 56.6875 952.945312 61.164062 944.472656 67.484375 C 939.785156 70.984375 935.476562 77.78125 929.730469 79.511719 C 920.949219 82.160156 909.46875 77.648438 900.289062 78.269531 C 882.496094 79.46875 862.164062 83.710938 844.945312 88.449219 C 835.578125 91.023438 829.09375 98.976562 820.027344 101.414062 C 810.480469 103.984375 799.328125 102.671875 789.488281 104.015625 C 783.335938 104.855469 777.195312 105.886719 771.058594 106.84375 C 768.960938 107.171875 766.847656 107.523438 764.722656 107.601562 C 763.765625 107.632812 760.964844 107.691406 761.855469 107.332031 C 765.296875 105.960938 774.617188 109.167969 778.109375 109.632812 C 790.214844 111.253906 802.359375 112.285156 814.5625 112.800781 C 831.21875 113.503906 848.027344 112.546875 864.628906 114.269531 C 880.90625 115.960938 896.628906 120.496094 913.066406 120.941406 C 930.421875 121.417969 954.578125 116.835938 970.9375 125.015625 C 972.230469 125.660156 968.15625 125.796875 966.753906 126.148438 C 964.296875 126.753906 961.820312 127.238281 959.328125 127.652344 C 949.941406 129.21875 940.507812 130.199219 931.011719 130.820312 C 909.207031 132.246094 886.046875 132.640625 864.777344 138.058594 C 859.8125 139.324219 846.851562 141.917969 843.441406 146.464844 C 842.160156 148.171875 847.648438 147.191406 849.773438 147.371094 C 854.03125 147.722656 858.296875 147.980469 862.554688 148.386719 C 875.214844 149.597656 887.625 152.527344 900.25 153.78125 C 913.273438 155.066406 925.398438 150.929688 938.253906 150.121094 C 950.699219 149.339844 962.835938 152.375 975.234375 152.460938 C 989.660156 152.5625 1003.894531 150.21875 1018.328125 151.859375 C 1027 152.84375 1035.523438 154.804688 1044.300781 154.683594 C 1061.519531 154.445312 1078.296875 151.101562 1095.605469 152.195312 C 1134.753906 154.675781 1173.253906 161.722656 1212.664062 161.957031 C 1224.976562 162.03125 1236.273438 159.011719 1248.402344 158.074219 C 1261.230469 157.089844 1274.320312 158 1287.082031 159.355469 C 1310.199219 161.820312 1332.933594 166.113281 1356.070312 162.074219 C 1359.96875 161.390625 1373.859375 161.859375 1375.335938 156.605469 C 1376.851562 151.222656 1369.722656 150.328125 1366.140625 149.933594 C 1354.132812 148.625 1342.402344 146.042969 1330.625 143.414062 C 1313.679688 139.628906 1298.292969 130.15625 1281.238281 127.3125 C 1265.441406 124.683594 1249.507812 130.484375 1233.625 129.125 C 1224.632812 128.351562 1216.425781 124.515625 1207.761719 122.300781 C 1198.621094 119.964844 1189.257812 118.851562 1179.941406 117.476562 C 1165.300781 115.3125 1150.765625 114.394531 1136.019531 113.40625 C 1135.371094 113.359375 1122.082031 111.804688 1123.089844 109.933594 C 1123.5 109.175781 1126.375 109.390625 1126.9375 109.367188 C 1131.96875 109.214844 1137.023438 109.335938 1142.054688 109.40625 C 1161.09375 109.675781 1179.800781 111.980469 1198.675781 114.195312 C 1235.582031 118.527344 1272.335938 114.234375 1309.289062 114.234375 C 1326.695312 114.234375 1343.703125 118.972656 1361.011719 120.453125 C 1375.078125 121.65625 1389.234375 119.257812 1403.308594 118.945312 C 1419.703125 118.582031 1434.507812 115.273438 1450.207031 111.707031 C 1452.777344 111.121094 1463.816406 109.214844 1464.605469 106.050781 C 1465.332031 103.164062 1459.113281 100.640625 1457.40625 99.871094 C 1448.636719 95.914062 1438.898438 95.605469 1429.46875 94.855469 C 1408.519531 93.183594 1387.984375 88.445312 1367.304688 85.132812 C 1356.792969 83.441406 1346.054688 83.960938 1335.527344 82.265625 C 1323.808594 80.375 1312.21875 76.40625 1300.84375 73.066406 C 1290.535156 70.042969 1284.5 60.933594 1273.964844 58.855469 C 1263.519531 56.796875 1251.457031 56.949219 1241.011719 59.003906 C 1236.988281 59.796875 1229.273438 65.246094 1225.40625 64.699219 C 1225.042969 64.644531 1221.484375 59.023438 1219.335938 58.363281 C 1213.894531 56.6875 1210.089844 60.09375 1205.160156 60.09375 C 1203.371094 60.09375 1206.558594 56.75 1206.785156 54.96875 C 1207.191406 51.769531 1206.105469 48.796875 1204.484375 46.074219 C 1199.019531 36.894531 1189.210938 31.722656 1178.773438 30.65625 C 1164.671875 29.210938 1148.054688 31.363281 1134.8125 36.425781 C 1130.796875 37.957031 1125.636719 44.089844 1121.808594 44.675781 C 1120.492188 44.878906 1118.554688 40.042969 1117.925781 39.25 C 1115.171875 35.757812 1111.714844 33.148438 1107.179688 32.617188 C 1103.195312 32.140625 1099.058594 33.144531 1095.457031 34.839844 C 1093.757812 35.636719 1092.269531 38.894531 1090.710938 37.855469 C 1088.636719 36.472656 1085.660156 28.75 1083.960938 26.507812 C 1073.816406 13.152344 1065.105469 4.773438 1047.578125 2.757812 C 1032.972656 1.074219 1015.832031 0.46875 1002.34375 7.242188 C 980.808594 18.054688 965.054688 50.882812 972.898438 74.007812 " fill-opacity="1" fill-rule="nonzero"/><g clip-path="url(#9106850427)"><path fill="#f8f3de" d="M 2656.613281 534.996094 C 2655.867188 536.308594 2654.417969 532.871094 2653.089844 532.15625 C 2650.296875 530.648438 2647.140625 529.691406 2644.027344 529.121094 C 2635.730469 527.613281 2627.425781 529.792969 2619.5625 532.355469 C 2608.699219 535.898438 2597.902344 540.757812 2588.707031 547.617188 C 2583.621094 551.417969 2578.945312 558.792969 2572.707031 560.671875 C 2563.179688 563.542969 2550.714844 558.648438 2540.753906 559.320312 C 2521.441406 560.621094 2499.375 565.230469 2480.6875 570.367188 C 2470.519531 573.164062 2463.484375 581.796875 2453.640625 584.445312 C 2443.28125 587.230469 2431.175781 585.808594 2420.496094 587.265625 C 2413.816406 588.179688 2407.15625 589.292969 2400.492188 590.332031 C 2398.214844 590.691406 2395.921875 591.074219 2393.617188 591.15625 C 2392.578125 591.191406 2389.539062 591.253906 2390.507812 590.867188 C 2394.242188 589.375 2404.355469 592.859375 2408.144531 593.363281 C 2421.285156 595.121094 2434.464844 596.242188 2447.710938 596.800781 C 2465.789062 597.566406 2484.03125 596.527344 2502.046875 598.394531 C 2519.71875 600.230469 2536.78125 605.152344 2554.625 605.636719 C 2573.457031 606.152344 2599.679688 601.179688 2617.433594 610.058594 C 2618.835938 610.757812 2614.414062 610.90625 2612.890625 611.285156 C 2610.226562 611.945312 2607.539062 612.46875 2604.832031 612.921875 C 2594.640625 614.621094 2584.40625 615.6875 2574.101562 616.359375 C 2550.433594 617.902344 2525.296875 618.332031 2502.210938 624.214844 C 2496.820312 625.585938 2482.757812 628.402344 2479.054688 633.335938 C 2477.660156 635.191406 2483.621094 634.128906 2485.929688 634.324219 C 2490.546875 634.703125 2495.179688 634.980469 2499.796875 635.425781 C 2513.539062 636.738281 2527.007812 639.917969 2540.710938 641.277344 C 2554.84375 642.675781 2568.007812 638.183594 2581.960938 637.308594 C 2595.46875 636.457031 2608.640625 639.75 2622.09375 639.847656 C 2637.753906 639.953125 2653.203125 637.410156 2668.867188 639.191406 C 2678.28125 640.261719 2687.53125 642.390625 2697.054688 642.257812 C 2715.746094 642 2733.953125 638.371094 2752.742188 639.558594 C 2795.234375 642.25 2837.019531 649.894531 2879.792969 650.152344 C 2893.15625 650.234375 2905.417969 646.957031 2918.582031 645.941406 C 2932.503906 644.867188 2946.714844 645.859375 2960.5625 647.332031 C 2985.652344 650.003906 3010.328125 654.660156 3035.441406 650.28125 C 3039.667969 649.539062 3054.746094 650.046875 3056.347656 644.34375 C 3057.992188 638.5 3050.257812 637.527344 3046.367188 637.105469 C 3033.335938 635.683594 3020.601562 632.882812 3007.820312 630.027344 C 2989.429688 625.917969 2972.730469 615.636719 2954.21875 612.550781 C 2937.074219 609.695312 2919.78125 615.992188 2902.542969 614.515625 C 2892.78125 613.679688 2883.875 609.515625 2874.472656 607.113281 C 2864.550781 604.574219 2854.390625 603.367188 2844.277344 601.875 C 2828.386719 599.523438 2812.609375 598.53125 2796.605469 597.457031 C 2795.902344 597.40625 2781.480469 595.71875 2782.574219 593.6875 C 2783.015625 592.867188 2786.136719 593.097656 2786.746094 593.074219 C 2792.207031 592.90625 2797.695312 593.039062 2803.15625 593.117188 C 2823.820312 593.410156 2844.125 595.910156 2864.613281 598.3125 C 2904.667969 603.015625 2944.558594 598.355469 2984.664062 598.355469 C 3003.558594 598.355469 3022.015625 603.5 3040.800781 605.109375 C 3056.070312 606.414062 3071.433594 603.808594 3086.710938 603.46875 C 3104.503906 603.074219 3120.574219 599.484375 3137.609375 595.613281 C 3140.402344 594.976562 3152.382812 592.90625 3153.238281 589.476562 C 3154.023438 586.339844 3147.277344 583.601562 3145.425781 582.769531 C 3135.90625 578.472656 3125.339844 578.136719 3115.105469 577.324219 C 3092.367188 575.507812 3070.074219 570.363281 3047.632812 566.769531 C 3036.222656 564.933594 3024.570312 565.5 3013.140625 563.65625 C 3000.421875 561.605469 2987.84375 557.296875 2975.5 553.675781 C 2964.3125 550.390625 2957.761719 540.503906 2946.324219 538.25 C 2934.988281 536.015625 2921.898438 536.179688 2910.5625 538.414062 C 2906.191406 539.269531 2897.820312 545.1875 2893.621094 544.589844 C 2893.230469 544.53125 2889.363281 538.429688 2887.03125 537.71875 C 2881.128906 535.898438 2876.996094 539.597656 2871.648438 539.597656 C 2869.707031 539.597656 2873.167969 535.964844 2873.410156 534.03125 C 2873.851562 530.558594 2872.675781 527.332031 2870.914062 524.378906 C 2864.980469 514.414062 2854.335938 508.800781 2843.007812 507.644531 C 2827.703125 506.078125 2809.667969 508.410156 2795.296875 513.90625 C 2790.9375 515.566406 2785.335938 522.222656 2781.179688 522.863281 C 2779.753906 523.082031 2777.648438 517.835938 2776.96875 516.972656 C 2773.976562 513.183594 2770.226562 510.351562 2765.304688 509.773438 C 2760.976562 509.257812 2756.488281 510.34375 2752.582031 512.183594 C 2750.738281 513.050781 2749.121094 516.585938 2747.425781 515.457031 C 2745.179688 513.957031 2741.949219 505.574219 2740.101562 503.140625 C 2729.09375 488.648438 2719.640625 479.554688 2700.617188 477.363281 C 2684.761719 475.539062 2666.160156 474.878906 2651.519531 482.234375 C 2628.148438 493.96875 2611.046875 529.597656 2619.5625 554.695312 " fill-opacity="1" fill-rule="nonzero"/></g><path fill="#f8f3de" d="M 1852.949219 358.628906 C 1853.851562 357.601562 1843.152344 359.734375 1842.714844 359.898438 C 1835.355469 362.679688 1828.21875 366 1820.789062 368.628906 C 1803.53125 374.742188 1784.960938 381.558594 1766.667969 383.640625 C 1759.550781 384.453125 1752.507812 384.628906 1745.523438 386.421875 C 1744.007812 386.8125 1735.773438 388.550781 1739.820312 391.132812 C 1747.945312 396.300781 1759.589844 395.515625 1768.699219 397.441406 C 1780.371094 399.902344 1790.835938 405.726562 1802.855469 406.851562 C 1819 408.367188 1835.152344 404.628906 1851.203125 405.996094 C 1865.128906 407.1875 1876.800781 417.625 1890.988281 417.335938 C 1899.21875 417.164062 1907.398438 414.757812 1915.339844 412.804688 C 1917.402344 412.300781 1922.152344 409.953125 1924.285156 410.3125 C 1924.355469 410.320312 1923.292969 413.285156 1923.214844 413.519531 C 1922.605469 415.570312 1923.046875 417.296875 1924.144531 419.117188 C 1927.871094 425.261719 1934.894531 432.007812 1941.972656 433.839844 C 1952.785156 436.640625 1963.308594 431.347656 1974.023438 431.347656 C 1978.316406 431.347656 1981.902344 433.972656 1986.144531 434.199219 C 1992.742188 434.554688 1998.890625 431.238281 2005.4375 431.3125 C 2010.050781 431.363281 2013.386719 434.976562 2017.949219 435.234375 C 2024.589844 435.609375 2031.394531 432.761719 2037.914062 431.808594 C 2045.773438 430.660156 2053.699219 431.78125 2061.550781 430.777344 C 2066.605469 430.125 2071.566406 428.542969 2075.632812 425.390625 C 2077 424.332031 2079.933594 420.007812 2081.765625 420.007812 C 2084.015625 420.007812 2087.167969 424.882812 2090.539062 425.285156 C 2102.171875 426.667969 2114.808594 425.0625 2126.402344 424.039062 C 2146.488281 422.257812 2166.878906 418.800781 2187.050781 418.6875 C 2199.695312 418.617188 2212.003906 421.632812 2224.664062 420.007812 C 2233.097656 418.925781 2241.277344 416.179688 2248.730469 412.09375 C 2250.203125 411.285156 2253.78125 409.800781 2254.503906 408.066406 C 2254.769531 407.429688 2244.957031 406.390625 2244.203125 406.28125 C 2236.644531 405.203125 2229.054688 404.230469 2221.523438 403.003906 C 2211.199219 401.320312 2200.730469 399.265625 2190.613281 396.582031 C 2184.839844 395.054688 2179.175781 392.507812 2173.144531 392.238281 C 2160.871094 391.671875 2150.710938 398.589844 2138.957031 400.042969 C 2131.808594 400.921875 2124.8125 396.402344 2118.238281 395.476562 C 2110.207031 394.355469 2101.261719 395.773438 2093.320312 397.117188 C 2090.703125 397.5625 2088.144531 398.21875 2085.546875 398.722656 C 2085.273438 398.777344 2081.105469 399.152344 2081.449219 398.722656 C 2084.242188 395.226562 2093.492188 393.941406 2097.417969 392.660156 C 2109.859375 388.613281 2125.285156 378.488281 2138.84375 379.21875 C 2140.960938 379.335938 2142.375 383.089844 2143.800781 384.359375 C 2147.15625 387.316406 2151.964844 388.601562 2156.355469 388.492188 C 2166.394531 388.234375 2174.144531 379.492188 2183.984375 379.367188 C 2189.074219 379.300781 2192.839844 383.589844 2197.105469 385.746094 C 2202.773438 388.613281 2209.402344 389.421875 2215.679688 389.308594 C 2236.664062 388.949219 2255.359375 379.082031 2275.785156 376.121094 C 2285.734375 374.675781 2293.660156 377.898438 2303.28125 378.613281 C 2311.636719 379.238281 2320.242188 377.769531 2328.589844 377.332031 C 2350.921875 376.152344 2373.238281 375.675781 2395.226562 371.128906 C 2399.707031 370.199219 2404.152344 369.140625 2408.417969 367.453125 C 2408.792969 367.308594 2412.980469 365.75 2412.695312 364.890625 C 2412.367188 363.894531 2402.867188 365.34375 2402.109375 365.390625 C 2390.878906 366.0625 2379.457031 365.628906 2368.414062 363.355469 C 2353.660156 360.324219 2342.039062 350.835938 2327.734375 346.992188 C 2321.660156 345.359375 2315.570312 345.378906 2309.554688 347.242188 C 2304.445312 348.824219 2299.367188 352.152344 2293.832031 351.589844 C 2286.703125 350.871094 2280.472656 345.472656 2273.652344 343.460938 C 2261.269531 339.8125 2247.679688 339.78125 2234.929688 340.824219 C 2217.136719 342.273438 2200.722656 347.945312 2184.199219 340.21875 C 2180.191406 338.34375 2176.117188 338.539062 2171.898438 339.539062 C 2170.445312 339.882812 2169.0625 340.316406 2167.691406 340.894531 C 2167.164062 341.117188 2165.757812 342.046875 2166.15625 341.644531 C 2180.894531 326.910156 2166.929688 306.96875 2147.792969 309.375 C 2142.445312 310.050781 2137.21875 311.53125 2132.035156 312.980469 C 2131.445312 313.140625 2127.609375 314.898438 2127.042969 314.621094 C 2125.695312 313.945312 2127.628906 311.628906 2127.507812 310.128906 C 2127.265625 307.121094 2126.34375 304.285156 2125.050781 301.566406 C 2121.097656 293.289062 2114.589844 283.917969 2106.191406 279.679688 C 2099.929688 276.523438 2092.789062 277.226562 2086.328125 279.359375 C 2085.375 279.671875 2077.75 284.019531 2076.992188 283.636719 C 2076.304688 283.296875 2077.496094 282.179688 2077.597656 281.425781 C 2077.804688 279.878906 2077.597656 278.203125 2077.308594 276.683594 C 2076.445312 272.101562 2074.019531 267.792969 2071.28125 264.0625 C 2068.976562 260.917969 2065.863281 257.519531 2061.621094 257.71875 C 2059.867188 257.796875 2058.230469 258.515625 2056.773438 259.464844 C 2056.402344 259.707031 2054.621094 261.765625 2054.207031 261.210938 C 2051.511719 257.617188 2053.085938 249.285156 2052.355469 245.058594 C 2050.234375 232.925781 2043.566406 219.609375 2033.351562 212.402344 C 2022.542969 204.777344 2008.617188 204.03125 1996.09375 207.160156 C 1993.386719 207.835938 1983.65625 213.757812 1981.226562 213.007812 C 1978.300781 212.109375 1973.546875 202.328125 1971.527344 200.03125 C 1963.371094 190.765625 1952.078125 181.695312 1938.910156 183.59375 C 1912.800781 187.359375 1900.128906 220.773438 1898.261719 243.53125 C 1897.804688 249.089844 1897.804688 254.703125 1898.476562 260.246094 C 1898.617188 261.410156 1899.796875 264.855469 1899.082031 265.988281 C 1898.199219 267.386719 1889.980469 267.726562 1888.421875 268.164062 C 1880.613281 270.355469 1872.523438 273.703125 1866.671875 279.5 C 1862.539062 283.601562 1860.289062 288.808594 1860.539062 294.652344 C 1860.640625 296.910156 1861.074219 299.160156 1861.714844 301.320312 C 1862.019531 302.324219 1863.78125 304.914062 1863.039062 304.171875 C 1859.367188 300.503906 1852.746094 302.195312 1848.667969 303.960938 C 1845.472656 305.34375 1842.15625 307.429688 1840.433594 310.550781 C 1839.796875 311.707031 1839.679688 316.15625 1838.683594 316.726562 C 1836.792969 317.804688 1832.417969 316.796875 1830.308594 317.007812 C 1823.628906 317.679688 1817.082031 319.84375 1812.269531 324.710938 C 1808.882812 328.132812 1806.964844 332.523438 1806.347656 337.257812 C 1806.277344 337.824219 1806.566406 343.289062 1806.136719 343.535156 C 1806.074219 343.566406 1798.972656 337.554688 1798.363281 337.222656 C 1793.433594 334.535156 1787.5625 334.640625 1782.140625 335.296875 C 1769.5625 336.824219 1756.335938 340.09375 1744.8125 345.421875 C 1742.417969 346.527344 1735.480469 349.046875 1734.152344 351.695312 C 1733.769531 352.464844 1735.867188 351.582031 1736.722656 351.484375 C 1737.316406 351.414062 1742.65625 350.597656 1742.78125 351.339844 C 1742.953125 352.378906 1734.53125 354.0625 1733.976562 354.195312 C 1723.964844 356.539062 1713.820312 358.097656 1703.777344 360.21875 C 1699.625 361.09375 1693.636719 361.96875 1691.40625 366.207031 C 1690.734375 367.480469 1694.585938 365.078125 1695.003906 364.890625 C 1698.089844 363.496094 1701.335938 362.96875 1704.488281 364.460938 C 1718.433594 371.058594 1728.34375 370.171875 1743.847656 369.09375 C 1751.675781 368.554688 1759.308594 369.871094 1767.09375 369.734375 C 1773.953125 369.621094 1780.441406 367.054688 1787.238281 366.566406 C 1798.023438 365.789062 1810.171875 366.753906 1821.003906 367.347656 C 1829.695312 367.828125 1837.957031 371.339844 1846.671875 371.339844 " fill-opacity="1" fill-rule="nonzero"/><g clip-path="url(#dd5683b56d)"><path fill="#efebd4" d="M 864.320312 448.5625 C 864.734375 448.988281 863.460938 447.714844 862.9375 447.433594 C 861.773438 446.820312 860.417969 446.648438 859.121094 446.609375 C 854.988281 446.46875 850.921875 447.957031 846.925781 448.832031 C 832.421875 451.996094 817.484375 450.414062 802.871094 453.054688 C 800.980469 453.394531 788.394531 454.742188 789.722656 458.832031 C 790.734375 461.933594 797.585938 461.644531 799.917969 461.757812 C 810.710938 462.269531 821.5 462.382812 832.28125 463.09375 C 855.796875 464.636719 878.835938 463.058594 902.285156 463.40625 C 913.527344 463.578125 924.5625 465.613281 935.828125 465.15625 C 942.929688 464.867188 949.992188 464.191406 957.105469 464.648438 C 960.191406 464.847656 965.933594 466.460938 968.761719 464.519531 C 971.835938 462.414062 969.753906 456.386719 968.824219 453.691406 C 968.726562 453.402344 967.070312 449.953125 967.363281 449.65625 C 967.53125 449.492188 970.125 450.976562 970.289062 451.054688 C 973.296875 452.476562 976.382812 453.496094 979.65625 454.101562 C 990.976562 456.199219 1004.082031 456.011719 1015.582031 456.011719 C 1016.460938 456.011719 1013.828125 456.28125 1012.976562 456.519531 C 1011.460938 456.933594 1009.988281 457.46875 1008.589844 458.199219 C 1003.933594 460.640625 999.980469 464.34375 995.09375 466.359375 C 993.296875 467.101562 991.421875 467.4375 989.503906 467.632812 C 988.628906 467.71875 986.078125 467.429688 986.867188 467.824219 C 996.898438 472.839844 1007.898438 472.273438 1018.785156 472.648438 C 1043.007812 473.492188 1066.957031 471.222656 1091.140625 471.222656 C 1107.125 471.222656 1122.628906 473.785156 1138.242188 468.109375 C 1140.640625 467.238281 1139.535156 465.296875 1138.972656 463.40625 C 1138.296875 461.148438 1137.796875 458.753906 1136.875 456.582031 C 1135.777344 453.992188 1135.074219 452.710938 1137.890625 452.835938 C 1138.722656 452.867188 1139.546875 452.914062 1140.371094 453.023438 C 1147.753906 453.988281 1154.386719 458.707031 1161.902344 458.707031 C 1164.773438 458.707031 1167.417969 457.671875 1169.941406 456.386719 C 1171.273438 455.707031 1173.8125 454.101562 1173.8125 454.101562 C 1173.8125 454.101562 1177.871094 457.527344 1179.945312 459.1875 C 1184.109375 462.503906 1188.421875 463.757812 1193.730469 463.851562 C 1200.554688 463.972656 1207.722656 463.894531 1214.40625 462.390625 C 1225.683594 459.863281 1232.804688 455.613281 1243.976562 457.722656 C 1252.929688 459.414062 1262.253906 457.832031 1271.003906 455.722656 C 1271.972656 455.488281 1279.109375 453.894531 1278.816406 452.007812 C 1278.339844 448.886719 1270.609375 447.824219 1268.496094 447.65625 C 1259.566406 446.933594 1251.117188 447.0625 1242.386719 444.636719 C 1241.203125 444.308594 1235.003906 443.085938 1234.574219 441.589844 C 1234.5 441.328125 1236.941406 441.613281 1236.988281 441.621094 C 1239.128906 441.8125 1241.289062 441.9375 1243.433594 442.0625 C 1248.710938 442.378906 1253.96875 442.648438 1259.253906 442.765625 C 1275.257812 443.113281 1290.863281 443.078125 1306.546875 439.460938 C 1313.246094 437.914062 1322 437.109375 1328.144531 433.808594 C 1330.476562 432.550781 1332.253906 430.507812 1333.925781 428.503906 C 1334.707031 427.5625 1337.65625 425.835938 1336.433594 425.835938 C 1321.777344 425.835938 1307.683594 423.726562 1293.113281 422.5625 C 1281.957031 421.671875 1269.503906 422.296875 1258.621094 419.546875 C 1254.84375 418.589844 1251.867188 416.089844 1248.265625 414.75 C 1242.792969 412.714844 1236.894531 413.382812 1231.335938 411.796875 C 1222.613281 409.304688 1214.480469 405.132812 1205.257812 403.953125 C 1196.527344 402.832031 1192.066406 408.855469 1184.710938 410.082031 C 1183.699219 410.25 1184.222656 408.082031 1183.847656 407.128906 C 1183.140625 405.289062 1182.230469 403.488281 1181.183594 401.824219 C 1178.046875 396.835938 1173.347656 393.496094 1167.683594 391.914062 C 1162.171875 390.371094 1155.734375 389.9375 1150.023438 390.324219 C 1148.398438 390.4375 1146.699219 390.738281 1145.230469 391.503906 C 1144.375 391.949219 1142.722656 394.429688 1143.261719 393.628906 C 1146.03125 389.472656 1146.066406 381.101562 1145.894531 376.476562 C 1144.796875 347.113281 1115.746094 332.550781 1089.484375 332.328125 C 1072.199219 332.179688 1053.21875 335.355469 1038.480469 344.90625 C 1032.402344 348.847656 1027.078125 354.003906 1022.757812 359.804688 C 1021.832031 361.046875 1018.855469 367.457031 1016.882812 367.457031 C 1014.601562 367.457031 1009.042969 360.277344 1006.6875 359.070312 C 999.730469 355.511719 991.664062 355.082031 984.070312 356.40625 C 973.832031 358.1875 962.824219 363.511719 957.167969 372.601562 C 955.398438 375.449219 954.410156 378.589844 954.3125 381.941406 C 954.300781 382.382812 954.824219 385.273438 954.4375 385.5625 C 954.089844 385.828125 950.871094 384.289062 950.40625 384.195312 C 947.160156 383.527344 943.710938 384.09375 940.558594 384.992188 C 935.507812 386.425781 930.691406 389.085938 927.570312 393.40625 C 926.511719 394.863281 925.703125 396.511719 925.089844 398.203125 C 924.730469 399.210938 925.15625 401.761719 924.199219 401.28125 C 921.078125 399.722656 918.535156 395.582031 914.992188 393.851562 C 905.464844 389.203125 894.363281 390.53125 884.46875 393.183594 C 876.789062 395.246094 867.726562 398.441406 863.347656 405.605469 C 861.824219 408.089844 861.078125 410.988281 861.21875 413.894531 C 861.285156 415.1875 863.136719 417.125 861.980469 417.703125 C 861.730469 417.824219 857.105469 415.378906 856.390625 415.292969 C 852.699219 414.835938 848.578125 415.839844 845.050781 416.847656 C 840.21875 418.21875 835.957031 420.417969 832.476562 424.089844 C 830.574219 426.085938 828.507812 430.25 825.644531 431.011719 C 822.09375 431.960938 816.941406 430.109375 813.324219 429.964844 C 806.628906 429.6875 799.917969 430.5 793.28125 431.265625 C 783.789062 432.359375 772.5 432.167969 763.679688 436.21875 C 761.792969 437.089844 760.042969 438.191406 758.3125 439.332031 C 757.507812 439.863281 755.15625 440.117188 755.835938 440.792969 C 756.925781 441.886719 762.269531 440.703125 763.519531 440.636719 C 770.230469 440.265625 776.914062 439.863281 783.625 440.476562 C 790.75 441.128906 797.53125 443.714844 804.652344 444.289062 C 811.902344 444.875 818.992188 442.558594 826.25 443.015625 C 838.71875 443.804688 851.867188 448.140625 863.855469 451.464844 " fill-opacity="1" fill-rule="nonzero"/></g><g clip-path="url(#e53b6b323c)"><path fill="#f8f3de" d="M 1443.175781 561.863281 C 1442.417969 562.085938 1436.835938 558.023438 1436.113281 557.632812 C 1430.464844 554.589844 1423.800781 552.351562 1417.328125 552.523438 C 1410.058594 552.71875 1403.117188 555.851562 1397.589844 560.453125 C 1395.34375 562.328125 1390.976562 569.757812 1387.632812 569.363281 C 1383.121094 568.828125 1379.671875 565.84375 1374.75 565.871094 C 1363.082031 565.933594 1351.445312 571.773438 1341.023438 576.445312 C 1337.421875 578.0625 1333.859375 579.796875 1330.167969 581.21875 C 1329.941406 581.304688 1327.039062 582.101562 1327.144531 582.578125 C 1327.332031 583.46875 1332.886719 583.074219 1333.402344 583.066406 C 1339.753906 582.984375 1346.097656 582.398438 1352.445312 582.421875 C 1362.429688 582.46875 1371.777344 585.515625 1381.601562 586.605469 C 1395.96875 588.203125 1412.375 587.355469 1426.769531 585.8125 C 1435.492188 584.878906 1444.226562 582.75 1452.539062 579.960938 C 1455.742188 578.882812 1461.152344 575.710938 1464.652344 576.546875 C 1467.273438 577.175781 1469.957031 582.125 1471.964844 583.863281 C 1478.425781 589.4375 1483.949219 593.027344 1492.832031 592.921875 C 1504.101562 592.785156 1514.519531 586.480469 1525.476562 586.480469 C 1531.109375 586.480469 1535.933594 589.902344 1541.878906 589.789062 C 1551.0625 589.613281 1560.214844 588.199219 1569.390625 587.710938 C 1605.53125 585.800781 1641.726562 583.21875 1677.898438 582.039062 C 1700.199219 581.3125 1722.359375 579.050781 1744.675781 578.726562 C 1750.367188 578.644531 1756.09375 578.402344 1761.695312 577.320312 C 1762.65625 577.128906 1766.5625 576.738281 1767.007812 575.546875 C 1767.332031 574.679688 1763.859375 573.953125 1763.515625 573.855469 C 1759.269531 572.601562 1754.976562 571.613281 1750.605469 570.902344 C 1731.625 567.8125 1712.738281 570.433594 1693.683594 569.566406 C 1683.265625 569.089844 1669.792969 564.648438 1660.882812 558.890625 C 1656.378906 555.980469 1654.648438 551.292969 1648.566406 551.292969 C 1648.066406 551.292969 1644.496094 551.132812 1644.351562 551.960938 C 1644.316406 552.195312 1644.335938 550.726562 1644.304688 550.472656 C 1644.160156 549.28125 1643.96875 548.074219 1643.714844 546.902344 C 1642.921875 543.28125 1641.632812 538.992188 1638.480469 536.714844 C 1636.152344 535.035156 1633.171875 535.078125 1630.523438 535.867188 C 1629.332031 536.226562 1626.59375 538.417969 1627.082031 537.28125 C 1631.808594 526.25 1622.257812 516.050781 1611.660156 513.640625 C 1605.898438 512.332031 1598.980469 512.828125 1594.71875 517.390625 C 1593.691406 518.496094 1591.960938 523.863281 1591.050781 524.320312 C 1589.972656 524.859375 1591.132812 521.902344 1591.023438 520.703125 C 1590.8125 518.296875 1590.375 515.898438 1589.664062 513.589844 C 1587.445312 506.347656 1582.101562 498.75 1574.1875 497.269531 C 1566.859375 495.902344 1560.691406 500.761719 1556.761719 506.457031 C 1556.367188 507.03125 1551.375 515.082031 1554.605469 515.082031 C 1555.929688 515.082031 1556.46875 512.988281 1556.609375 512.023438 C 1557.175781 508.050781 1555.929688 503.765625 1554.683594 500.042969 C 1550.691406 488.128906 1542.636719 478.425781 1530.09375 475.324219 C 1510.152344 470.398438 1493.355469 478.777344 1483.28125 496.089844 C 1480.953125 500.097656 1476.046875 507.789062 1477.179688 512.871094 C 1477.246094 513.179688 1477.085938 512.253906 1476.996094 511.949219 C 1476.722656 511.015625 1476.292969 510.15625 1475.816406 509.308594 C 1474.382812 506.75 1472.539062 504.320312 1469.710938 503.226562 C 1462.3125 500.355469 1452.910156 505.46875 1447.148438 509.691406 C 1436.230469 517.6875 1428.089844 531.613281 1432.597656 545.316406 C 1434.480469 551.039062 1438.234375 555.84375 1441.886719 560.53125 " fill-opacity="1" fill-rule="nonzero"/></g></svg>