<svg xmlns="http://www.w3.org/2000/svg" xmlns:xlink="http://www.w3.org/1999/xlink" width="212" zoomAndPan="magnify" viewBox="0 0 159 343.499995" height="458" preserveAspectRatio="xMidYMid meet" version="1.0"><defs><clipPath id="19bfc1d34c"><path d="M 0.117188 27 L 21 27 L 21 342.25 L 0.117188 342.25 Z M 0.117188 27 " clip-rule="nonzero"/></clipPath><clipPath id="e82bb29c27"><path d="M 0.117188 -0.515625 L 324.394531 0.0507812 L 323.796875 343.050781 L -0.480469 342.484375 Z M 0.117188 -0.515625 " clip-rule="nonzero"/></clipPath><clipPath id="65cfd63386"><path d="M 0.117188 -0.515625 L 324.394531 0.0507812 L 323.796875 343.050781 L -0.480469 342.484375 Z M 0.117188 -0.515625 " clip-rule="nonzero"/></clipPath><clipPath id="7dd77aa4a8"><path d="M 0.117188 26 L 21 26 L 21 30 L 0.117188 30 Z M 0.117188 26 " clip-rule="nonzero"/></clipPath><clipPath id="45fbe1148c"><path d="M 0.117188 -0.515625 L 324.394531 0.0507812 L 323.796875 343.050781 L -0.480469 342.484375 Z M 0.117188 -0.515625 " clip-rule="nonzero"/></clipPath><clipPath id="f5d4c98755"><path d="M 0.117188 -0.515625 L 324.394531 0.0507812 L 323.796875 343.050781 L -0.480469 342.484375 Z M 0.117188 -0.515625 " clip-rule="nonzero"/></clipPath><clipPath id="e66211970c"><path d="M 0.117188 27 L 21 27 L 21 31 L 0.117188 31 Z M 0.117188 27 " clip-rule="nonzero"/></clipPath><clipPath id="900b62e4b5"><path d="M 0.117188 -0.515625 L 324.394531 0.0507812 L 323.796875 343.050781 L -0.480469 342.484375 Z M 0.117188 -0.515625 " clip-rule="nonzero"/></clipPath><clipPath id="21a7dd9f8c"><path d="M 0.117188 -0.515625 L 324.394531 0.0507812 L 323.796875 343.050781 L -0.480469 342.484375 Z M 0.117188 -0.515625 " clip-rule="nonzero"/></clipPath><clipPath id="351a43341c"><path d="M 15 0 L 158 0 L 158 263 L 15 263 Z M 15 0 " clip-rule="nonzero"/></clipPath><clipPath id="78cc3d2740"><path d="M 0.117188 -0.515625 L 324.394531 0.0507812 L 323.796875 343.050781 L -0.480469 342.484375 Z M 0.117188 -0.515625 " clip-rule="nonzero"/></clipPath><clipPath id="090f1c7639"><path d="M 0.117188 -0.515625 L 324.394531 0.0507812 L 323.796875 343.050781 L -0.480469 342.484375 Z M 0.117188 -0.515625 " clip-rule="nonzero"/></clipPath><clipPath id="4749ed392e"><path d="M 27 21 L 151 21 L 151 251 L 27 251 Z M 27 21 " clip-rule="nonzero"/></clipPath><clipPath id="f508894348"><path d="M 0.117188 -0.515625 L 324.394531 0.0507812 L 323.796875 343.050781 L -0.480469 342.484375 Z M 0.117188 -0.515625 " clip-rule="nonzero"/></clipPath><clipPath id="c013633357"><path d="M 0.117188 -0.515625 L 324.394531 0.0507812 L 323.796875 343.050781 L -0.480469 342.484375 Z M 0.117188 -0.515625 " clip-rule="nonzero"/></clipPath><clipPath id="8d438bb9f7"><path d="M 18 56 L 22 56 L 22 264 L 18 264 Z M 18 56 " clip-rule="nonzero"/></clipPath><clipPath id="0a31e3e5ba"><path d="M 0.117188 -0.515625 L 324.394531 0.0507812 L 323.796875 343.050781 L -0.480469 342.484375 Z M 0.117188 -0.515625 " clip-rule="nonzero"/></clipPath><clipPath id="735b7adea5"><path d="M 0.117188 -0.515625 L 324.394531 0.0507812 L 323.796875 343.050781 L -0.480469 342.484375 Z M 0.117188 -0.515625 " clip-rule="nonzero"/></clipPath><clipPath id="4f54c8dc86"><path d="M 0.117188 27 L 21 27 L 21 342.25 L 0.117188 342.25 Z M 0.117188 27 " clip-rule="nonzero"/></clipPath><clipPath id="eb598188db"><path d="M 0.117188 -0.515625 L 324.394531 0.0507812 L 323.796875 343.050781 L -0.480469 342.484375 Z M 0.117188 -0.515625 " clip-rule="nonzero"/></clipPath><clipPath id="14c6573f13"><path d="M 0.117188 -0.515625 L 324.394531 0.0507812 L 323.796875 343.050781 L -0.480469 342.484375 Z M 0.117188 -0.515625 " clip-rule="nonzero"/></clipPath><clipPath id="da06fac457"><path d="M 0.117188 26 L 21 26 L 21 30 L 0.117188 30 Z M 0.117188 26 " clip-rule="nonzero"/></clipPath><clipPath id="662d028b85"><path d="M 0.117188 -0.515625 L 324.394531 0.0507812 L 323.796875 343.050781 L -0.480469 342.484375 Z M 0.117188 -0.515625 " clip-rule="nonzero"/></clipPath><clipPath id="6ba547b5ca"><path d="M 0.117188 -0.515625 L 324.394531 0.0507812 L 323.796875 343.050781 L -0.480469 342.484375 Z M 0.117188 -0.515625 " clip-rule="nonzero"/></clipPath><clipPath id="c7200e0d18"><path d="M 0.117188 27 L 21 27 L 21 31 L 0.117188 31 Z M 0.117188 27 " clip-rule="nonzero"/></clipPath><clipPath id="36f0a6c760"><path d="M 0.117188 -0.515625 L 324.394531 0.0507812 L 323.796875 343.050781 L -0.480469 342.484375 Z M 0.117188 -0.515625 " clip-rule="nonzero"/></clipPath><clipPath id="1053647266"><path d="M 0.117188 -0.515625 L 324.394531 0.0507812 L 323.796875 343.050781 L -0.480469 342.484375 Z M 0.117188 -0.515625 " clip-rule="nonzero"/></clipPath><clipPath id="7c59f5d4f1"><path d="M 15 0 L 158 0 L 158 263 L 15 263 Z M 15 0 " clip-rule="nonzero"/></clipPath><clipPath id="079777529e"><path d="M 0.117188 -0.515625 L 324.394531 0.0507812 L 323.796875 343.050781 L -0.480469 342.484375 Z M 0.117188 -0.515625 " clip-rule="nonzero"/></clipPath><clipPath id="c5f6858422"><path d="M 0.117188 -0.515625 L 324.394531 0.0507812 L 323.796875 343.050781 L -0.480469 342.484375 Z M 0.117188 -0.515625 " clip-rule="nonzero"/></clipPath><clipPath id="01f8a39f17"><path d="M 27 21 L 151 21 L 151 251 L 27 251 Z M 27 21 " clip-rule="nonzero"/></clipPath><clipPath id="0defb37b12"><path d="M 0.117188 -0.515625 L 324.394531 0.0507812 L 323.796875 343.050781 L -0.480469 342.484375 Z M 0.117188 -0.515625 " clip-rule="nonzero"/></clipPath><clipPath id="44dc8b7dee"><path d="M 0.117188 -0.515625 L 324.394531 0.0507812 L 323.796875 343.050781 L -0.480469 342.484375 Z M 0.117188 -0.515625 " clip-rule="nonzero"/></clipPath><clipPath id="b3e74ea07f"><path d="M 111 39 L 151 39 L 151 43 L 111 43 Z M 111 39 " clip-rule="nonzero"/></clipPath><clipPath id="1c8491e77a"><path d="M 0.117188 -0.515625 L 324.394531 0.0507812 L 323.796875 343.050781 L -0.480469 342.484375 Z M 0.117188 -0.515625 " clip-rule="nonzero"/></clipPath><clipPath id="e0df1adc4e"><path d="M 0.117188 -0.515625 L 324.394531 0.0507812 L 323.796875 343.050781 L -0.480469 342.484375 Z M 0.117188 -0.515625 " clip-rule="nonzero"/></clipPath><clipPath id="0122055921"><path d="M 28 88 L 151 88 L 151 92 L 28 92 Z M 28 88 " clip-rule="nonzero"/></clipPath><clipPath id="d358c60467"><path d="M 0.117188 -0.515625 L 324.394531 0.0507812 L 323.796875 343.050781 L -0.480469 342.484375 Z M 0.117188 -0.515625 " clip-rule="nonzero"/></clipPath><clipPath id="58c8c07624"><path d="M 0.117188 -0.515625 L 324.394531 0.0507812 L 323.796875 343.050781 L -0.480469 342.484375 Z M 0.117188 -0.515625 " clip-rule="nonzero"/></clipPath><clipPath id="d231d70fc3"><path d="M 92 63 L 151 63 L 151 68 L 92 68 Z M 92 63 " clip-rule="nonzero"/></clipPath><clipPath id="84c8087963"><path d="M 0.117188 -0.515625 L 324.394531 0.0507812 L 323.796875 343.050781 L -0.480469 342.484375 Z M 0.117188 -0.515625 " clip-rule="nonzero"/></clipPath><clipPath id="9aa2b97b39"><path d="M 0.117188 -0.515625 L 324.394531 0.0507812 L 323.796875 343.050781 L -0.480469 342.484375 Z M 0.117188 -0.515625 " clip-rule="nonzero"/></clipPath><clipPath id="5f9f9890a7"><path d="M 28 113 L 151 113 L 151 118 L 28 118 Z M 28 113 " clip-rule="nonzero"/></clipPath><clipPath id="d7ba11806b"><path d="M 0.117188 -0.515625 L 324.394531 0.0507812 L 323.796875 343.050781 L -0.480469 342.484375 Z M 0.117188 -0.515625 " clip-rule="nonzero"/></clipPath><clipPath id="1c90d3ea23"><path d="M 0.117188 -0.515625 L 324.394531 0.0507812 L 323.796875 343.050781 L -0.480469 342.484375 Z M 0.117188 -0.515625 " clip-rule="nonzero"/></clipPath><clipPath id="c96017b448"><path d="M 28 138 L 151 138 L 151 143 L 28 143 Z M 28 138 " clip-rule="nonzero"/></clipPath><clipPath id="4781acd222"><path d="M 0.117188 -0.515625 L 324.394531 0.0507812 L 323.796875 343.050781 L -0.480469 342.484375 Z M 0.117188 -0.515625 " clip-rule="nonzero"/></clipPath><clipPath id="8eadaed442"><path d="M 0.117188 -0.515625 L 324.394531 0.0507812 L 323.796875 343.050781 L -0.480469 342.484375 Z M 0.117188 -0.515625 " clip-rule="nonzero"/></clipPath><clipPath id="be3fdcf496"><path d="M 28 165 L 151 165 L 151 172 L 28 172 Z M 28 165 " clip-rule="nonzero"/></clipPath><clipPath id="7327e565c0"><path d="M 0.117188 -0.515625 L 324.394531 0.0507812 L 323.796875 343.050781 L -0.480469 342.484375 Z M 0.117188 -0.515625 " clip-rule="nonzero"/></clipPath><clipPath id="cc6ec11862"><path d="M 0.117188 -0.515625 L 324.394531 0.0507812 L 323.796875 343.050781 L -0.480469 342.484375 Z M 0.117188 -0.515625 " clip-rule="nonzero"/></clipPath><clipPath id="322a0473a4"><path d="M 28 192 L 151 192 L 151 198 L 28 198 Z M 28 192 " clip-rule="nonzero"/></clipPath><clipPath id="38356e7ed4"><path d="M 0.117188 -0.515625 L 324.394531 0.0507812 L 323.796875 343.050781 L -0.480469 342.484375 Z M 0.117188 -0.515625 " clip-rule="nonzero"/></clipPath><clipPath id="2110017029"><path d="M 0.117188 -0.515625 L 324.394531 0.0507812 L 323.796875 343.050781 L -0.480469 342.484375 Z M 0.117188 -0.515625 " clip-rule="nonzero"/></clipPath><clipPath id="fde5e77454"><path d="M 28 221 L 151 221 L 151 226 L 28 226 Z M 28 221 " clip-rule="nonzero"/></clipPath><clipPath id="a9941bc90e"><path d="M 0.117188 -0.515625 L 324.394531 0.0507812 L 323.796875 343.050781 L -0.480469 342.484375 Z M 0.117188 -0.515625 " clip-rule="nonzero"/></clipPath><clipPath id="43ee95e449"><path d="M 0.117188 -0.515625 L 324.394531 0.0507812 L 323.796875 343.050781 L -0.480469 342.484375 Z M 0.117188 -0.515625 " clip-rule="nonzero"/></clipPath><clipPath id="32680ff0d2"><path d="M 18 56 L 22 56 L 22 264 L 18 264 Z M 18 56 " clip-rule="nonzero"/></clipPath><clipPath id="47294282a6"><path d="M 0.117188 -0.515625 L 324.394531 0.0507812 L 323.796875 343.050781 L -0.480469 342.484375 Z M 0.117188 -0.515625 " clip-rule="nonzero"/></clipPath><clipPath id="ce91829b03"><path d="M 0.117188 -0.515625 L 324.394531 0.0507812 L 323.796875 343.050781 L -0.480469 342.484375 Z M 0.117188 -0.515625 " clip-rule="nonzero"/></clipPath><clipPath id="285567d91f"><path d="M 126 5 L 139 5 L 139 14 L 126 14 Z M 126 5 " clip-rule="nonzero"/></clipPath><clipPath id="42090d5452"><path d="M 0.117188 -0.515625 L 324.394531 0.0507812 L 323.796875 343.050781 L -0.480469 342.484375 Z M 0.117188 -0.515625 " clip-rule="nonzero"/></clipPath><clipPath id="70628ad3e6"><path d="M 0.117188 -0.515625 L 324.394531 0.0507812 L 323.796875 343.050781 L -0.480469 342.484375 Z M 0.117188 -0.515625 " clip-rule="nonzero"/></clipPath><clipPath id="bbc57f1727"><path d="M 140 1 L 150 1 L 150 5 L 140 5 Z M 140 1 " clip-rule="nonzero"/></clipPath><clipPath id="b2a5de1cab"><path d="M 0.117188 -0.515625 L 324.394531 0.0507812 L 323.796875 343.050781 L -0.480469 342.484375 Z M 0.117188 -0.515625 " clip-rule="nonzero"/></clipPath><clipPath id="910f5d4c19"><path d="M 0.117188 -0.515625 L 324.394531 0.0507812 L 323.796875 343.050781 L -0.480469 342.484375 Z M 0.117188 -0.515625 " clip-rule="nonzero"/></clipPath><clipPath id="20b8f2b318"><path d="M 61 69 L 77 69 L 77 74 L 61 74 Z M 61 69 " clip-rule="nonzero"/></clipPath><clipPath id="5259060eb1"><path d="M 0.117188 -0.515625 L 324.394531 0.0507812 L 323.796875 343.050781 L -0.480469 342.484375 Z M 0.117188 -0.515625 " clip-rule="nonzero"/></clipPath><clipPath id="cba29b6e21"><path d="M 0.117188 -0.515625 L 324.394531 0.0507812 L 323.796875 343.050781 L -0.480469 342.484375 Z M 0.117188 -0.515625 " clip-rule="nonzero"/></clipPath><clipPath id="3d42f95a8b"><path d="M 2 49 L 6 49 L 6 66 L 2 66 Z M 2 49 " clip-rule="nonzero"/></clipPath><clipPath id="924d0180dd"><path d="M 0.117188 -0.515625 L 324.394531 0.0507812 L 323.796875 343.050781 L -0.480469 342.484375 Z M 0.117188 -0.515625 " clip-rule="nonzero"/></clipPath><clipPath id="06579995c6"><path d="M 0.117188 -0.515625 L 324.394531 0.0507812 L 323.796875 343.050781 L -0.480469 342.484375 Z M 0.117188 -0.515625 " clip-rule="nonzero"/></clipPath><clipPath id="f4f0843bd1"><path d="M 2 68 L 5 68 L 5 78 L 2 78 Z M 2 68 " clip-rule="nonzero"/></clipPath><clipPath id="7a033e5c60"><path d="M 0.117188 -0.515625 L 324.394531 0.0507812 L 323.796875 343.050781 L -0.480469 342.484375 Z M 0.117188 -0.515625 " clip-rule="nonzero"/></clipPath><clipPath id="88509b24e4"><path d="M 0.117188 -0.515625 L 324.394531 0.0507812 L 323.796875 343.050781 L -0.480469 342.484375 Z M 0.117188 -0.515625 " clip-rule="nonzero"/></clipPath><clipPath id="a1ffd9e56b"><path d="M 12 178 L 16 178 L 16 195 L 12 195 Z M 12 178 " clip-rule="nonzero"/></clipPath><clipPath id="3c3088f660"><path d="M 0.117188 -0.515625 L 324.394531 0.0507812 L 323.796875 343.050781 L -0.480469 342.484375 Z M 0.117188 -0.515625 " clip-rule="nonzero"/></clipPath><clipPath id="60ee648858"><path d="M 0.117188 -0.515625 L 324.394531 0.0507812 L 323.796875 343.050781 L -0.480469 342.484375 Z M 0.117188 -0.515625 " clip-rule="nonzero"/></clipPath><clipPath id="ae32c941ea"><path d="M 3 293 L 7 293 L 7 310 L 3 310 Z M 3 293 " clip-rule="nonzero"/></clipPath><clipPath id="7c1dd86651"><path d="M 0.117188 -0.515625 L 324.394531 0.0507812 L 323.796875 343.050781 L -0.480469 342.484375 Z M 0.117188 -0.515625 " clip-rule="nonzero"/></clipPath><clipPath id="0ac0fe7bc5"><path d="M 0.117188 -0.515625 L 324.394531 0.0507812 L 323.796875 343.050781 L -0.480469 342.484375 Z M 0.117188 -0.515625 " clip-rule="nonzero"/></clipPath><clipPath id="5744ba37d2"><path d="M 7 301 L 10 301 L 10 315 L 7 315 Z M 7 301 " clip-rule="nonzero"/></clipPath><clipPath id="82b152d9f7"><path d="M 0.117188 -0.515625 L 324.394531 0.0507812 L 323.796875 343.050781 L -0.480469 342.484375 Z M 0.117188 -0.515625 " clip-rule="nonzero"/></clipPath><clipPath id="37916b6e25"><path d="M 0.117188 -0.515625 L 324.394531 0.0507812 L 323.796875 343.050781 L -0.480469 342.484375 Z M 0.117188 -0.515625 " clip-rule="nonzero"/></clipPath></defs><g clip-path="url(#19bfc1d34c)"><g clip-path="url(#e82bb29c27)"><g clip-path="url(#65cfd63386)"><path fill="#bf6a2c" d="M 19.722656 340.515625 C 19.539062 340.699219 19.71875 340.699219 19.722656 340.515625 C 19.71875 341.601562 15.207031 342.496094 9.617188 342.484375 C 4.027344 342.476562 -0.480469 341.746094 -0.480469 340.664062 C -0.480469 340.664062 -0.480469 340.480469 -0.480469 340.480469 L 0.0664062 27.839844 L 20.265625 27.875 Z M 19.722656 340.515625 " fill-opacity="1" fill-rule="nonzero"/></g></g></g><g clip-path="url(#7dd77aa4a8)"><g clip-path="url(#45fbe1148c)"><g clip-path="url(#f5d4c98755)"><path fill="#bf6a2c" d="M 20.265625 27.875 C 20.265625 27.996094 20.203125 28.113281 20.070312 28.226562 C 19.941406 28.34375 19.75 28.457031 19.496094 28.566406 C 19.242188 28.675781 18.929688 28.777344 18.5625 28.875 C 18.195312 28.972656 17.773438 29.066406 17.304688 29.148438 C 16.835938 29.230469 16.328125 29.304688 15.773438 29.371094 C 15.222656 29.433594 14.640625 29.488281 14.027344 29.535156 C 13.417969 29.578125 12.785156 29.609375 12.132812 29.632812 C 11.484375 29.65625 10.828125 29.664062 10.164062 29.664062 C 9.5 29.664062 8.84375 29.648438 8.191406 29.625 C 7.542969 29.601562 6.910156 29.566406 6.300781 29.519531 C 5.6875 29.472656 5.105469 29.417969 4.554688 29.351562 C 4 29.28125 3.492188 29.207031 3.023438 29.121094 C 2.554688 29.039062 2.136719 28.945312 1.765625 28.847656 C 1.398438 28.746094 1.089844 28.644531 0.835938 28.535156 C 0.582031 28.421875 0.390625 28.308594 0.261719 28.195312 C 0.132812 28.078125 0.0664062 27.960938 0.0664062 27.839844 C 0.0664062 27.722656 0.132812 27.605469 0.261719 27.488281 C 0.390625 27.375 0.582031 27.261719 0.835938 27.152344 C 1.089844 27.042969 1.402344 26.9375 1.769531 26.839844 C 2.140625 26.742188 2.558594 26.652344 3.027344 26.570312 C 3.496094 26.488281 4.007812 26.414062 4.558594 26.347656 C 5.109375 26.285156 5.691406 26.230469 6.304688 26.183594 C 6.917969 26.140625 7.550781 26.105469 8.199219 26.085938 C 8.851562 26.0625 9.507812 26.050781 10.171875 26.054688 C 10.832031 26.054688 11.488281 26.066406 12.140625 26.09375 C 12.789062 26.117188 13.421875 26.152344 14.035156 26.199219 C 14.648438 26.246094 15.230469 26.300781 15.78125 26.367188 C 16.332031 26.433594 16.84375 26.511719 17.3125 26.59375 C 17.78125 26.679688 18.199219 26.773438 18.566406 26.871094 C 18.933594 26.96875 19.246094 27.074219 19.5 27.183594 C 19.753906 27.292969 19.945312 27.40625 20.074219 27.523438 C 20.203125 27.640625 20.265625 27.757812 20.265625 27.875 Z M 20.265625 27.875 " fill-opacity="1" fill-rule="nonzero"/></g></g></g><g clip-path="url(#e66211970c)"><g clip-path="url(#900b62e4b5)"><g clip-path="url(#21a7dd9f8c)"><path fill="#924516" d="M 10.160156 30.925781 C 6.375 30.921875 2.949219 30.554688 1.144531 30.007812 C 0.425781 29.828125 0.0664062 29.105469 0.246094 28.382812 C 0.429688 27.660156 1.148438 27.300781 1.871094 27.484375 C 3.492188 28.027344 6.738281 28.394531 10.164062 28.402344 C 13.59375 28.40625 16.839844 28.050781 18.464844 27.511719 C 19.183594 27.332031 19.90625 27.695312 20.085938 28.417969 C 20.265625 29.140625 19.902344 29.863281 19.179688 30.039062 C 17.195312 30.757812 13.949219 30.933594 10.160156 30.925781 Z M 10.160156 30.925781 " fill-opacity="1" fill-rule="nonzero"/></g></g></g><g clip-path="url(#351a43341c)"><g clip-path="url(#78cc3d2740)"><g clip-path="url(#090f1c7639)"><path fill="#bf6a2c" d="M 15.890625 261.988281 L 157.46875 262.238281 L 157.921875 2.484375 C 157.925781 1.039062 156.664062 -0.226562 155.222656 -0.226562 C 149.269531 -0.238281 135.199219 0.277344 128.878906 5.140625 C 120.753906 11.265625 115.148438 20.28125 109.902344 28.933594 C 104.476562 37.589844 98.867188 46.605469 90.5625 52.546875 C 81.894531 58.851562 71.25 61.359375 60.605469 62.242188 C 46.175781 63.480469 17.507812 57.476562 17.507812 57.476562 C 17.507812 57.476562 17.332031 262.894531 15.890625 261.988281 Z M 15.890625 261.988281 " fill-opacity="1" fill-rule="nonzero"/></g></g></g><g clip-path="url(#4749ed392e)"><g clip-path="url(#f508894348)"><g clip-path="url(#c013633357)"><path fill="#924516" d="M 27.632812 249.914062 L 150.457031 250.128906 L 150.851562 23.773438 C 150.851562 22.507812 149.773438 21.421875 148.511719 21.421875 C 143.28125 21.414062 131.195312 21.933594 125.597656 26.074219 C 118.554688 31.476562 113.851562 39.230469 109.148438 46.984375 C 104.445312 54.558594 99.5625 62.3125 92.519531 67.535156 C 85.117188 72.9375 75.734375 75.265625 66.535156 75.972656 C 53.90625 77.035156 29.027344 71.753906 29.027344 71.753906 C 29.027344 71.753906 28.714844 250.640625 27.632812 249.914062 Z M 27.632812 249.914062 " fill-opacity="1" fill-rule="nonzero"/></g></g></g><g clip-path="url(#8d438bb9f7)"><g clip-path="url(#0a31e3e5ba)"><g clip-path="url(#735b7adea5)"><path fill="#924516" d="M 19.855469 263.261719 C 19.132812 263.257812 18.59375 262.714844 18.59375 261.992188 L 18.953125 58.199219 C 18.953125 57.476562 19.496094 56.9375 20.214844 56.9375 C 20.9375 56.941406 21.476562 57.480469 21.476562 58.203125 L 21.121094 262 C 21.121094 262.71875 20.578125 263.261719 19.855469 263.261719 Z M 19.855469 263.261719 " fill-opacity="1" fill-rule="nonzero"/></g></g></g><g clip-path="url(#4f54c8dc86)"><g clip-path="url(#eb598188db)"><g clip-path="url(#14c6573f13)"><path fill="#bf6a2c" d="M 19.722656 340.515625 C 19.539062 340.699219 19.71875 340.699219 19.722656 340.515625 C 19.71875 341.601562 15.207031 342.496094 9.617188 342.484375 C 4.027344 342.476562 -0.480469 341.746094 -0.480469 340.664062 C -0.480469 340.664062 -0.480469 340.480469 -0.480469 340.480469 L 0.0664062 27.839844 L 20.265625 27.875 Z M 19.722656 340.515625 " fill-opacity="1" fill-rule="nonzero"/></g></g></g><g clip-path="url(#da06fac457)"><g clip-path="url(#662d028b85)"><g clip-path="url(#6ba547b5ca)"><path fill="#bf6a2c" d="M 20.265625 27.875 C 20.265625 27.996094 20.203125 28.113281 20.070312 28.226562 C 19.941406 28.34375 19.75 28.457031 19.496094 28.566406 C 19.242188 28.675781 18.929688 28.777344 18.5625 28.875 C 18.195312 28.972656 17.773438 29.066406 17.304688 29.148438 C 16.835938 29.230469 16.328125 29.304688 15.773438 29.371094 C 15.222656 29.433594 14.640625 29.488281 14.027344 29.535156 C 13.417969 29.578125 12.785156 29.609375 12.132812 29.632812 C 11.484375 29.65625 10.828125 29.664062 10.164062 29.664062 C 9.5 29.664062 8.84375 29.648438 8.191406 29.625 C 7.542969 29.601562 6.910156 29.566406 6.300781 29.519531 C 5.6875 29.472656 5.105469 29.417969 4.554688 29.351562 C 4 29.28125 3.492188 29.207031 3.023438 29.121094 C 2.554688 29.039062 2.136719 28.945312 1.765625 28.847656 C 1.398438 28.746094 1.089844 28.644531 0.835938 28.535156 C 0.582031 28.421875 0.390625 28.308594 0.261719 28.195312 C 0.132812 28.078125 0.0664062 27.960938 0.0664062 27.839844 C 0.0664062 27.722656 0.132812 27.605469 0.261719 27.488281 C 0.390625 27.375 0.582031 27.261719 0.835938 27.152344 C 1.089844 27.042969 1.402344 26.9375 1.769531 26.839844 C 2.140625 26.742188 2.558594 26.652344 3.027344 26.570312 C 3.496094 26.488281 4.007812 26.414062 4.558594 26.347656 C 5.109375 26.285156 5.691406 26.230469 6.304688 26.183594 C 6.917969 26.140625 7.550781 26.105469 8.199219 26.085938 C 8.851562 26.0625 9.507812 26.050781 10.171875 26.054688 C 10.832031 26.054688 11.488281 26.066406 12.140625 26.09375 C 12.789062 26.117188 13.421875 26.152344 14.035156 26.199219 C 14.648438 26.246094 15.230469 26.300781 15.78125 26.367188 C 16.332031 26.433594 16.84375 26.511719 17.3125 26.59375 C 17.78125 26.679688 18.199219 26.773438 18.566406 26.871094 C 18.933594 26.96875 19.246094 27.074219 19.5 27.183594 C 19.753906 27.292969 19.945312 27.40625 20.074219 27.523438 C 20.203125 27.640625 20.265625 27.757812 20.265625 27.875 Z M 20.265625 27.875 " fill-opacity="1" fill-rule="nonzero"/></g></g></g><g clip-path="url(#c7200e0d18)"><g clip-path="url(#36f0a6c760)"><g clip-path="url(#1053647266)"><path fill="#924516" d="M 10.160156 30.925781 C 6.375 30.921875 2.949219 30.554688 1.144531 30.007812 C 0.425781 29.828125 0.0664062 29.105469 0.246094 28.382812 C 0.429688 27.660156 1.148438 27.300781 1.871094 27.484375 C 3.492188 28.027344 6.738281 28.394531 10.164062 28.402344 C 13.59375 28.40625 16.839844 28.050781 18.464844 27.511719 C 19.183594 27.332031 19.90625 27.695312 20.085938 28.417969 C 20.265625 29.140625 19.902344 29.863281 19.179688 30.039062 C 17.195312 30.757812 13.949219 30.933594 10.160156 30.925781 Z M 10.160156 30.925781 " fill-opacity="1" fill-rule="nonzero"/></g></g></g><g clip-path="url(#7c59f5d4f1)"><g clip-path="url(#079777529e)"><g clip-path="url(#c5f6858422)"><path fill="#bf6a2c" d="M 15.890625 261.988281 L 157.46875 262.238281 L 157.921875 2.484375 C 157.925781 1.039062 156.664062 -0.226562 155.222656 -0.226562 C 149.269531 -0.238281 135.199219 0.277344 128.878906 5.140625 C 120.753906 11.265625 115.148438 20.28125 109.902344 28.933594 C 104.476562 37.589844 98.867188 46.605469 90.5625 52.546875 C 81.894531 58.851562 71.25 61.359375 60.605469 62.242188 C 46.175781 63.480469 17.507812 57.476562 17.507812 57.476562 C 17.507812 57.476562 17.332031 262.894531 15.890625 261.988281 Z M 15.890625 261.988281 " fill-opacity="1" fill-rule="nonzero"/></g></g></g><g clip-path="url(#01f8a39f17)"><g clip-path="url(#0defb37b12)"><g clip-path="url(#44dc8b7dee)"><path fill="#924516" d="M 27.632812 249.914062 L 150.457031 250.128906 L 150.851562 23.773438 C 150.851562 22.507812 149.773438 21.421875 148.511719 21.421875 C 143.28125 21.414062 131.195312 21.933594 125.597656 26.074219 C 118.554688 31.476562 113.851562 39.230469 109.148438 46.984375 C 104.445312 54.558594 99.5625 62.3125 92.519531 67.535156 C 85.117188 72.9375 75.734375 75.265625 66.535156 75.972656 C 53.90625 77.035156 29.027344 71.753906 29.027344 71.753906 C 29.027344 71.753906 28.714844 250.640625 27.632812 249.914062 Z M 27.632812 249.914062 " fill-opacity="1" fill-rule="nonzero"/></g></g></g><g clip-path="url(#b3e74ea07f)"><g clip-path="url(#1c8491e77a)"><g clip-path="url(#e0df1adc4e)"><path fill="#7c360f" d="M 150.644531 39.113281 C 138.199219 39.816406 125.574219 40.335938 112.949219 40.3125 C 112.40625 41.214844 111.863281 42.117188 111.320312 42.835938 C 124.484375 42.859375 137.472656 42.339844 150.640625 41.640625 Z M 150.644531 39.113281 " fill-opacity="1" fill-rule="nonzero"/></g></g></g><g clip-path="url(#0122055921)"><g clip-path="url(#d358c60467)"><g clip-path="url(#58c8c07624)"><path fill="#7c360f" d="M 28.992188 91.613281 C 51.898438 90.929688 75.34375 90.96875 98.070312 91.191406 C 115.382812 91.222656 133.058594 91.25 150.554688 91.101562 L 150.558594 88.574219 C 133.0625 88.722656 115.386719 88.695312 98.074219 88.664062 C 75.347656 88.625 51.902344 88.582031 28.996094 89.085938 C 28.996094 89.804688 28.996094 90.707031 28.992188 91.613281 Z M 28.992188 91.613281 " fill-opacity="1" fill-rule="nonzero"/></g></g></g><g clip-path="url(#d231d70fc3)"><g clip-path="url(#84c8087963)"><g clip-path="url(#9aa2b97b39)"><path fill="#7c360f" d="M 150.597656 66.191406 L 150.601562 63.664062 C 132.386719 63.632812 113.988281 63.960938 95.769531 64.652344 C 94.6875 65.550781 93.605469 66.453125 92.519531 67.355469 C 111.820312 66.484375 131.296875 66.15625 150.597656 66.191406 Z M 150.597656 66.191406 " fill-opacity="1" fill-rule="nonzero"/></g></g></g><g clip-path="url(#5f9f9890a7)"><g clip-path="url(#d7ba11806b)"><g clip-path="url(#1c90d3ea23)"><path fill="#7c360f" d="M 28.953125 114.535156 C 28.953125 115.4375 28.949219 116.339844 28.949219 117.0625 L 150.511719 115.832031 L 150.515625 113.304688 Z M 28.953125 114.535156 " fill-opacity="1" fill-rule="nonzero"/></g></g></g><g clip-path="url(#c96017b448)"><g clip-path="url(#4781acd222)"><g clip-path="url(#8eadaed442)"><path fill="#7c360f" d="M 28.910156 139.625 C 28.90625 140.53125 28.90625 141.433594 28.90625 142.335938 C 42.429688 142.71875 55.957031 142.921875 69.664062 142.945312 C 96.714844 142.996094 123.769531 142.320312 150.644531 141.285156 L 150.648438 138.757812 C 110.066406 140.308594 69.308594 140.601562 28.910156 139.625 Z M 28.910156 139.625 " fill-opacity="1" fill-rule="nonzero"/></g></g></g><g clip-path="url(#be3fdcf496)"><g clip-path="url(#7327e565c0)"><g clip-path="url(#cc6ec11862)"><path fill="#7c360f" d="M 28.675781 171.035156 L 150.417969 167.636719 L 150.425781 165.109375 L 28.679688 168.507812 C 28.675781 169.230469 28.675781 170.132812 28.675781 171.035156 Z M 28.675781 171.035156 " fill-opacity="1" fill-rule="nonzero"/></g></g></g><g clip-path="url(#322a0473a4)"><g clip-path="url(#38356e7ed4)"><g clip-path="url(#2110017029)"><path fill="#7c360f" d="M 28.632812 194.679688 C 28.632812 195.585938 28.628906 196.488281 28.628906 197.207031 C 39.269531 197.40625 49.730469 197.605469 60.371094 197.625 C 90.488281 197.679688 120.609375 197.007812 150.550781 195.4375 L 150.554688 192.910156 C 109.972656 194.824219 69.03125 195.472656 28.632812 194.679688 Z M 28.632812 194.679688 " fill-opacity="1" fill-rule="nonzero"/></g></g></g><g clip-path="url(#fde5e77454)"><g clip-path="url(#a9941bc90e)"><g clip-path="url(#43ee95e449)"><path fill="#7c360f" d="M 150.320312 224.316406 L 150.324219 221.789062 C 109.742188 223.703125 68.800781 223.8125 28.222656 221.9375 C 28.222656 222.839844 28.222656 223.742188 28.21875 224.464844 C 47.15625 225.21875 66.09375 225.792969 85.03125 225.828125 C 106.851562 225.867188 128.675781 225.363281 150.320312 224.316406 Z M 150.320312 224.316406 " fill-opacity="1" fill-rule="nonzero"/></g></g></g><g clip-path="url(#32680ff0d2)"><g clip-path="url(#47294282a6)"><g clip-path="url(#ce91829b03)"><path fill="#924516" d="M 19.855469 263.261719 C 19.132812 263.257812 18.59375 262.714844 18.59375 261.992188 L 18.953125 58.199219 C 18.953125 57.476562 19.496094 56.9375 20.214844 56.9375 C 20.9375 56.941406 21.476562 57.480469 21.476562 58.203125 L 21.121094 262 C 21.121094 262.71875 20.578125 263.261719 19.855469 263.261719 Z M 19.855469 263.261719 " fill-opacity="1" fill-rule="nonzero"/></g></g></g><g clip-path="url(#285567d91f)"><g clip-path="url(#42090d5452)"><g clip-path="url(#70628ad3e6)"><path fill="#924516" d="M 127.605469 13.082031 C 127.242188 13.082031 126.882812 12.898438 126.523438 12.539062 C 125.984375 11.996094 126.164062 11.09375 126.707031 10.734375 C 129.777344 8.390625 133.027344 6.414062 136.453125 5.15625 C 137.175781 4.976562 137.898438 5.335938 138.078125 5.878906 C 138.257812 6.601562 137.894531 7.324219 137.351562 7.503906 C 134.105469 8.761719 131.035156 10.378906 128.507812 12.542969 C 128.324219 12.902344 127.964844 13.082031 127.605469 13.082031 Z M 127.605469 13.082031 " fill-opacity="1" fill-rule="nonzero"/></g></g></g><g clip-path="url(#bbc57f1727)"><g clip-path="url(#b2a5de1cab)"><g clip-path="url(#910f5d4c19)"><path fill="#924516" d="M 141.867188 4.984375 C 141.144531 4.980469 140.605469 4.441406 140.605469 3.71875 C 140.605469 2.996094 141.148438 2.457031 141.871094 2.277344 L 148.183594 1.925781 C 148.90625 1.925781 149.445312 2.46875 149.625 3.191406 C 149.625 3.914062 149.082031 4.453125 148.359375 4.632812 L 141.867188 4.984375 C 142.046875 4.984375 142.046875 4.984375 141.867188 4.984375 Z M 141.867188 4.984375 " fill-opacity="1" fill-rule="nonzero"/></g></g></g><g clip-path="url(#20b8f2b318)"><g clip-path="url(#5259060eb1)"><g clip-path="url(#cba29b6e21)"><path fill="#924516" d="M 65.277344 73.445312 C 64.375 73.441406 63.292969 73.441406 62.390625 73.257812 C 61.667969 73.257812 61.128906 72.535156 61.3125 71.8125 C 61.3125 71.089844 62.035156 70.550781 62.753906 70.730469 C 66.902344 71.101562 71.234375 70.566406 75.203125 69.128906 C 75.925781 68.949219 76.644531 69.3125 76.824219 69.851562 C 77.003906 70.574219 76.640625 71.296875 76.101562 71.476562 C 72.492188 72.914062 68.882812 73.449219 65.277344 73.445312 Z M 65.277344 73.445312 " fill-opacity="1" fill-rule="nonzero"/></g></g></g><g clip-path="url(#3d42f95a8b)"><g clip-path="url(#924d0180dd)"><g clip-path="url(#06579995c6)"><path fill="#924516" d="M 3.425781 65.933594 C 2.707031 65.933594 2.164062 65.390625 2.167969 64.667969 L 2.550781 50.769531 C 2.554688 50.046875 3.09375 49.507812 3.816406 49.507812 C 4.539062 49.511719 5.078125 50.050781 5.078125 50.773438 L 4.691406 64.671875 C 4.691406 65.394531 4.148438 65.9375 3.425781 65.933594 Z M 3.425781 65.933594 " fill-opacity="1" fill-rule="nonzero"/></g></g></g><g clip-path="url(#f4f0843bd1)"><g clip-path="url(#7a033e5c60)"><g clip-path="url(#88509b24e4)"><path fill="#924516" d="M 3.585938 77.488281 C 2.867188 77.484375 2.324219 76.945312 2.328125 76.222656 L 2.339844 69.902344 C 2.339844 69.183594 2.882812 68.640625 3.601562 68.640625 C 4.324219 68.644531 4.863281 69.1875 4.863281 69.910156 L 4.851562 76.226562 C 4.851562 76.949219 4.308594 77.488281 3.585938 77.488281 Z M 3.585938 77.488281 " fill-opacity="1" fill-rule="nonzero"/></g></g></g><g clip-path="url(#a1ffd9e56b)"><g clip-path="url(#3c3088f660)"><g clip-path="url(#60ee648858)"><path fill="#924516" d="M 14.207031 194.113281 C 13.484375 194.113281 12.945312 193.570312 12.945312 192.847656 L 12.96875 179.851562 C 12.96875 179.128906 13.511719 178.589844 14.230469 178.589844 C 14.953125 178.59375 15.492188 179.136719 15.492188 179.855469 L 15.46875 192.855469 C 15.648438 193.394531 14.925781 194.117188 14.207031 194.113281 Z M 14.207031 194.113281 " fill-opacity="1" fill-rule="nonzero"/></g></g></g><g clip-path="url(#ae32c941ea)"><g clip-path="url(#7c1dd86651)"><g clip-path="url(#0ac0fe7bc5)"><path fill="#924516" d="M 4.984375 309.445312 C 4.265625 309.441406 3.722656 308.902344 3.726562 308.179688 L 3.386719 294.820312 C 3.390625 294.097656 3.933594 293.558594 4.652344 293.558594 C 5.375 293.558594 5.914062 294.101562 5.914062 294.824219 L 6.25 308.183594 C 6.429688 308.90625 5.707031 309.445312 4.984375 309.445312 Z M 4.984375 309.445312 " fill-opacity="1" fill-rule="nonzero"/></g></g></g><g clip-path="url(#5744ba37d2)"><g clip-path="url(#82b152d9f7)"><g clip-path="url(#37916b6e25)"><path fill="#924516" d="M 8.40625 314.144531 C 7.683594 314.140625 7.144531 313.601562 7.144531 312.878906 L 7.160156 302.949219 C 7.164062 302.226562 7.703125 301.6875 8.425781 301.6875 C 9.148438 301.691406 9.6875 302.230469 9.6875 302.953125 L 9.667969 312.882812 C 9.667969 313.605469 9.125 314.144531 8.40625 314.144531 Z M 8.40625 314.144531 " fill-opacity="1" fill-rule="nonzero"/></g></g></g></svg>